<svg width="113" height="34" viewBox="0 0 113 34" fill="none" xmlns="http://www.w3.org/2000/svg">
<g clip-path="url(#clip0_188_2821)">
<path d="M19.5909 7.98032L21.9801 3.81776C22.6764 2.59911 22.2668 1.03815 21.0517 0.339824C19.8367 -0.358501 18.2803 0.0522781 17.584 1.27092L15.1813 5.43349C10.0753 3.81776 4.35489 5.91273 1.56981 10.76C-0.205004 13.8407 -0.423442 17.3871 0.655096 20.4954L5.07846 12.8001C6.08874 11.0338 7.74068 9.77406 9.70661 9.24005C11.6725 8.70603 13.7205 8.97988 15.4816 10.0069C19.1131 12.1155 20.3691 16.7984 18.2666 20.4406C16.1642 24.0829 11.5088 25.3426 7.86355 23.2339L10.4029 18.8249C11.618 19.5233 13.1743 19.1124 13.8706 17.8938C14.5668 16.6751 14.1573 15.1142 12.9423 14.4159C11.7271 13.7176 10.1708 14.1283 9.47449 15.3469L1.39232 29.4093C0.696053 30.628 1.10562 32.1889 2.32069 32.8873C3.53575 33.5856 5.09212 33.1748 5.78839 31.9561L8.19121 27.7936C13.2972 29.4093 19.0175 27.3144 21.8026 22.4671C24.5877 17.6336 23.5365 11.6225 19.5909 7.98032Z" fill="#A1A1A1"/>
<path d="M66.0127 10.6687C69.3411 10.6689 72.001 13.1922 72.001 16.6199C72.0009 20.0475 69.341 22.5709 66.0127 22.571C62.6841 22.571 60.0235 20.0477 60.0234 16.6199C60.0234 13.192 62.6841 10.6687 66.0127 10.6687ZM89.2012 10.6687C92.5292 10.6687 95.1895 13.192 95.1895 16.6199C95.1894 20.0477 92.5292 22.571 89.2012 22.571C85.8723 22.571 83.2119 20.0477 83.2119 16.6199C83.2119 13.1921 85.8723 10.6687 89.2012 10.6687ZM97.9873 10.7097L98.0449 10.7644L103.682 16.0759C103.966 16.3396 104.302 16.7327 104.562 17.0535C104.57 17.0638 104.578 17.0745 104.586 17.0847C104.585 17.0705 104.583 17.0562 104.582 17.0417C104.545 16.6268 104.507 16.1086 104.507 15.7156V10.8191H107.063V22.53H106.552L106.494 22.4753L100.87 17.1619H100.869C100.58 16.8865 100.24 16.495 99.9746 16.1775C99.9647 16.1657 99.955 16.154 99.9453 16.1423C99.9466 16.155 99.9489 16.1676 99.9502 16.1804C99.9913 16.5907 100.032 17.1089 100.032 17.5232V22.4197H97.4756V10.7097H97.9873ZM34.2666 10.8054C35.4367 10.8054 36.5279 11.0976 37.3301 11.7478C38.1384 12.4031 38.6308 13.4044 38.6309 14.7712C38.6309 16.1382 38.1383 17.1428 37.3301 17.8015C36.528 18.4552 35.4372 18.7507 34.2666 18.7507H32.8428V22.4333H30.1348V10.8054H34.2666ZM48.4023 10.8054V13.2322H43.3105V15.407H47.8018V17.7917H43.3105V19.9939H48.6348V22.4197H40.6025V10.8054H48.4023ZM53.792 10.8054V19.9939H58.8564V22.4197H51.0986V10.8054H53.792ZM82.1553 10.8054V13.2322H78.96V22.4197H76.2529V13.2322H73.0723V10.8054H82.1553ZM66.0127 13.1228C64.1074 13.1228 62.7988 14.616 62.7988 16.6199C62.7989 18.6238 64.1074 20.1169 66.0127 20.1169C67.9177 20.1167 69.2256 18.6236 69.2256 16.6199C69.2256 14.6161 67.9178 13.123 66.0127 13.1228ZM89.2012 13.1228C87.2956 13.1228 85.9883 14.616 85.9883 16.6199C85.9883 18.6237 87.2957 20.1169 89.2012 20.1169C91.1062 20.1169 92.414 18.6238 92.4141 16.6199C92.4141 14.6159 91.1062 13.1228 89.2012 13.1228ZM32.8428 16.324H34.1982C34.739 16.324 35.148 16.2025 35.4199 15.9646C35.6869 15.7309 35.8555 15.355 35.8555 14.7712C35.8554 14.1825 35.6814 13.8152 35.4131 13.5896C35.138 13.3584 34.7279 13.2458 34.1982 13.2458H32.8428V16.324Z" fill="#A1A1A1" stroke="#A1A1A1" stroke-width="0.4"/>
</g>
<defs>
<clipPath id="clip0_188_2821">
<rect width="113" height="34" fill="white"/>
</clipPath>
</defs>
</svg>
