<svg width="69" height="28" viewBox="0 0 69 28" fill="none" xmlns="http://www.w3.org/2000/svg">
<g clip-path="url(#clip0_188_2773)">
<path d="M63.4742 19.5553C63.2911 19.5553 63.1651 19.4314 63.1651 19.2534V10.4059H60.0851C59.902 10.4059 59.7757 10.2826 59.7757 10.1043V8.8839C59.7757 8.70517 59.9021 8.58157 60.0851 8.58157H68.2834C68.4661 8.58157 68.5925 8.7053 68.5925 8.8839V10.1042C68.5925 10.2824 68.4661 10.4059 68.2834 10.4059H65.2036V19.2532C65.2036 19.4314 65.0769 19.5553 64.8944 19.5553H63.4742ZM39.8815 15.1382L38.2647 10.6119L36.6335 15.1382H39.8815ZM43.4673 19.1978C43.538 19.3766 43.4253 19.5553 43.2284 19.5553H41.7662C41.5552 19.5553 41.4284 19.4596 41.3579 19.2666L40.5286 16.9356H35.9871L35.1564 19.2666C35.0866 19.4596 34.9596 19.5553 34.7491 19.5553H33.3715C33.1885 19.5553 33.0617 19.3765 33.132 19.1978L36.9427 8.85643C37.0132 8.66377 37.1397 8.58203 37.3502 8.58203H39.2345C39.4456 8.58203 39.5863 8.66383 39.6566 8.85643L43.4673 19.1978ZM54.39 18.0736C55.2896 18.0736 55.8945 17.6491 56.3868 16.9218L54.1092 14.5347C53.237 15.0152 52.6743 15.4946 52.6743 16.4551C52.6744 17.4017 53.4614 18.0736 54.39 18.0736ZM55.0227 10.0355C54.2917 10.0355 53.8699 10.4886 53.8699 11.092C53.8699 11.5583 54.1225 11.9698 54.6992 12.5736C55.6975 12.0108 56.1196 11.668 56.1196 11.0647C56.1196 10.5018 55.7542 10.0355 55.0227 10.0355ZM61.2525 19.1712C61.4351 19.3634 61.3229 19.5553 61.0973 19.5553H59.3115C59.0725 19.5553 58.946 19.5002 58.7913 19.3216L57.7227 18.1699C57.0057 19.1028 56.0065 19.8021 54.3475 19.8021C52.2947 19.8021 50.6771 18.5951 50.6771 16.5242C50.6771 14.9326 51.5494 14.082 52.8714 13.3688C52.224 12.6419 51.9293 11.8737 51.9293 11.202C51.9293 9.50063 53.1525 8.3349 54.9943 8.3349C56.8786 8.3349 58.0319 9.4189 58.0319 11.0234C58.0319 12.3951 57.0197 13.1626 55.9507 13.7391L57.5258 15.3994L58.4115 13.89C58.5239 13.7119 58.6506 13.6431 58.8752 13.6431H60.2389C60.4642 13.6431 60.5908 13.7944 60.4506 14.0274L58.8754 16.6606L61.2525 19.1712ZM47.2194 19.5553C47.4022 19.5553 47.5293 19.4314 47.5293 19.2534V10.4059H50.6084C50.7912 10.4059 50.9176 10.2826 50.9176 10.1043V8.8839C50.9176 8.70517 50.7912 8.58157 50.6084 8.58157H42.4101C42.227 8.58157 42.1008 8.7053 42.1008 8.8839V10.1042C42.1008 10.2824 42.2271 10.4059 42.4101 10.4059H45.4892V19.2532C45.4892 19.4314 45.6162 19.5553 45.7987 19.5553H47.2194Z" fill="#5B5B5B"/>
<path d="M5.6036 24.8915C7.98831 26.6929 10.9815 27.7753 14.2291 27.7753C17.783 27.7753 21.0228 26.4877 23.4955 24.3741C23.5255 24.3483 23.5107 24.3312 23.4811 24.3483C22.3716 25.0714 19.2092 26.6499 14.2293 26.6499C9.90146 26.6499 7.16646 25.7076 5.62193 24.8663C5.59237 24.8521 5.58143 24.8737 5.6036 24.8915ZM15.1839 25.5929C18.6454 25.5929 22.4491 24.6721 24.724 22.8493C25.3465 22.3527 25.9395 21.6917 26.4706 20.8035C26.7763 20.2923 27.0754 19.6851 27.3189 19.0883C27.3297 19.0591 27.3113 19.045 27.2889 19.0777C25.1733 22.1157 19.0472 24.0107 12.7216 24.0107C8.25058 24.0107 3.43969 22.6154 1.5562 19.9513C1.53767 19.9267 1.51913 19.9372 1.53041 19.9655C3.28501 23.6048 8.60808 25.5929 15.1839 25.5929ZM11.402 19.5555C4.20282 19.5555 0.808269 16.2835 0.192502 14.0507C0.184909 14.0183 0.163086 14.0254 0.163086 14.0545C0.163086 14.8061 0.240185 15.7762 0.372834 16.4201C0.436114 16.7335 0.697514 17.2254 1.08075 17.6175C2.82399 19.3907 7.17015 21.8753 14.697 21.8753C24.952 21.8753 27.2968 18.5417 27.7755 17.4455C28.1179 16.6615 28.2954 15.2447 28.2954 14.0545C28.2954 13.7665 28.288 13.5365 28.2768 13.3106C28.2768 13.274 28.255 13.271 28.2475 13.3067C27.7351 15.9891 18.9733 19.5555 11.402 19.5555ZM1.51913 8.16821C1.10661 8.96715 0.649351 10.3149 0.513418 11.0125C0.453832 11.3113 0.479212 11.4549 0.586617 11.6779C1.44948 13.4645 5.81403 16.3229 15.9948 16.3229C22.2058 16.3229 27.0307 14.8339 27.8124 12.1166C27.9563 11.6163 27.964 11.0883 27.7791 10.3766C27.5725 9.58141 27.1855 8.65401 26.8581 8.00288C26.8473 7.98168 26.8282 7.98481 26.8321 8.00988C26.9537 11.5739 16.7689 13.8708 11.6301 13.8708C6.06386 13.8708 1.42007 11.7066 1.42007 8.97395C1.42007 8.71141 1.47575 8.44875 1.54526 8.17548C1.55224 8.15048 1.53034 8.14635 1.51913 8.16821ZM23.5183 3.79243C23.5774 3.88282 23.6068 3.97928 23.6068 4.10913C23.6068 5.63363 18.8255 8.33055 11.2144 8.33055C5.62193 8.33055 4.5749 6.30601 4.5749 5.01851C4.5749 4.55828 4.75578 4.08737 5.15414 3.60911C5.17589 3.58067 5.15742 3.56972 5.13232 3.59088C4.40579 4.19171 3.73823 4.86777 3.15264 5.59757C2.87284 5.94271 2.69914 6.24847 2.69914 6.43165C2.69914 9.09981 9.55502 11.0343 15.9655 11.0343C22.7959 11.0343 25.8442 8.85841 25.8442 6.94615C25.8442 6.26275 25.5716 5.86381 24.8743 5.09035C24.4216 4.58719 23.9934 4.17749 23.5402 3.7742C23.5183 3.75658 23.503 3.77093 23.5183 3.79243ZM21.4243 2.26827C19.3163 1.03523 16.8683 0.33374 14.2293 0.33374C11.5717 0.33374 9.05009 1.05974 6.93446 2.32541C6.29988 2.70653 5.94271 3.01195 5.94271 3.40456C5.94271 4.56189 8.71438 5.80626 13.6317 5.80626C18.498 5.80626 22.2723 4.44325 22.2723 3.13125C22.2723 2.81809 21.9918 2.59899 21.4243 2.26827Z" fill="#5B5B5B"/>
</g>
<defs>
<clipPath id="clip0_188_2773">
<rect width="69" height="28" fill="white"/>
</clipPath>
</defs>
</svg>
