<svg width="121" height="25" viewBox="0 0 121 25" fill="none" xmlns="http://www.w3.org/2000/svg">
<g clip-path="url(#clip0_188_2794)">
<path d="M117.476 11.4156V19.2762H114.589V11.935C114.589 10.1472 113.82 9.14836 112.322 9.14836C110.824 9.14836 109.835 10.1971 109.555 11.955C109.475 12.3745 109.455 13.0237 109.455 14.392V19.2662H106.569V6.78121H109.126C109.136 6.89108 109.196 8.00973 109.196 8.07965C109.196 8.16954 109.306 8.21948 109.375 8.15955C110.434 7.32056 111.603 6.5415 113.231 6.5415C115.908 6.5415 117.476 8.34932 117.476 11.4156Z" fill="#656565"/>
<path d="M101.914 6.79098L101.824 8.21926C101.814 8.30915 101.704 8.35909 101.645 8.29916C101.295 7.96956 100.007 6.55127 97.8195 6.55127C94.6832 6.55127 92.376 9.25801 92.376 12.9336C92.376 16.6591 94.6633 19.3758 97.8195 19.3758C99.9269 19.3758 101.215 18.0075 101.455 17.7078C101.525 17.6279 101.655 17.6779 101.655 17.7777C101.625 18.1573 101.575 19.1061 101.255 19.9152C100.856 20.9339 99.9569 21.8828 98.1491 21.8828C96.6609 21.8828 95.3424 21.3135 94.0939 20.0949L92.5858 22.1625C93.9541 23.7106 96.1115 24.5795 98.4587 24.5795C102.234 24.5795 104.501 21.9927 104.501 17.7678V6.79098H101.914ZM98.4387 16.759C96.571 16.759 95.2526 15.1409 95.2526 12.9336C95.2526 10.7262 96.571 9.14814 98.4387 9.14814C100.306 9.14814 101.625 10.7163 101.625 12.9336C101.615 15.1509 100.296 16.759 98.4387 16.759Z" fill="#656565"/>
<path d="M86.3429 15.5702C86.3429 17.9373 84.3553 19.5254 81.4388 19.5254C79.1516 19.5254 77.114 18.6365 75.8955 17.368L76.8443 15.1107C77.7632 15.9397 79.2414 17.1283 81.3489 17.1283C82.8171 17.1283 83.6661 16.4791 83.6661 15.6601C83.6661 14.7112 82.4975 14.4615 81.0992 14.1918C79.1116 13.7723 76.4748 13.0932 76.4748 10.3864C76.4748 8.11916 78.3126 6.56104 81.0293 6.56104C83.1168 6.56104 84.9146 7.36007 86.1531 8.39882L84.7348 10.3864C83.5363 9.43757 82.2778 8.96813 81.0293 8.96813C79.7808 8.96813 79.1615 9.48751 79.1615 10.2366C79.1615 11.2853 80.5099 11.555 81.4987 11.7548C83.9857 12.2342 86.3429 12.9833 86.3429 15.5702Z" fill="#656565"/>
<path d="M44.134 6.5415C40.6082 6.5415 38.0713 9.27821 38.0713 13.0337C38.0713 16.7892 40.6082 19.5259 44.134 19.5259C47.6598 19.5259 50.2067 16.7892 50.2067 13.0337C50.2067 9.27821 47.6697 6.5415 44.134 6.5415ZM44.134 16.909C42.2662 16.909 40.9478 15.3209 40.9478 13.0237C40.9478 10.7364 42.2363 9.13837 44.134 9.13837C46.0217 9.13837 47.3202 10.7265 47.3202 13.0237C47.3202 15.3209 46.0017 16.909 44.134 16.909Z" fill="#656565"/>
<path d="M51.2256 13.0337C51.2256 9.32815 53.7626 6.5415 57.1485 6.5415C59.8352 6.5415 61.8029 7.88988 62.7218 10.4268L60.1648 11.3957C59.4657 9.82754 58.5468 9.15835 57.1585 9.15835C55.4206 9.15835 54.1221 10.7964 54.1221 13.0437C54.1221 15.281 55.4106 16.929 57.1585 16.929C58.5568 16.929 59.4657 16.2598 60.1648 14.6917L62.7218 15.6605C61.8029 18.1975 59.8352 19.5458 57.1485 19.5458C53.7626 19.5259 51.2256 16.7392 51.2256 13.0337Z" fill="#656565"/>
<path d="M35.7936 0.987793C35.7436 0.987793 35.6837 0.997781 35.6338 1.02774L33.756 2.02654C33.7161 2.04652 33.6961 2.08647 33.6961 2.12642V8.06926C33.6961 8.16914 33.5763 8.20909 33.5063 8.14916C33.2267 7.90945 32.5775 7.30019 31.6785 6.88069C31.2091 6.66096 30.5199 6.5411 29.8907 6.5411C26.7345 6.5411 24.4473 9.2778 24.4473 13.0333C24.4473 16.7887 26.7345 19.5255 29.8907 19.5255C31.5487 19.5255 32.7972 18.6565 33.5563 17.8774C33.6062 17.8275 33.6362 17.7975 33.6861 17.7476C33.756 17.6777 33.8759 17.7176 33.8759 17.8175L33.9758 19.2758H36.5826V1.0677C36.5826 1.02774 36.5527 0.987793 36.5027 0.987793H35.7936ZM30.5099 16.9086C28.6222 16.9086 27.3238 15.3205 27.3238 13.0233C27.3238 10.7261 28.6522 9.14796 30.5099 9.14796C32.3777 9.14796 33.6961 10.736 33.6961 13.0333C33.6961 15.3205 32.4077 16.9086 30.5099 16.9086Z" fill="#656565"/>
<path d="M89.7388 6.83119L87.931 7.79003C87.891 7.81001 87.8711 7.84996 87.8711 7.88991V19.2762H90.7576V6.86115C90.7576 6.8212 90.7276 6.78125 90.6777 6.78125H89.8986C89.8387 6.79124 89.7888 6.80123 89.7388 6.83119Z" fill="#656565"/>
<path d="M89.3092 4.76341C90.2681 4.76341 91.0471 3.98435 91.0471 3.0255C91.0471 2.06666 90.2681 1.2876 89.3092 1.2876C88.3504 1.2876 87.5713 2.06666 87.5713 3.0255C87.5713 3.98435 88.3504 4.76341 89.3092 4.76341Z" fill="#656565"/>
<path d="M74.8566 6.78125V13.5631C74.8566 18.7069 71.9801 19.5159 69.4132 19.5159C66.8462 19.5159 63.9697 18.6969 63.9697 13.5631V6.78125H66.8462V14.2822C66.8462 15.0113 67.026 16.909 69.4132 16.909C71.8003 16.909 71.9801 15.0213 71.9801 14.2822V6.78125H74.8566Z" fill="#656565"/>
<path d="M119.124 17.9976V18.1773H118.714V19.266H118.514V18.1773H118.105V17.9976H119.124ZM120.552 19.266H120.352V18.2672L119.963 19.0163H119.853L119.463 18.2772V19.266H119.263V17.9976H119.523L119.903 18.7267L120.282 17.9976H120.542L120.552 19.266Z" fill="#656565"/>
<path d="M14.6295 14.3911V19.3351C14.6295 19.5948 14.4198 19.8046 14.1601 19.8046H1.16573C0.906036 19.8046 0.696289 19.5948 0.696289 19.3351V6.35078C0.696289 6.0911 0.906036 5.88135 1.16573 5.88135H6.09978V13.9217C6.09978 14.1813 6.30953 14.3911 6.56922 14.3911H14.6295Z" fill="#656565"/>
<path d="M20.0435 7.41991C20.0435 11.5749 17.6165 14.3815 14.6301 14.3915V9.15782C14.6301 9.008 14.5701 8.85818 14.4603 8.7583L11.7436 6.04157C11.6337 5.93171 11.4939 5.87178 11.344 5.87178H6.11035V0.937723C6.11035 0.678036 6.3201 0.468288 6.57978 0.468288H13.901C17.3768 0.4583 20.0435 3.25493 20.0435 7.41991Z" fill="#656565"/>
</g>
<defs>
<clipPath id="clip0_188_2794">
<rect width="121" height="25" fill="white"/>
</clipPath>
</defs>
</svg>
