<svg width="28" height="28" viewBox="0 0 28 28" fill="none" xmlns="http://www.w3.org/2000/svg">
<g clip-path="url(#clip0_188_3615)">
<path d="M17.7982 26.7935L2.13971 24.0099C0.95809 23.7998 0.170495 22.6717 0.380547 21.4901L3.1641 5.83163C3.37416 4.65001 4.50231 3.86242 5.68392 4.07247L21.3424 6.85603C22.524 7.06608 23.3116 8.19423 23.1015 9.37584L20.318 25.0343C20.1079 26.2159 18.9798 27.0035 17.7982 26.7935Z" fill="#26A6FE"/>
<path d="M22.2634 7.25448C22.3575 7.56936 22.3815 7.9104 22.32 8.25599L19.5763 23.6902C19.3443 24.9957 18.0979 25.8658 16.7925 25.6337L1.35826 22.89C1.01263 22.8286 0.700736 22.6886 0.43765 22.4917C0.665394 23.2532 1.30409 23.8614 2.14008 24.01L17.7985 26.7935C18.9801 27.0036 20.1083 26.216 20.3183 25.0344L23.1019 9.37593C23.2505 8.53994 22.8997 7.73078 22.2634 7.25448Z" fill="#0593FC"/>
<path d="M27.0249 7.57918C25.6109 6.79483 24.631 5.3905 24.383 3.79262C24.3635 3.66694 24.2671 3.56724 24.1419 3.54498L24.1398 3.5446C24.0146 3.52235 23.8897 3.5827 23.828 3.69396C23.0436 5.11036 21.6374 6.09175 20.0372 6.33916C19.9115 6.3586 19.8117 6.45503 19.7894 6.58033C19.7671 6.70563 19.8276 6.83055 19.9389 6.89215C21.3558 7.67572 22.3377 9.08132 22.5859 10.6811C22.6054 10.8068 22.7018 10.9065 22.8271 10.9288L22.8292 10.9292C22.9544 10.9514 23.0793 10.8911 23.141 10.7798C23.9244 9.3653 25.3282 8.38479 26.9258 8.13604C27.0515 8.11648 27.1511 8.02006 27.1733 7.8949L27.174 7.89079C27.1963 7.76567 27.136 7.64089 27.0249 7.57918Z" fill="#FFD15B"/>
<path d="M27.025 7.57914C26.8362 7.47439 26.655 7.35854 26.4824 7.23267C26.4422 7.26533 26.3932 7.28772 26.3396 7.29608C24.7419 7.54483 23.3382 8.52534 22.5547 9.93986C22.5288 9.98671 22.4916 10.0246 22.4479 10.051C22.5065 10.2569 22.5529 10.4673 22.5861 10.6811C22.6056 10.8068 22.702 10.9065 22.8272 10.9288L22.8294 10.9292C22.9546 10.9514 23.0795 10.8911 23.1411 10.7798C23.9246 9.3653 25.3283 8.38479 26.926 8.13604C27.0516 8.11648 27.1512 8.02006 27.1735 7.8949L27.1742 7.89079C27.1965 7.76563 27.1362 7.64084 27.025 7.57914Z" fill="#FFC344"/>
<path d="M11.5177 9.46319C11.4156 8.91605 10.9779 8.46837 10.4052 8.36655L10.4039 8.36631C9.8265 8.26425 9.26894 8.53554 8.98438 9.01009L2.91252 19.1433C2.59315 19.6763 2.76631 20.3672 3.29928 20.6866C3.8323 21.0057 4.5232 20.8328 4.84256 20.2998L5.87074 18.5839C5.92225 18.498 6.02147 18.4528 6.12014 18.4703L10.9141 19.3225C11.013 19.3401 11.0907 19.4171 11.1092 19.5158L11.4758 21.4757C11.5913 22.0931 12.1878 22.4937 12.8006 22.3724C13.4094 22.2518 13.7971 21.6478 13.6829 21.0378L11.5177 9.46319ZM7.37386 16.0754L9.40267 12.6895C9.51688 12.4989 9.80626 12.5508 9.84712 12.7692L10.5721 16.6446C10.6031 16.8105 10.4587 16.9563 10.2925 16.9268L7.53872 16.4372C7.37221 16.4076 7.28693 16.2205 7.37386 16.0754Z" fill="white"/>
<path d="M18.5451 10.0558C17.9334 9.94704 17.3493 10.3548 17.2406 10.9665L15.3226 21.7562C15.2138 22.3679 15.6216 22.952 16.2333 23.0607C16.845 23.1695 17.4291 22.7617 17.5378 22.15L19.4559 11.3603C19.5646 10.7486 19.1569 10.1645 18.5451 10.0558Z" fill="white"/>
</g>
<defs>
<clipPath id="clip0_188_3615">
<rect width="24" height="24" fill="white" transform="translate(4.20068) rotate(10.08)"/>
</clipPath>
</defs>
</svg>
