<svg width="32" height="32" viewBox="0 0 32 32" fill="none" xmlns="http://www.w3.org/2000/svg">
<rect width="32" height="32" rx="10" fill="white"/>
<rect width="32" height="32" rx="10" fill="url(#paint0_linear_188_6074)"/>
<path d="M20.3765 10.0234H19.2941C19.2941 11.0587 18.4471 11.9058 17.4118 11.9058H14.5883C13.553 11.9058 12.7059 11.0587 12.7059 10.0234H11.6236C11.0118 10.0234 10.4941 10.5411 10.4941 11.1528V22.0705C10.4941 22.6823 11.0118 23.1999 11.6236 23.1999H20.3765C20.9883 23.1999 21.5059 22.6823 21.5059 22.0705V11.1528C21.5059 10.5411 20.9883 10.0234 20.3765 10.0234ZM14.0236 12.9881H17.9765C18.1647 12.9881 18.353 13.1293 18.353 13.3646C18.353 13.5528 18.2118 13.7411 17.9765 13.7411H14.0236C13.8353 13.7411 13.6471 13.5999 13.6471 13.3646C13.6941 13.1293 13.8353 12.9881 14.0236 12.9881ZM14.0236 14.8705H17.9765C18.1647 14.8705 18.353 15.0117 18.353 15.247C18.353 15.4352 18.2118 15.6234 17.9765 15.6234H14.0236C13.8353 15.6234 13.6471 15.4823 13.6471 15.247C13.6941 15.0587 13.8353 14.8705 14.0236 14.8705ZM15.953 21.7411C14.6353 21.7411 13.553 20.6587 13.553 19.3411C13.553 18.0234 14.6353 16.9411 15.953 16.9411C17.2706 16.9411 18.353 18.0234 18.353 19.3411C18.353 20.7058 17.2706 21.7411 15.953 21.7411Z" fill="#7B7A76"/>
<path d="M14.5886 11.2001H17.4121C18.0709 11.2001 18.5886 10.6825 18.5886 10.0236C18.5886 9.36482 18.0709 8.84717 17.4121 8.84717H14.5886C13.9298 8.84717 13.4121 9.36482 13.4121 10.0236C13.4121 10.6825 13.9298 11.2001 14.5886 11.2001Z" fill="#7B7A76"/>
<path d="M16.4703 18.5414L15.6233 19.3884L15.4351 19.2002C15.2939 19.059 15.0586 19.059 14.9174 19.2002C14.7762 19.3414 14.7762 19.5767 14.9174 19.7178L15.388 20.1414C15.4351 20.1884 15.5292 20.2355 15.6233 20.2355C15.7174 20.2355 15.8115 20.1884 15.8586 20.1414L16.9409 19.012C17.0821 18.8708 17.0821 18.6355 16.9409 18.4943C16.7998 18.4002 16.6115 18.4002 16.4703 18.5414Z" fill="#7B7A76"/>
<defs>
<linearGradient id="paint0_linear_188_6074" x1="4.72727" y1="-2.41861" x2="41.0751" y2="22.3212" gradientUnits="userSpaceOnUse">
<stop stop-color="#F8F8F8"/>
<stop offset="0.2128" stop-color="#ECECEC"/>
</linearGradient>
</defs>
</svg>
