<svg width="193" height="51" viewBox="0 0 193 51" fill="none" xmlns="http://www.w3.org/2000/svg">
<rect x="0.5" y="0.5" width="192" height="50" rx="25" fill="#EEEEEC"/>
<rect x="0.5" y="0.5" width="192" height="50" rx="25" stroke="#EDEDED"/>
<g filter="url(#filter0_ii_157_11237)">
<path d="M4 25C4 13.402 13.402 4 25 4H132C143.598 4 153 13.402 153 25V26C153 37.598 143.598 47 132 47H25C13.402 47 4 37.598 4 26V25Z" fill="white"/>
<path d="M22 31H18.4091V19.3636H22.1591C23.2879 19.3636 24.2538 19.5966 25.0568 20.0625C25.8598 20.5246 26.4754 21.1894 26.9034 22.0568C27.3314 22.9205 27.5455 23.9545 27.5455 25.1591C27.5455 26.3712 27.3295 27.4148 26.8977 28.2898C26.4659 29.161 25.8371 29.8314 25.0114 30.3011C24.1856 30.767 23.1818 31 22 31ZM19.8182 29.75H21.9091C22.8712 29.75 23.6686 29.5644 24.3011 29.1932C24.9337 28.822 25.4053 28.2936 25.7159 27.608C26.0265 26.9223 26.1818 26.1061 26.1818 25.1591C26.1818 24.2197 26.0284 23.411 25.7216 22.733C25.4148 22.0511 24.9564 21.5284 24.3466 21.1648C23.7367 20.7973 22.9773 20.6136 22.0682 20.6136H19.8182V29.75ZM32.6327 31.1818C31.8448 31.1818 31.1536 30.9943 30.5589 30.6193C29.968 30.2443 29.5058 29.7197 29.1725 29.0455C28.843 28.3712 28.6782 27.5833 28.6782 26.6818C28.6782 25.7727 28.843 24.9792 29.1725 24.3011C29.5058 23.6231 29.968 23.0966 30.5589 22.7216C31.1536 22.3466 31.8448 22.1591 32.6327 22.1591C33.4206 22.1591 34.11 22.3466 34.7009 22.7216C35.2956 23.0966 35.7577 23.6231 36.0873 24.3011C36.4206 24.9792 36.5873 25.7727 36.5873 26.6818C36.5873 27.5833 36.4206 28.3712 36.0873 29.0455C35.7577 29.7197 35.2956 30.2443 34.7009 30.6193C34.11 30.9943 33.4206 31.1818 32.6327 31.1818ZM32.6327 29.9773C33.2312 29.9773 33.7236 29.8239 34.11 29.517C34.4964 29.2102 34.7823 28.8068 34.968 28.3068C35.1536 27.8068 35.2464 27.2652 35.2464 26.6818C35.2464 26.0985 35.1536 25.5549 34.968 25.0511C34.7823 24.5473 34.4964 24.1402 34.11 23.8295C33.7236 23.5189 33.2312 23.3636 32.6327 23.3636C32.0342 23.3636 31.5418 23.5189 31.1555 23.8295C30.7691 24.1402 30.4831 24.5473 30.2975 25.0511C30.1119 25.5549 30.0191 26.0985 30.0191 26.6818C30.0191 27.2652 30.1119 27.8068 30.2975 28.3068C30.4831 28.8068 30.7691 29.2102 31.1555 29.517C31.5418 29.8239 32.0342 29.9773 32.6327 29.9773ZM39.6745 31L37.0155 22.2727H38.4245L40.3109 28.9545H40.4018L42.2655 22.2727H43.6973L45.5382 28.9318H45.6291L47.5155 22.2727H48.9245L46.2655 31H44.9473L43.0382 24.2955H42.9018L40.9927 31H39.6745ZM51.3982 25.75V31H50.0573V22.2727H51.3527V23.6364H51.4664C51.6709 23.1932 51.9815 22.8371 52.3982 22.5682C52.8148 22.2955 53.3527 22.1591 54.0118 22.1591C54.6027 22.1591 55.1198 22.2803 55.563 22.5227C56.0061 22.7614 56.3508 23.125 56.597 23.6136C56.8433 24.0985 56.9664 24.7121 56.9664 25.4545V31H55.6255V25.5455C55.6255 24.8598 55.4474 24.3258 55.0914 23.9432C54.7353 23.5568 54.2467 23.3636 53.6255 23.3636C53.1974 23.3636 52.8148 23.4564 52.4777 23.642C52.1444 23.8277 51.8811 24.0985 51.688 24.4545C51.4948 24.8106 51.3982 25.2424 51.3982 25.75ZM60.1176 19.3636V31H58.7766V19.3636H60.1176ZM65.479 31.1818C64.6911 31.1818 63.9998 30.9943 63.4051 30.6193C62.8142 30.2443 62.3521 29.7197 62.0187 29.0455C61.6892 28.3712 61.5244 27.5833 61.5244 26.6818C61.5244 25.7727 61.6892 24.9792 62.0187 24.3011C62.3521 23.6231 62.8142 23.0966 63.4051 22.7216C63.9998 22.3466 64.6911 22.1591 65.479 22.1591C66.2669 22.1591 66.9562 22.3466 67.5472 22.7216C68.1419 23.0966 68.604 23.6231 68.9335 24.3011C69.2669 24.9792 69.4335 25.7727 69.4335 26.6818C69.4335 27.5833 69.2669 28.3712 68.9335 29.0455C68.604 29.7197 68.1419 30.2443 67.5472 30.6193C66.9562 30.9943 66.2669 31.1818 65.479 31.1818ZM65.479 29.9773C66.0775 29.9773 66.5699 29.8239 66.9562 29.517C67.3426 29.2102 67.6286 28.8068 67.8142 28.3068C67.9998 27.8068 68.0926 27.2652 68.0926 26.6818C68.0926 26.0985 67.9998 25.5549 67.8142 25.0511C67.6286 24.5473 67.3426 24.1402 66.9562 23.8295C66.5699 23.5189 66.0775 23.3636 65.479 23.3636C64.8805 23.3636 64.3881 23.5189 64.0017 23.8295C63.6153 24.1402 63.3294 24.5473 63.1437 25.0511C62.9581 25.5549 62.8653 26.0985 62.8653 26.6818C62.8653 27.2652 62.9581 27.8068 63.1437 28.3068C63.3294 28.8068 63.6153 29.2102 64.0017 29.517C64.3881 29.8239 64.8805 29.9773 65.479 29.9773ZM73.4086 31.2045C72.8555 31.2045 72.3537 31.1004 71.9029 30.892C71.4521 30.6799 71.0942 30.375 70.829 29.9773C70.5639 29.5758 70.4313 29.0909 70.4313 28.5227C70.4313 28.0227 70.5298 27.6174 70.7268 27.3068C70.9237 26.9924 71.187 26.7462 71.5165 26.5682C71.8461 26.3902 72.2097 26.2576 72.6074 26.1705C73.009 26.0795 73.4124 26.0076 73.8177 25.9545C74.348 25.8864 74.7779 25.8352 75.1074 25.8011C75.4408 25.7633 75.6832 25.7008 75.8347 25.6136C75.99 25.5265 76.0677 25.375 76.0677 25.1591V25.1136C76.0677 24.553 75.9143 24.1174 75.6074 23.8068C75.3044 23.4962 74.8442 23.3409 74.2268 23.3409C73.5866 23.3409 73.0847 23.4811 72.7211 23.7614C72.3574 24.0417 72.1018 24.3409 71.954 24.6591L70.6813 24.2045C70.9086 23.6742 71.2116 23.2614 71.5904 22.9659C71.973 22.6667 72.3896 22.4583 72.8404 22.3409C73.2949 22.2197 73.7419 22.1591 74.1813 22.1591C74.4616 22.1591 74.7836 22.1932 75.1472 22.2614C75.5146 22.3258 75.8688 22.4602 76.2097 22.6648C76.5544 22.8693 76.8404 23.178 77.0677 23.5909C77.2949 24.0038 77.4086 24.5568 77.4086 25.25V31H76.0677V29.8182H75.9995C75.9086 30.0076 75.7571 30.2102 75.5449 30.4261C75.3328 30.642 75.0506 30.8258 74.6984 30.9773C74.3461 31.1288 73.9162 31.2045 73.4086 31.2045ZM73.6131 30C74.1434 30 74.5904 29.8958 74.954 29.6875C75.3215 29.4792 75.598 29.2102 75.7836 28.8807C75.973 28.5511 76.0677 28.2045 76.0677 27.8409V26.6136C76.0109 26.6818 75.8859 26.7443 75.6927 26.8011C75.5033 26.8542 75.2836 26.9015 75.0336 26.9432C74.7874 26.9811 74.5468 27.0152 74.312 27.0455C74.0809 27.072 73.8934 27.0947 73.7495 27.1136C73.401 27.1591 73.0752 27.233 72.7722 27.3352C72.473 27.4337 72.2305 27.5833 72.0449 27.7841C71.8631 27.9811 71.7722 28.25 71.7722 28.5909C71.7722 29.0568 71.9446 29.4091 72.2893 29.6477C72.6377 29.8826 73.079 30 73.6131 30ZM82.5115 31.1818C81.7842 31.1818 81.1422 30.9981 80.5853 30.6307C80.0285 30.2595 79.5929 29.7367 79.2785 29.0625C78.9641 28.3845 78.8069 27.5833 78.8069 26.6591C78.8069 25.7424 78.9641 24.947 79.2785 24.2727C79.5929 23.5985 80.0304 23.0777 80.591 22.7102C81.1516 22.3428 81.7994 22.1591 82.5342 22.1591C83.1024 22.1591 83.5513 22.2538 83.8808 22.4432C84.2141 22.6288 84.4679 22.8409 84.6422 23.0795C84.8202 23.3144 84.9584 23.5076 85.0569 23.6591H85.1706V19.3636H86.5115V31H85.216V29.6591H85.0569C84.9584 29.8182 84.8183 30.0189 84.6365 30.2614C84.4547 30.5 84.1952 30.714 83.8581 30.9034C83.5209 31.089 83.0721 31.1818 82.5115 31.1818ZM82.6933 29.9773C83.2312 29.9773 83.6857 29.8371 84.0569 29.5568C84.4281 29.2727 84.7103 28.8807 84.9035 28.3807C85.0967 27.8769 85.1933 27.2955 85.1933 26.6364C85.1933 25.9848 85.0986 25.4148 84.9092 24.9261C84.7198 24.4337 84.4395 24.0511 84.0683 23.7784C83.6971 23.5019 83.2388 23.3636 82.6933 23.3636C82.1251 23.3636 81.6516 23.5095 81.2728 23.8011C80.8978 24.089 80.6156 24.4811 80.4263 24.9773C80.2406 25.4697 80.1478 26.0227 80.1478 26.6364C80.1478 27.2576 80.2425 27.822 80.4319 28.3295C80.6251 28.8333 80.9092 29.2348 81.2842 29.5341C81.663 29.8295 82.1327 29.9773 82.6933 29.9773ZM92.5553 31V19.3636H96.4872C97.3962 19.3636 98.1425 19.5189 98.7258 19.8295C99.3091 20.1364 99.7409 20.5587 100.021 21.0966C100.302 21.6345 100.442 22.2462 100.442 22.9318C100.442 23.6174 100.302 24.2254 100.021 24.7557C99.7409 25.286 99.311 25.7027 98.7315 26.0057C98.1519 26.3049 97.4114 26.4545 96.5099 26.4545H93.3281V25.1818H96.4644C97.0856 25.1818 97.5856 25.0909 97.9644 24.9091C98.347 24.7273 98.6235 24.4697 98.794 24.1364C98.9682 23.7992 99.0553 23.3977 99.0553 22.9318C99.0553 22.4659 98.9682 22.0587 98.794 21.7102C98.6197 21.3617 98.3413 21.0928 97.9587 20.9034C97.5762 20.7102 97.0705 20.6136 96.4417 20.6136H93.9644V31H92.5553ZM98.0326 25.7727L100.896 31H99.2599L96.4417 25.7727H98.0326ZM105.533 31.1818C104.692 31.1818 103.967 30.9962 103.357 30.625C102.751 30.25 102.283 29.7273 101.954 29.0568C101.628 28.3826 101.465 27.5985 101.465 26.7045C101.465 25.8106 101.628 25.0227 101.954 24.3409C102.283 23.6553 102.742 23.1212 103.329 22.7386C103.92 22.3523 104.609 22.1591 105.397 22.1591C105.851 22.1591 106.3 22.2348 106.743 22.3864C107.187 22.5379 107.59 22.7841 107.954 23.125C108.317 23.4621 108.607 23.9091 108.823 24.4659C109.039 25.0227 109.147 25.7083 109.147 26.5227V27.0909H102.42V25.9318H107.783C107.783 25.4394 107.685 25 107.488 24.6136C107.295 24.2273 107.018 23.9223 106.658 23.6989C106.302 23.4754 105.882 23.3636 105.397 23.3636C104.863 23.3636 104.401 23.4962 104.011 23.7614C103.624 24.0227 103.327 24.3636 103.118 24.7841C102.91 25.2045 102.806 25.6553 102.806 26.1364V26.9091C102.806 27.5682 102.92 28.1269 103.147 28.5852C103.378 29.0398 103.698 29.3864 104.107 29.625C104.516 29.8598 104.992 29.9773 105.533 29.9773C105.886 29.9773 106.204 29.928 106.488 29.8295C106.776 29.7273 107.024 29.5758 107.232 29.375C107.44 29.1705 107.601 28.9167 107.715 28.6136L109.011 28.9773C108.874 29.4167 108.645 29.803 108.323 30.1364C108.001 30.4659 107.603 30.7235 107.13 30.9091C106.656 31.0909 106.124 31.1818 105.533 31.1818ZM110.547 34.2727V22.2727H111.842V23.6591H112.001C112.1 23.5076 112.236 23.3144 112.41 23.0795C112.588 22.8409 112.842 22.6288 113.172 22.4432C113.505 22.2538 113.956 22.1591 114.524 22.1591C115.259 22.1591 115.906 22.3428 116.467 22.7102C117.028 23.0777 117.465 23.5985 117.78 24.2727C118.094 24.947 118.251 25.7424 118.251 26.6591C118.251 27.5833 118.094 28.3845 117.78 29.0625C117.465 29.7367 117.03 30.2595 116.473 30.6307C115.916 30.9981 115.274 31.1818 114.547 31.1818C113.986 31.1818 113.537 31.089 113.2 30.9034C112.863 30.714 112.603 30.5 112.422 30.2614C112.24 30.0189 112.1 29.8182 112.001 29.6591H111.888V34.2727H110.547ZM111.865 26.6364C111.865 27.2955 111.961 27.8769 112.155 28.3807C112.348 28.8807 112.63 29.2727 113.001 29.5568C113.372 29.8371 113.827 29.9773 114.365 29.9773C114.925 29.9773 115.393 29.8295 115.768 29.5341C116.147 29.2348 116.431 28.8333 116.621 28.3295C116.814 27.822 116.91 27.2576 116.91 26.6364C116.91 26.0227 116.816 25.4697 116.626 24.9773C116.441 24.4811 116.158 24.089 115.78 23.8011C115.405 23.5095 114.933 23.3636 114.365 23.3636C113.819 23.3636 113.361 23.5019 112.99 23.7784C112.619 24.0511 112.338 24.4337 112.149 24.9261C111.96 25.4148 111.865 25.9848 111.865 26.6364ZM123.202 31.1818C122.414 31.1818 121.723 30.9943 121.128 30.6193C120.537 30.2443 120.075 29.7197 119.742 29.0455C119.412 28.3712 119.248 27.5833 119.248 26.6818C119.248 25.7727 119.412 24.9792 119.742 24.3011C120.075 23.6231 120.537 23.0966 121.128 22.7216C121.723 22.3466 122.414 22.1591 123.202 22.1591C123.99 22.1591 124.679 22.3466 125.27 22.7216C125.865 23.0966 126.327 23.6231 126.657 24.3011C126.99 24.9792 127.157 25.7727 127.157 26.6818C127.157 27.5833 126.99 28.3712 126.657 29.0455C126.327 29.7197 125.865 30.2443 125.27 30.6193C124.679 30.9943 123.99 31.1818 123.202 31.1818ZM123.202 29.9773C123.801 29.9773 124.293 29.8239 124.679 29.517C125.066 29.2102 125.352 28.8068 125.537 28.3068C125.723 27.8068 125.816 27.2652 125.816 26.6818C125.816 26.0985 125.723 25.5549 125.537 25.0511C125.352 24.5473 125.066 24.1402 124.679 23.8295C124.293 23.5189 123.801 23.3636 123.202 23.3636C122.604 23.3636 122.111 23.5189 121.725 23.8295C121.338 24.1402 121.052 24.5473 120.867 25.0511C120.681 25.5549 120.588 26.0985 120.588 26.6818C120.588 27.2652 120.681 27.8068 120.867 28.3068C121.052 28.8068 121.338 29.2102 121.725 29.517C122.111 29.8239 122.604 29.9773 123.202 29.9773ZM128.564 31V22.2727H129.859V23.5909H129.95C130.109 23.1591 130.397 22.8087 130.814 22.5398C131.23 22.2708 131.7 22.1364 132.223 22.1364C132.321 22.1364 132.444 22.1383 132.592 22.142C132.74 22.1458 132.851 22.1515 132.927 22.1591V23.5227C132.882 23.5114 132.778 23.4943 132.615 23.4716C132.456 23.4451 132.287 23.4318 132.109 23.4318C131.685 23.4318 131.306 23.5208 130.973 23.6989C130.643 23.8731 130.382 24.1155 130.189 24.4261C129.999 24.733 129.904 25.0833 129.904 25.4773V31H128.564ZM138.219 22.2727V23.4091H133.696V22.2727H138.219ZM135.014 20.1818H136.355V28.5C136.355 28.8788 136.41 29.1629 136.52 29.3523C136.634 29.5379 136.778 29.6629 136.952 29.7273C137.13 29.7879 137.317 29.8182 137.514 29.8182C137.662 29.8182 137.783 29.8106 137.878 29.7955C137.973 29.7765 138.049 29.7614 138.105 29.75L138.378 30.9545C138.287 30.9886 138.16 31.0227 137.997 31.0568C137.835 31.0947 137.628 31.1136 137.378 31.1136C136.999 31.1136 136.628 31.0322 136.264 30.8693C135.905 30.7064 135.605 30.4583 135.367 30.125C135.132 29.7917 135.014 29.3712 135.014 28.8636V20.1818Z" fill="#2D2D39"/>
</g>
<path d="M165 25.5H176" stroke="black" stroke-width="1.4" stroke-linecap="round" stroke-linejoin="round"/>
<path d="M173 21.5L177 25.5L173 29.5" stroke="black" stroke-width="1.4" stroke-linecap="round" stroke-linejoin="round"/>
<defs>
<filter id="filter0_ii_157_11237" x="4" y="4" width="150" height="44" filterUnits="userSpaceOnUse" color-interpolation-filters="sRGB">
<feFlood flood-opacity="0" result="BackgroundImageFix"/>
<feBlend mode="normal" in="SourceGraphic" in2="BackgroundImageFix" result="shape"/>
<feColorMatrix in="SourceAlpha" type="matrix" values="0 0 0 0 0 0 0 0 0 0 0 0 0 0 0 0 0 0 127 0" result="hardAlpha"/>
<feOffset dx="-1" dy="-1"/>
<feComposite in2="hardAlpha" operator="arithmetic" k2="-1" k3="1"/>
<feColorMatrix type="matrix" values="0 0 0 0 0.605488 0 0 0 0 0.605488 0 0 0 0 0.605488 0 0 0 0.1 0"/>
<feBlend mode="normal" in2="shape" result="effect1_innerShadow_157_11237"/>
<feColorMatrix in="SourceAlpha" type="matrix" values="0 0 0 0 0 0 0 0 0 0 0 0 0 0 0 0 0 0 127 0" result="hardAlpha"/>
<feOffset dx="1" dy="1"/>
<feGaussianBlur stdDeviation="0.5"/>
<feComposite in2="hardAlpha" operator="arithmetic" k2="-1" k3="1"/>
<feColorMatrix type="matrix" values="0 0 0 0 1 0 0 0 0 1 0 0 0 0 1 0 0 0 1 0"/>
<feBlend mode="normal" in2="effect1_innerShadow_157_11237" result="effect2_innerShadow_157_11237"/>
</filter>
</defs>
</svg>
