<svg width="28" height="28" viewBox="0 0 28 28" fill="none" xmlns="http://www.w3.org/2000/svg">
<path d="M26.3876 11.3913C26.9265 10.8234 27.2801 10.0551 27.2801 9.20321V9.10299C27.2801 7.44942 25.933 6.1132 24.2659 6.1132H24.1817C22.464 6.1132 21.0832 7.48283 21.0832 9.16981C21.0832 10.0216 21.4368 10.7733 21.9757 11.3412L22.9355 12.2932C23.6259 12.978 23.6259 14.0637 22.9355 14.7318L21.9757 15.6839C21.4031 16.2518 21.0832 17.0034 21.0832 17.8552V19.1915C21.0832 20.1435 20.3085 20.9118 19.3487 20.9118H18.0015C17.1427 20.9118 16.3849 21.2626 15.8124 21.7971L14.8525 22.7491C14.1621 23.434 13.0675 23.434 12.3939 22.7491L11.4341 21.7971C10.8615 21.2292 10.1038 20.9118 9.24494 20.9118H7.89777C6.93791 20.9118 6.16329 20.1435 6.16329 19.1915V17.8552C6.16329 17.0034 5.80966 16.2518 5.27079 15.6839L4.31093 14.7318C3.62051 14.047 3.62051 12.9613 4.31093 12.2932L5.27079 11.3412C5.84334 10.7733 6.16329 10.0216 6.16329 9.16981V7.83359C6.16329 6.88153 6.93791 6.1132 7.89777 6.1132H9.24494C10.9626 6.1132 12.3266 4.74358 12.3266 3.0566C12.3266 1.36963 10.9457 0 9.24494 0C7.5273 0 6.16329 1.36963 6.16329 3.0566V4.39282C6.16329 5.34488 5.38867 6.1132 4.42881 6.1132H3.08165C1.36401 6.1132 0 7.48283 0 9.16981C0 10.0216 0.353632 10.7733 0.892499 11.3412L1.85235 12.2932C2.54278 12.978 2.54278 14.0637 1.85235 14.7318L0.892499 15.6839C0.370472 16.2518 0.01684 17.0201 0.01684 17.8552C0.01684 19.5589 1.39769 20.9118 3.09848 20.9118H4.44565C5.40551 20.9118 6.18013 21.6802 6.18013 22.6322V23.9684C6.18013 25.6721 7.56098 27.025 9.26177 27.025C10.1206 27.025 10.8784 26.6743 11.4509 26.1398L12.4108 25.1877C13.1012 24.5029 14.1958 24.5029 14.8694 25.1877L15.8292 26.1398C16.3681 26.7077 17.1595 27.0417 18.0015 27.0417C19.7192 27.0417 21.0832 25.6721 21.0832 23.9851V22.6489C21.0832 21.6969 21.8578 20.9285 22.8176 20.9285H24.1817C25.8993 20.9285 27.2633 19.5589 27.2633 17.8719C27.2633 17.0201 26.9097 16.2685 26.3708 15.7006L25.4109 14.7485C24.7205 14.0637 24.7205 12.978 25.4109 12.3099L26.3708 11.3746L26.3876 11.3913Z" fill="#171717"/>
</svg>
