<svg width="32" height="32" viewBox="0 0 32 32" fill="none" xmlns="http://www.w3.org/2000/svg">
<rect width="32" height="32" rx="10" fill="white"/>
<rect width="32" height="32" rx="10" fill="url(#paint0_linear_188_6062)"/>
<path d="M16 17C16.5523 17 17 16.5523 17 16C17 15.4477 16.5523 15 16 15C15.4477 15 15 15.4477 15 16C15 16.5523 15.4477 17 16 17Z" fill="#7B7A76"/>
<path d="M16 9C14.6155 9 13.2622 9.41054 12.111 10.1797C10.9599 10.9489 10.0627 12.0421 9.53285 13.3212C9.00303 14.6003 8.86441 16.0078 9.13451 17.3656C9.4046 18.7235 10.0713 19.9708 11.0503 20.9497C12.0292 21.9287 13.2765 22.5954 14.6344 22.8655C15.9922 23.1356 17.3997 22.997 18.6788 22.4672C19.9579 21.9373 21.0511 21.0401 21.8203 19.889C22.5895 18.7378 23 17.3845 23 16C23 14.1435 22.2625 12.363 20.9497 11.0503C19.637 9.7375 17.8565 9 16 9ZM18.9595 13.6968L17.4595 17.1968C17.4091 17.3149 17.3151 17.409 17.197 17.4595L13.697 18.9594C13.6052 18.9988 13.5037 19.0097 13.4056 18.9908C13.3075 18.972 13.2173 18.9241 13.1466 18.8535C13.076 18.7829 13.0281 18.6927 13.0092 18.5946C12.9903 18.4965 13.0012 18.395 13.0405 18.3031L14.5405 14.8032C14.5909 14.6851 14.685 14.591 14.803 14.5405L18.303 13.0405C18.3948 13.0011 18.4963 12.9902 18.5945 13.009C18.6926 13.0279 18.7828 13.0757 18.8534 13.1464C18.9241 13.217 18.972 13.3072 18.9909 13.4053C19.0098 13.5034 18.9989 13.6049 18.9595 13.6968Z" fill="#7B7A76"/>
<defs>
<linearGradient id="paint0_linear_188_6062" x1="4.72727" y1="-2.41861" x2="41.0751" y2="22.3212" gradientUnits="userSpaceOnUse">
<stop stop-color="#F8F8F8"/>
<stop offset="0.2128" stop-color="#ECECEC"/>
</linearGradient>
</defs>
</svg>
