<svg width="272" height="22" viewBox="0 0 272 22" fill="none" xmlns="http://www.w3.org/2000/svg">
<g clip-path="url(#clip0_1_2252)">
<mask id="mask0_1_2252" style="mask-type:alpha" maskUnits="userSpaceOnUse" x="-122" y="-9" width="1861" height="32">
<rect x="-121.327" y="-8.91479" width="1859.45" height="31.0427" fill="#D9D9D9"/>
</mask>
<g mask="url(#mask0_1_2252)">
<line x1="-24.6479" y1="-22.5293" x2="0.186186" y2="36.4518" stroke="#E2E1DD" stroke-width="0.93128"/>
<line x1="-18.4394" y1="-22.5293" x2="6.39471" y2="36.4518" stroke="#E2E1DD" stroke-width="0.93128"/>
<line x1="-12.2309" y1="-22.5293" x2="12.6032" y2="36.4518" stroke="#E2E1DD" stroke-width="0.93128"/>
<line x1="-6.02233" y1="-22.5293" x2="18.8118" y2="36.4518" stroke="#E2E1DD" stroke-width="0.93128"/>
<line x1="0.186169" y1="-22.5293" x2="25.0203" y2="36.4518" stroke="#E2E1DD" stroke-width="0.93128"/>
<line x1="6.39473" y1="-22.5293" x2="31.2288" y2="36.4518" stroke="#E2E1DD" stroke-width="0.93128"/>
<line x1="12.6033" y1="-22.5293" x2="37.4374" y2="36.4518" stroke="#E2E1DD" stroke-width="0.93128"/>
<line x1="18.8118" y1="-22.5293" x2="43.6459" y2="36.4518" stroke="#E2E1DD" stroke-width="0.93128"/>
<line x1="25.0203" y1="-22.5293" x2="49.8544" y2="36.4518" stroke="#E2E1DD" stroke-width="0.93128"/>
<line x1="31.2288" y1="-22.5293" x2="56.063" y2="36.4518" stroke="#E2E1DD" stroke-width="0.93128"/>
<line x1="37.4374" y1="-22.5293" x2="62.2715" y2="36.4518" stroke="#E2E1DD" stroke-width="0.93128"/>
<line x1="43.6459" y1="-22.5293" x2="68.48" y2="36.4518" stroke="#E2E1DD" stroke-width="0.93128"/>
<line x1="49.8544" y1="-22.5293" x2="74.6886" y2="36.4518" stroke="#E2E1DD" stroke-width="0.93128"/>
<line x1="56.063" y1="-22.5293" x2="80.8971" y2="36.4518" stroke="#E2E1DD" stroke-width="0.93128"/>
<line x1="62.2715" y1="-22.5293" x2="87.1056" y2="36.4518" stroke="#E2E1DD" stroke-width="0.93128"/>
<line x1="68.48" y1="-22.5293" x2="93.3141" y2="36.4518" stroke="#E2E1DD" stroke-width="0.93128"/>
<line x1="74.6885" y1="-22.5293" x2="99.5227" y2="36.4518" stroke="#E2E1DD" stroke-width="0.93128"/>
<line x1="80.8971" y1="-22.5293" x2="105.731" y2="36.4518" stroke="#E2E1DD" stroke-width="0.93128"/>
<line x1="87.1056" y1="-22.5293" x2="111.94" y2="36.4518" stroke="#E2E1DD" stroke-width="0.93128"/>
<line x1="93.3142" y1="-22.5293" x2="118.148" y2="36.4518" stroke="#E2E1DD" stroke-width="0.93128"/>
<line x1="99.5227" y1="-22.5293" x2="124.357" y2="36.4518" stroke="#E2E1DD" stroke-width="0.93128"/>
<line x1="105.731" y1="-22.5293" x2="130.565" y2="36.4518" stroke="#E2E1DD" stroke-width="0.93128"/>
<line x1="111.94" y1="-22.5293" x2="136.774" y2="36.4518" stroke="#E2E1DD" stroke-width="0.93128"/>
<line x1="118.148" y1="-22.5293" x2="142.982" y2="36.4518" stroke="#E2E1DD" stroke-width="0.93128"/>
<line x1="124.357" y1="-22.5293" x2="149.191" y2="36.4518" stroke="#E2E1DD" stroke-width="0.93128"/>
<line x1="130.565" y1="-22.5293" x2="155.399" y2="36.4518" stroke="#E2E1DD" stroke-width="0.93128"/>
<line x1="136.774" y1="-22.5293" x2="161.608" y2="36.4518" stroke="#E2E1DD" stroke-width="0.93128"/>
<line x1="142.982" y1="-22.5293" x2="167.816" y2="36.4518" stroke="#E2E1DD" stroke-width="0.93128"/>
<line x1="149.191" y1="-22.5293" x2="174.025" y2="36.4518" stroke="#E2E1DD" stroke-width="0.93128"/>
<line x1="155.399" y1="-22.5293" x2="180.234" y2="36.4518" stroke="#E2E1DD" stroke-width="0.93128"/>
<line x1="161.608" y1="-22.5293" x2="186.442" y2="36.4518" stroke="#E2E1DD" stroke-width="0.93128"/>
<line x1="167.816" y1="-22.5293" x2="192.651" y2="36.4518" stroke="#E2E1DD" stroke-width="0.93128"/>
<line x1="174.025" y1="-22.5293" x2="198.859" y2="36.4518" stroke="#E2E1DD" stroke-width="0.93128"/>
<line x1="180.234" y1="-22.5293" x2="205.068" y2="36.4518" stroke="#E2E1DD" stroke-width="0.93128"/>
<line x1="186.442" y1="-22.5293" x2="211.276" y2="36.4518" stroke="#E2E1DD" stroke-width="0.93128"/>
<line x1="192.651" y1="-22.5293" x2="217.485" y2="36.4518" stroke="#E2E1DD" stroke-width="0.93128"/>
<line x1="198.859" y1="-22.5293" x2="223.693" y2="36.4518" stroke="#E2E1DD" stroke-width="0.93128"/>
<line x1="205.068" y1="-22.5293" x2="229.902" y2="36.4518" stroke="#E2E1DD" stroke-width="0.93128"/>
<line x1="211.276" y1="-22.5293" x2="236.11" y2="36.4518" stroke="#E2E1DD" stroke-width="0.93128"/>
<line x1="217.485" y1="-22.5293" x2="242.319" y2="36.4518" stroke="#E2E1DD" stroke-width="0.93128"/>
<line x1="223.693" y1="-22.5293" x2="248.527" y2="36.4518" stroke="#E2E1DD" stroke-width="0.93128"/>
<line x1="229.902" y1="-22.5293" x2="254.736" y2="36.4518" stroke="#E2E1DD" stroke-width="0.93128"/>
<line x1="236.11" y1="-22.5293" x2="260.944" y2="36.4518" stroke="#E2E1DD" stroke-width="0.93128"/>
<line x1="242.319" y1="-22.5293" x2="267.153" y2="36.4518" stroke="#E2E1DD" stroke-width="0.93128"/>
<line x1="248.527" y1="-22.5293" x2="273.362" y2="36.4518" stroke="#E2E1DD" stroke-width="0.93128"/>
<line x1="254.736" y1="-22.5293" x2="279.57" y2="36.4518" stroke="#E2E1DD" stroke-width="0.93128"/>
<line x1="260.944" y1="-22.5293" x2="285.779" y2="36.4518" stroke="#E2E1DD" stroke-width="0.93128"/>
<line x1="267.153" y1="-22.5293" x2="291.987" y2="36.4518" stroke="#E2E1DD" stroke-width="0.93128"/>
</g>
</g>
<defs>
<clipPath id="clip0_1_2252">
<rect width="272" height="22" fill="white"/>
</clipPath>
</defs>
</svg>
