<svg width="126" height="26" viewBox="0 0 126 26" fill="none" xmlns="http://www.w3.org/2000/svg">
<g clip-path="url(#clip0_1_2604)">
<path d="M122.33 11.8722V20.0472H119.324V12.4124C119.324 10.5531 118.523 9.5143 116.963 9.5143C115.403 9.5143 114.374 10.605 114.082 12.4332C113.999 12.8695 113.978 13.5446 113.978 14.9677V20.0368H110.973V7.05246H113.635C113.646 7.16672 113.708 8.33012 113.708 8.40284C113.708 8.49632 113.823 8.54826 113.895 8.48593C114.997 7.61338 116.215 6.80316 117.91 6.80316C120.698 6.80316 122.33 8.68329 122.33 11.8722Z" fill="#A1A1A1"/>
<path d="M106.126 7.06253L106.032 8.54794C106.022 8.64143 105.907 8.69337 105.846 8.63104C105.481 8.28825 104.14 6.81323 101.862 6.81323C98.5959 6.81323 96.1934 9.62824 96.1934 13.4509C96.1934 17.3254 98.5752 20.1507 101.862 20.1507C104.056 20.1507 105.398 18.7277 105.648 18.416C105.721 18.3329 105.856 18.3849 105.856 18.4887C105.825 18.8835 105.773 19.8703 105.44 20.7117C105.024 21.7712 104.088 22.758 102.205 22.758C100.655 22.758 99.2823 22.166 97.9822 20.8986L96.4118 23.0489C97.8367 24.6589 100.083 25.5626 102.527 25.5626C106.459 25.5626 108.82 22.8723 108.82 18.4784V7.06253H106.126ZM102.507 17.4293C100.562 17.4293 99.1888 15.7464 99.1888 13.4509C99.1888 11.1552 100.562 9.51398 102.507 9.51398C104.451 9.51398 105.825 11.1449 105.825 13.4509C105.814 15.7568 104.441 17.4293 102.507 17.4293Z" fill="#A1A1A1"/>
<path d="M89.9113 16.193C89.9113 18.6548 87.8416 20.3064 84.8046 20.3064C82.4229 20.3064 80.3011 19.382 79.0322 18.0627L80.0202 15.7151C80.9771 16.5773 82.5164 17.8134 84.711 17.8134C86.2398 17.8134 87.1239 17.1383 87.1239 16.2865C87.1239 15.2997 85.907 15.04 84.451 14.7595C82.3812 14.3232 79.6355 13.6169 79.6355 10.8019C79.6355 8.44393 81.5492 6.82349 84.3782 6.82349C86.5519 6.82349 88.424 7.65448 89.7137 8.73478L88.2368 10.8019C86.9888 9.81508 85.6783 9.32686 84.3782 9.32686C83.0781 9.32686 82.4332 9.86702 82.4332 10.6461C82.4332 11.7367 83.8373 12.0172 84.867 12.225C87.4567 12.7236 89.9113 13.5026 89.9113 16.193Z" fill="#A1A1A1"/>
<path d="M45.9578 6.80316C42.2863 6.80316 39.6446 9.64934 39.6446 13.555C39.6446 17.4608 42.2863 20.3069 45.9578 20.3069C49.6293 20.3069 52.2815 17.4608 52.2815 13.555C52.2815 9.64934 49.6396 6.80316 45.9578 6.80316ZM45.9578 17.5854C44.0128 17.5854 42.64 15.9337 42.64 13.5446C42.64 11.1659 43.9817 9.50391 45.9578 9.50391C47.9235 9.50391 49.2757 11.1556 49.2757 13.5446C49.2757 15.9337 47.9027 17.5854 45.9578 17.5854Z" fill="#A1A1A1"/>
<path d="M53.3418 13.5551C53.3418 9.70134 55.9836 6.80322 59.5094 6.80322C62.3072 6.80322 64.3562 8.20554 65.313 10.8439L62.6504 11.8516C61.9224 10.2207 60.9655 9.52475 59.5199 9.52475C57.7101 9.52475 56.358 11.2283 56.358 13.5655C56.358 15.8923 57.6997 17.6062 59.5199 17.6062C60.9759 17.6062 61.9224 16.9103 62.6504 15.2794L65.313 16.287C64.3562 18.9255 62.3072 20.3277 59.5094 20.3277C55.9836 20.307 53.3418 17.4088 53.3418 13.5551Z" fill="#A1A1A1"/>
<path d="M37.2731 1.02728C37.221 1.02728 37.1587 1.03767 37.1067 1.06883L35.1513 2.10758C35.1098 2.12836 35.0889 2.16991 35.0889 2.21145V8.39201C35.0889 8.49588 34.9642 8.53743 34.8913 8.4751C34.6001 8.22581 33.9241 7.59218 32.988 7.1559C32.4992 6.92738 31.7815 6.80272 31.1263 6.80272C27.8397 6.80272 25.4579 9.64889 25.4579 13.5546C25.4579 17.4602 27.8397 20.3065 31.1263 20.3065C32.8528 20.3065 34.1529 19.4027 34.9434 18.5925C34.9953 18.5406 35.0266 18.5094 35.0785 18.4575C35.1513 18.3848 35.2762 18.4263 35.2762 18.5302L35.3802 20.0468H38.0947V1.11039C38.0947 1.06883 38.0636 1.02728 38.0115 1.02728H37.2731ZM31.7711 17.5849C29.8054 17.5849 28.4533 15.9333 28.4533 13.5442C28.4533 11.1551 29.8366 9.51386 31.7711 9.51386C33.716 9.51386 35.0889 11.1654 35.0889 13.5546C35.0889 15.9333 33.7473 17.5849 31.7711 17.5849Z" fill="#A1A1A1"/>
<path d="M93.4468 7.10443L91.5643 8.10162C91.5227 8.1224 91.502 8.16395 91.502 8.2055V20.0472H94.5077V7.13559C94.5077 7.09404 94.4765 7.05249 94.4245 7.05249H93.6132C93.5509 7.06288 93.4989 7.07327 93.4468 7.10443Z" fill="#A1A1A1"/>
<path d="M93 4.95395C93.9985 4.95395 94.8097 4.14373 94.8097 3.14653C94.8097 2.14933 93.9985 1.33911 93 1.33911C92.0015 1.33911 91.1902 2.14933 91.1902 3.14653C91.1902 4.14373 92.0015 4.95395 93 4.95395Z" fill="#A1A1A1"/>
<path d="M77.9502 7.05249V14.1056C77.9502 19.4552 74.9548 20.2965 72.2818 20.2965C69.6088 20.2965 66.6134 19.4448 66.6134 14.1056V7.05249H69.6088V14.8535C69.6088 15.6117 69.796 17.5854 72.2818 17.5854C74.7676 17.5854 74.9548 15.6221 74.9548 14.8535V7.05249H77.9502Z" fill="#A1A1A1"/>
<path d="M124.046 18.7175V18.9044H123.62V20.0367H123.411V18.9044H122.985V18.7175H124.046ZM125.533 20.0367H125.325V18.9979L124.92 19.777H124.806L124.399 19.0083V20.0367H124.191V18.7175H124.462L124.858 19.4758L125.252 18.7175H125.523L125.533 20.0367Z" fill="#A1A1A1"/>
<path d="M15.2345 14.9668V20.1086C15.2345 20.3787 15.0162 20.5969 14.7457 20.5969H1.21442C0.944 20.5969 0.725586 20.3787 0.725586 20.1086V6.60491C0.725586 6.33484 0.944 6.1167 1.21442 6.1167H6.35236V14.4787C6.35236 14.7486 6.57077 14.9668 6.8412 14.9668H15.2345Z" fill="#A1A1A1"/>
<path d="M20.8713 7.71671C20.8713 12.0379 18.344 14.9568 15.2342 14.9672V9.52414C15.2342 9.36833 15.1718 9.21251 15.0574 9.10864L12.2285 6.28324C12.114 6.16899 11.9684 6.10666 11.8124 6.10666H6.36243V0.97524C6.36243 0.705165 6.58084 0.487027 6.85125 0.487027H14.475C18.0944 0.47664 20.8713 3.38513 20.8713 7.71671Z" fill="#A1A1A1"/>
</g>
<defs>
<clipPath id="clip0_1_2604">
<rect width="126" height="26" fill="white"/>
</clipPath>
</defs>
</svg>
