<svg width="50" height="571" viewBox="0 0 50 571" fill="none" xmlns="http://www.w3.org/2000/svg">
<mask id="mask0_188_840" style="mask-type:alpha" maskUnits="userSpaceOnUse" x="0" y="0" width="50" height="571">
<path d="M2.49592e-05 571L0 2.18557e-06L50 50.4417L50 571L2.49592e-05 571Z" fill="#F0F0F0"/>
</mask>
<g mask="url(#mask0_188_840)">
<line y1="-0.46564" x2="64.0815" y2="-0.46564" transform="matrix(0.920406 0.390963 0.385165 -0.922848 0.00976562 -20.3965)" stroke="url(#paint0_linear_188_840)" stroke-width="0.93128"/>
<line y1="-0.46564" x2="64.0815" y2="-0.46564" transform="matrix(0.920406 0.390963 0.385165 -0.922848 0.00976562 -14.1326)" stroke="url(#paint1_linear_188_840)" stroke-width="0.93128"/>
<line y1="-0.46564" x2="64.0815" y2="-0.46564" transform="matrix(0.920406 0.390963 0.385165 -0.922848 0.00976562 -7.86987)" stroke="url(#paint2_linear_188_840)" stroke-width="0.93128"/>
<line y1="-0.46564" x2="64.0815" y2="-0.46564" transform="matrix(0.920406 0.390963 0.385165 -0.922848 0.00976562 -1.60595)" stroke="url(#paint3_linear_188_840)" stroke-width="0.93128"/>
<line y1="-0.46564" x2="64.0815" y2="-0.46564" transform="matrix(0.920406 0.390963 0.385165 -0.922848 0.00976562 4.65796)" stroke="url(#paint4_linear_188_840)" stroke-width="0.93128"/>
<line y1="-0.46564" x2="64.0815" y2="-0.46564" transform="matrix(0.920406 0.390963 0.385165 -0.922848 0.00976562 10.9207)" stroke="url(#paint5_linear_188_840)" stroke-width="0.93128"/>
<line y1="-0.46564" x2="64.0815" y2="-0.46564" transform="matrix(0.920406 0.390963 0.385165 -0.922848 0.00976562 17.1846)" stroke="url(#paint6_linear_188_840)" stroke-width="0.93128"/>
<line y1="-0.46564" x2="64.0815" y2="-0.46564" transform="matrix(0.920406 0.390963 0.385165 -0.922848 0.00976562 23.4475)" stroke="url(#paint7_linear_188_840)" stroke-width="0.93128"/>
<line y1="-0.46564" x2="64.0815" y2="-0.46564" transform="matrix(0.920406 0.390963 0.385165 -0.922848 0.00976562 29.7112)" stroke="url(#paint8_linear_188_840)" stroke-width="0.93128"/>
<line y1="-0.46564" x2="64.0815" y2="-0.46564" transform="matrix(0.920406 0.390963 0.385165 -0.922848 0.00976562 35.9741)" stroke="url(#paint9_linear_188_840)" stroke-width="0.93128"/>
<line y1="-0.46564" x2="64.0815" y2="-0.46564" transform="matrix(0.920406 0.390963 0.385165 -0.922848 0.00976562 42.238)" stroke="url(#paint10_linear_188_840)" stroke-width="0.93128"/>
<line y1="-0.46564" x2="64.0815" y2="-0.46564" transform="matrix(0.920406 0.390963 0.385165 -0.922848 0.00976562 48.5007)" stroke="url(#paint11_linear_188_840)" stroke-width="0.93128"/>
<line y1="-0.46564" x2="64.0815" y2="-0.46564" transform="matrix(0.920406 0.390963 0.385165 -0.922848 0.00976562 54.7647)" stroke="url(#paint12_linear_188_840)" stroke-width="0.93128"/>
<line y1="-0.46564" x2="64.0815" y2="-0.46564" transform="matrix(0.920406 0.390963 0.385165 -0.922848 0.00976562 61.0273)" stroke="url(#paint13_linear_188_840)" stroke-width="0.93128"/>
<line y1="-0.46564" x2="64.0815" y2="-0.46564" transform="matrix(0.920406 0.390963 0.385165 -0.922848 0.00976562 67.2913)" stroke="url(#paint14_linear_188_840)" stroke-width="0.93128"/>
<line y1="-0.46564" x2="64.0815" y2="-0.46564" transform="matrix(0.920406 0.390963 0.385165 -0.922848 0.00976562 73.5542)" stroke="url(#paint15_linear_188_840)" stroke-width="0.93128"/>
<line y1="-0.46564" x2="64.0815" y2="-0.46564" transform="matrix(0.920406 0.390963 0.385165 -0.922848 0.00976562 79.8179)" stroke="url(#paint16_linear_188_840)" stroke-width="0.93128"/>
<line y1="-0.46564" x2="64.0815" y2="-0.46564" transform="matrix(0.920406 0.390963 0.385165 -0.922848 0.00976562 86.0818)" stroke="url(#paint17_linear_188_840)" stroke-width="0.93128"/>
<line y1="-0.46564" x2="64.0815" y2="-0.46564" transform="matrix(0.920406 0.390963 0.385165 -0.922848 0.00976562 92.3447)" stroke="url(#paint18_linear_188_840)" stroke-width="0.93128"/>
<line y1="-0.46564" x2="64.0815" y2="-0.46564" transform="matrix(0.920406 0.390963 0.385165 -0.922848 0.00976562 98.6084)" stroke="url(#paint19_linear_188_840)" stroke-width="0.93128"/>
<line y1="-0.46564" x2="64.0815" y2="-0.46564" transform="matrix(0.920406 0.390963 0.385165 -0.922848 0.00976562 104.871)" stroke="url(#paint20_linear_188_840)" stroke-width="0.93128"/>
<line y1="-0.46564" x2="64.0815" y2="-0.46564" transform="matrix(0.920406 0.390963 0.385165 -0.922848 0.00976562 111.135)" stroke="url(#paint21_linear_188_840)" stroke-width="0.93128"/>
<line y1="-0.46564" x2="64.0815" y2="-0.46564" transform="matrix(0.920406 0.390963 0.385165 -0.922848 0.00976562 117.398)" stroke="url(#paint22_linear_188_840)" stroke-width="0.93128"/>
<line y1="-0.46564" x2="64.0815" y2="-0.46564" transform="matrix(0.920406 0.390963 0.385165 -0.922848 0.00976562 123.662)" stroke="url(#paint23_linear_188_840)" stroke-width="0.93128"/>
<line y1="-0.46564" x2="64.0815" y2="-0.46564" transform="matrix(0.920406 0.390963 0.385165 -0.922848 0.00976562 129.925)" stroke="url(#paint24_linear_188_840)" stroke-width="0.93128"/>
<line y1="-0.46564" x2="64.0815" y2="-0.46564" transform="matrix(0.920406 0.390963 0.385165 -0.922848 0.00976562 136.188)" stroke="url(#paint25_linear_188_840)" stroke-width="0.93128"/>
<line y1="-0.46564" x2="64.0815" y2="-0.46564" transform="matrix(0.920406 0.390963 0.385165 -0.922848 0.00976562 142.451)" stroke="url(#paint26_linear_188_840)" stroke-width="0.93128"/>
<line y1="-0.46564" x2="64.0815" y2="-0.46564" transform="matrix(0.920406 0.390963 0.385165 -0.922848 0.00976562 148.715)" stroke="url(#paint27_linear_188_840)" stroke-width="0.93128"/>
<line y1="-0.46564" x2="64.0815" y2="-0.46564" transform="matrix(0.920406 0.390963 0.385165 -0.922848 0.00976562 154.978)" stroke="url(#paint28_linear_188_840)" stroke-width="0.93128"/>
<line y1="-0.46564" x2="64.0815" y2="-0.46564" transform="matrix(0.920406 0.390963 0.385165 -0.922848 0.00976562 161.242)" stroke="url(#paint29_linear_188_840)" stroke-width="0.93128"/>
<line y1="-0.46564" x2="64.0815" y2="-0.46564" transform="matrix(0.920406 0.390963 0.385165 -0.922848 0.00976562 167.505)" stroke="url(#paint30_linear_188_840)" stroke-width="0.93128"/>
<line y1="-0.46564" x2="64.0815" y2="-0.46564" transform="matrix(0.920406 0.390963 0.385165 -0.922848 0.00976562 173.769)" stroke="url(#paint31_linear_188_840)" stroke-width="0.93128"/>
<line y1="-0.46564" x2="64.0815" y2="-0.46564" transform="matrix(0.920406 0.390963 0.385165 -0.922848 0.00976562 180.031)" stroke="url(#paint32_linear_188_840)" stroke-width="0.93128"/>
<line y1="-0.46564" x2="64.0815" y2="-0.46564" transform="matrix(0.920406 0.390963 0.385165 -0.922848 0.00976562 186.295)" stroke="url(#paint33_linear_188_840)" stroke-width="0.93128"/>
<line y1="-0.46564" x2="64.0815" y2="-0.46564" transform="matrix(0.920406 0.390963 0.385165 -0.922848 0.00976562 192.559)" stroke="url(#paint34_linear_188_840)" stroke-width="0.93128"/>
<line y1="-0.46564" x2="64.0815" y2="-0.46564" transform="matrix(0.920406 0.390963 0.385165 -0.922848 0.00976562 198.822)" stroke="url(#paint35_linear_188_840)" stroke-width="0.93128"/>
<line y1="-0.46564" x2="64.0815" y2="-0.46564" transform="matrix(0.920406 0.390963 0.385165 -0.922848 0.00976562 205.086)" stroke="url(#paint36_linear_188_840)" stroke-width="0.93128"/>
<line y1="-0.46564" x2="64.0815" y2="-0.46564" transform="matrix(0.920406 0.390963 0.385165 -0.922848 0.00976562 211.349)" stroke="url(#paint37_linear_188_840)" stroke-width="0.93128"/>
<line y1="-0.46564" x2="64.0815" y2="-0.46564" transform="matrix(0.920406 0.390963 0.385165 -0.922848 0.00976562 217.613)" stroke="url(#paint38_linear_188_840)" stroke-width="0.93128"/>
<line y1="-0.46564" x2="64.0815" y2="-0.46564" transform="matrix(0.920406 0.390963 0.385165 -0.922848 0.00976562 223.875)" stroke="url(#paint39_linear_188_840)" stroke-width="0.93128"/>
<line y1="-0.46564" x2="64.0815" y2="-0.46564" transform="matrix(0.920406 0.390963 0.385165 -0.922848 0.00976562 230.139)" stroke="url(#paint40_linear_188_840)" stroke-width="0.93128"/>
<line y1="-0.46564" x2="64.0815" y2="-0.46564" transform="matrix(0.920406 0.390963 0.385165 -0.922848 0.00976562 236.402)" stroke="url(#paint41_linear_188_840)" stroke-width="0.93128"/>
<line y1="-0.46564" x2="64.0815" y2="-0.46564" transform="matrix(0.920406 0.390963 0.385165 -0.922848 0.00976562 242.666)" stroke="url(#paint42_linear_188_840)" stroke-width="0.93128"/>
<line y1="-0.46564" x2="64.0815" y2="-0.46564" transform="matrix(0.920406 0.390963 0.385165 -0.922848 0.00976562 248.929)" stroke="url(#paint43_linear_188_840)" stroke-width="0.93128"/>
<line y1="-0.46564" x2="64.0815" y2="-0.46564" transform="matrix(0.920406 0.390963 0.385165 -0.922848 0.00976562 255.193)" stroke="url(#paint44_linear_188_840)" stroke-width="0.93128"/>
<line y1="-0.46564" x2="64.0815" y2="-0.46564" transform="matrix(0.920406 0.390963 0.385165 -0.922848 0.00976562 261.455)" stroke="url(#paint45_linear_188_840)" stroke-width="0.93128"/>
<line y1="-0.46564" x2="64.0815" y2="-0.46564" transform="matrix(0.920406 0.390963 0.385165 -0.922848 0.00976562 267.719)" stroke="url(#paint46_linear_188_840)" stroke-width="0.93128"/>
<line y1="-0.46564" x2="64.0815" y2="-0.46564" transform="matrix(0.920406 0.390963 0.385165 -0.922848 0.00976562 273.982)" stroke="url(#paint47_linear_188_840)" stroke-width="0.93128"/>
<line y1="-0.46564" x2="64.0815" y2="-0.46564" transform="matrix(0.920406 0.390963 0.385165 -0.922848 0.00976562 280.246)" stroke="url(#paint48_linear_188_840)" stroke-width="0.93128"/>
<line y1="-0.46564" x2="64.0815" y2="-0.46564" transform="matrix(0.920406 0.390963 0.385165 -0.922848 0.00976562 286.509)" stroke="url(#paint49_linear_188_840)" stroke-width="0.93128"/>
<line y1="-0.46564" x2="64.0815" y2="-0.46564" transform="matrix(0.920406 0.390963 0.385165 -0.922848 0.00976562 292.772)" stroke="url(#paint50_linear_188_840)" stroke-width="0.93128"/>
<line y1="-0.46564" x2="64.0815" y2="-0.46564" transform="matrix(0.920406 0.390963 0.385165 -0.922848 0.00976562 299.036)" stroke="url(#paint51_linear_188_840)" stroke-width="0.93128"/>
<line y1="-0.46564" x2="64.0815" y2="-0.46564" transform="matrix(0.920406 0.390963 0.385165 -0.922848 0.00976562 305.299)" stroke="url(#paint52_linear_188_840)" stroke-width="0.93128"/>
<line y1="-0.46564" x2="64.0815" y2="-0.46564" transform="matrix(0.920406 0.390963 0.385165 -0.922848 0.00976562 311.563)" stroke="url(#paint53_linear_188_840)" stroke-width="0.93128"/>
<line y1="-0.46564" x2="64.0815" y2="-0.46564" transform="matrix(0.920406 0.390963 0.385165 -0.922848 0.00976562 317.826)" stroke="url(#paint54_linear_188_840)" stroke-width="0.93128"/>
<line y1="-0.46564" x2="64.0815" y2="-0.46564" transform="matrix(0.920406 0.390963 0.385165 -0.922848 0.00976562 324.09)" stroke="url(#paint55_linear_188_840)" stroke-width="0.93128"/>
<line y1="-0.46564" x2="64.0815" y2="-0.46564" transform="matrix(0.920406 0.390963 0.385165 -0.922848 0.00976562 330.353)" stroke="url(#paint56_linear_188_840)" stroke-width="0.93128"/>
<line y1="-0.46564" x2="64.0815" y2="-0.46564" transform="matrix(0.920406 0.390963 0.385165 -0.922848 0.00976562 336.616)" stroke="url(#paint57_linear_188_840)" stroke-width="0.93128"/>
<line y1="-0.46564" x2="64.0815" y2="-0.46564" transform="matrix(0.920406 0.390963 0.385165 -0.922848 0.00976562 342.879)" stroke="url(#paint58_linear_188_840)" stroke-width="0.93128"/>
<line y1="-0.46564" x2="64.0815" y2="-0.46564" transform="matrix(0.920406 0.390963 0.385165 -0.922848 0.00976562 349.143)" stroke="url(#paint59_linear_188_840)" stroke-width="0.93128"/>
<line y1="-0.46564" x2="64.0815" y2="-0.46564" transform="matrix(0.920406 0.390963 0.385165 -0.922848 0.00976562 355.406)" stroke="url(#paint60_linear_188_840)" stroke-width="0.93128"/>
<line y1="-0.46564" x2="64.0815" y2="-0.46564" transform="matrix(0.920406 0.390963 0.385165 -0.922848 0.00976562 361.67)" stroke="url(#paint61_linear_188_840)" stroke-width="0.93128"/>
<line y1="-0.46564" x2="64.0815" y2="-0.46564" transform="matrix(0.920406 0.390963 0.385165 -0.922848 0.00976562 367.933)" stroke="url(#paint62_linear_188_840)" stroke-width="0.93128"/>
<line y1="-0.46564" x2="64.0815" y2="-0.46564" transform="matrix(0.920406 0.390963 0.385165 -0.922848 0.00976562 374.197)" stroke="url(#paint63_linear_188_840)" stroke-width="0.93128"/>
<line y1="-0.46564" x2="64.0815" y2="-0.46564" transform="matrix(0.920406 0.390963 0.385165 -0.922848 0.00976562 380.46)" stroke="url(#paint64_linear_188_840)" stroke-width="0.93128"/>
<line y1="-0.46564" x2="64.0815" y2="-0.46564" transform="matrix(0.920406 0.390963 0.385165 -0.922848 0.00976562 386.723)" stroke="url(#paint65_linear_188_840)" stroke-width="0.93128"/>
<line y1="-0.46564" x2="64.0815" y2="-0.46564" transform="matrix(0.920406 0.390963 0.385165 -0.922848 0.00976562 392.987)" stroke="url(#paint66_linear_188_840)" stroke-width="0.93128"/>
<line y1="-0.46564" x2="64.0815" y2="-0.46564" transform="matrix(0.920406 0.390963 0.385165 -0.922848 0.00976562 399.25)" stroke="url(#paint67_linear_188_840)" stroke-width="0.93128"/>
<line y1="-0.46564" x2="64.0815" y2="-0.46564" transform="matrix(0.920406 0.390963 0.385165 -0.922848 0.00976562 405.514)" stroke="url(#paint68_linear_188_840)" stroke-width="0.93128"/>
<line y1="-0.46564" x2="64.0815" y2="-0.46564" transform="matrix(0.920406 0.390963 0.385165 -0.922848 0.00976562 411.777)" stroke="url(#paint69_linear_188_840)" stroke-width="0.93128"/>
<line y1="-0.46564" x2="64.0815" y2="-0.46564" transform="matrix(0.920406 0.390963 0.385165 -0.922848 0.00976562 418.041)" stroke="url(#paint70_linear_188_840)" stroke-width="0.93128"/>
<line y1="-0.46564" x2="64.0815" y2="-0.46564" transform="matrix(0.920406 0.390963 0.385165 -0.922848 0.00976562 424.303)" stroke="url(#paint71_linear_188_840)" stroke-width="0.93128"/>
<line y1="-0.46564" x2="64.0815" y2="-0.46564" transform="matrix(0.920406 0.390963 0.385165 -0.922848 0.00976562 430.567)" stroke="url(#paint72_linear_188_840)" stroke-width="0.93128"/>
<line y1="-0.46564" x2="64.0815" y2="-0.46564" transform="matrix(0.920406 0.390963 0.385165 -0.922848 0.00976562 436.83)" stroke="url(#paint73_linear_188_840)" stroke-width="0.93128"/>
<line y1="-0.46564" x2="64.0815" y2="-0.46564" transform="matrix(0.920406 0.390963 0.385165 -0.922848 0.00976562 443.094)" stroke="url(#paint74_linear_188_840)" stroke-width="0.93128"/>
<line y1="-0.46564" x2="64.0815" y2="-0.46564" transform="matrix(0.920406 0.390963 0.385165 -0.922848 0.00976562 449.357)" stroke="url(#paint75_linear_188_840)" stroke-width="0.93128"/>
<line y1="-0.46564" x2="64.0815" y2="-0.46564" transform="matrix(0.920406 0.390963 0.385165 -0.922848 0.00976562 455.62)" stroke="url(#paint76_linear_188_840)" stroke-width="0.93128"/>
<line y1="-0.46564" x2="64.0815" y2="-0.46564" transform="matrix(0.920406 0.390963 0.385165 -0.922848 0.00976562 461.883)" stroke="url(#paint77_linear_188_840)" stroke-width="0.93128"/>
<line y1="-0.46564" x2="64.0815" y2="-0.46564" transform="matrix(0.920406 0.390963 0.385165 -0.922848 0.00976562 468.147)" stroke="url(#paint78_linear_188_840)" stroke-width="0.93128"/>
<line y1="-0.46564" x2="64.0815" y2="-0.46564" transform="matrix(0.920406 0.390963 0.385165 -0.922848 0.00976562 474.41)" stroke="url(#paint79_linear_188_840)" stroke-width="0.93128"/>
<line y1="-0.46564" x2="64.0815" y2="-0.46564" transform="matrix(0.920406 0.390963 0.385165 -0.922848 0.00976562 480.674)" stroke="url(#paint80_linear_188_840)" stroke-width="0.93128"/>
<line y1="-0.46564" x2="64.0815" y2="-0.46564" transform="matrix(0.920406 0.390963 0.385165 -0.922848 0.00976562 486.938)" stroke="url(#paint81_linear_188_840)" stroke-width="0.93128"/>
<line y1="-0.46564" x2="64.0815" y2="-0.46564" transform="matrix(0.920406 0.390963 0.385165 -0.922848 0.00976562 493.2)" stroke="url(#paint82_linear_188_840)" stroke-width="0.93128"/>
<line y1="-0.46564" x2="64.0815" y2="-0.46564" transform="matrix(0.920406 0.390963 0.385165 -0.922848 0.00976562 499.464)" stroke="url(#paint83_linear_188_840)" stroke-width="0.93128"/>
<line y1="-0.46564" x2="64.0815" y2="-0.46564" transform="matrix(0.920406 0.390963 0.385165 -0.922848 0.00976562 505.727)" stroke="url(#paint84_linear_188_840)" stroke-width="0.93128"/>
<line y1="-0.46564" x2="64.0815" y2="-0.46564" transform="matrix(0.920406 0.390963 0.385165 -0.922848 0.00976562 511.991)" stroke="url(#paint85_linear_188_840)" stroke-width="0.93128"/>
<line y1="-0.46564" x2="64.0815" y2="-0.46564" transform="matrix(0.920406 0.390963 0.385165 -0.922848 0.00976562 518.254)" stroke="url(#paint86_linear_188_840)" stroke-width="0.93128"/>
<line y1="-0.46564" x2="64.0815" y2="-0.46564" transform="matrix(0.920406 0.390963 0.385165 -0.922848 0.00976562 524.518)" stroke="url(#paint87_linear_188_840)" stroke-width="0.93128"/>
<line y1="-0.46564" x2="64.0815" y2="-0.46564" transform="matrix(0.920406 0.390963 0.385165 -0.922848 0.00976562 530.781)" stroke="url(#paint88_linear_188_840)" stroke-width="0.93128"/>
<line y1="-0.46564" x2="64.0815" y2="-0.46564" transform="matrix(0.920406 0.390963 0.385165 -0.922848 0.00976562 537.044)" stroke="url(#paint89_linear_188_840)" stroke-width="0.93128"/>
<line y1="-0.46564" x2="64.0815" y2="-0.46564" transform="matrix(0.920406 0.390963 0.385165 -0.922848 0.00976562 543.307)" stroke="url(#paint90_linear_188_840)" stroke-width="0.93128"/>
<line y1="-0.46564" x2="64.0815" y2="-0.46564" transform="matrix(0.920406 0.390963 0.385165 -0.922848 0.00976562 549.571)" stroke="url(#paint91_linear_188_840)" stroke-width="0.93128"/>
<line y1="-0.46564" x2="64.0815" y2="-0.46564" transform="matrix(0.920406 0.390963 0.385165 -0.922848 0.00976562 555.835)" stroke="url(#paint92_linear_188_840)" stroke-width="0.93128"/>
<line y1="-0.46564" x2="64.0815" y2="-0.46564" transform="matrix(0.920406 0.390963 0.385165 -0.922848 0.00976562 562.098)" stroke="url(#paint93_linear_188_840)" stroke-width="0.93128"/>
<line y1="-0.46564" x2="64.0815" y2="-0.46564" transform="matrix(0.920406 0.390963 0.385165 -0.922848 0.00976562 568.362)" stroke="url(#paint94_linear_188_840)" stroke-width="0.93128"/>
</g>
<defs>
<linearGradient id="paint0_linear_188_840" x1="0" y1="0.5" x2="64.0815" y2="0.5" gradientUnits="userSpaceOnUse">
<stop stop-color="#E2E1DD"/>
<stop offset="1" stop-color="#E2E1DD" stop-opacity="0"/>
</linearGradient>
<linearGradient id="paint1_linear_188_840" x1="0" y1="0.5" x2="64.0815" y2="0.5" gradientUnits="userSpaceOnUse">
<stop stop-color="#E2E1DD"/>
<stop offset="1" stop-color="#E2E1DD" stop-opacity="0"/>
</linearGradient>
<linearGradient id="paint2_linear_188_840" x1="0" y1="0.5" x2="64.0815" y2="0.5" gradientUnits="userSpaceOnUse">
<stop stop-color="#E2E1DD"/>
<stop offset="1" stop-color="#E2E1DD" stop-opacity="0"/>
</linearGradient>
<linearGradient id="paint3_linear_188_840" x1="0" y1="0.5" x2="64.0815" y2="0.5" gradientUnits="userSpaceOnUse">
<stop stop-color="#E2E1DD"/>
<stop offset="1" stop-color="#E2E1DD" stop-opacity="0"/>
</linearGradient>
<linearGradient id="paint4_linear_188_840" x1="0" y1="0.5" x2="64.0815" y2="0.5" gradientUnits="userSpaceOnUse">
<stop stop-color="#E2E1DD"/>
<stop offset="1" stop-color="#E2E1DD" stop-opacity="0"/>
</linearGradient>
<linearGradient id="paint5_linear_188_840" x1="0" y1="0.5" x2="64.0815" y2="0.5" gradientUnits="userSpaceOnUse">
<stop stop-color="#E2E1DD"/>
<stop offset="1" stop-color="#E2E1DD" stop-opacity="0"/>
</linearGradient>
<linearGradient id="paint6_linear_188_840" x1="0" y1="0.5" x2="64.0815" y2="0.5" gradientUnits="userSpaceOnUse">
<stop stop-color="#E2E1DD"/>
<stop offset="1" stop-color="#E2E1DD" stop-opacity="0"/>
</linearGradient>
<linearGradient id="paint7_linear_188_840" x1="0" y1="0.5" x2="64.0815" y2="0.5" gradientUnits="userSpaceOnUse">
<stop stop-color="#E2E1DD"/>
<stop offset="1" stop-color="#E2E1DD" stop-opacity="0"/>
</linearGradient>
<linearGradient id="paint8_linear_188_840" x1="0" y1="0.5" x2="64.0815" y2="0.5" gradientUnits="userSpaceOnUse">
<stop stop-color="#E2E1DD"/>
<stop offset="1" stop-color="#E2E1DD" stop-opacity="0"/>
</linearGradient>
<linearGradient id="paint9_linear_188_840" x1="0" y1="0.5" x2="64.0815" y2="0.5" gradientUnits="userSpaceOnUse">
<stop stop-color="#E2E1DD"/>
<stop offset="1" stop-color="#E2E1DD" stop-opacity="0"/>
</linearGradient>
<linearGradient id="paint10_linear_188_840" x1="0" y1="0.5" x2="64.0815" y2="0.5" gradientUnits="userSpaceOnUse">
<stop stop-color="#E2E1DD"/>
<stop offset="1" stop-color="#E2E1DD" stop-opacity="0"/>
</linearGradient>
<linearGradient id="paint11_linear_188_840" x1="0" y1="0.5" x2="64.0815" y2="0.5" gradientUnits="userSpaceOnUse">
<stop stop-color="#E2E1DD"/>
<stop offset="1" stop-color="#E2E1DD" stop-opacity="0"/>
</linearGradient>
<linearGradient id="paint12_linear_188_840" x1="0" y1="0.5" x2="64.0815" y2="0.5" gradientUnits="userSpaceOnUse">
<stop stop-color="#E2E1DD"/>
<stop offset="1" stop-color="#E2E1DD" stop-opacity="0"/>
</linearGradient>
<linearGradient id="paint13_linear_188_840" x1="0" y1="0.5" x2="64.0815" y2="0.5" gradientUnits="userSpaceOnUse">
<stop stop-color="#E2E1DD"/>
<stop offset="1" stop-color="#E2E1DD" stop-opacity="0"/>
</linearGradient>
<linearGradient id="paint14_linear_188_840" x1="0" y1="0.5" x2="64.0815" y2="0.5" gradientUnits="userSpaceOnUse">
<stop stop-color="#E2E1DD"/>
<stop offset="1" stop-color="#E2E1DD" stop-opacity="0"/>
</linearGradient>
<linearGradient id="paint15_linear_188_840" x1="0" y1="0.5" x2="64.0815" y2="0.5" gradientUnits="userSpaceOnUse">
<stop stop-color="#E2E1DD"/>
<stop offset="1" stop-color="#E2E1DD" stop-opacity="0"/>
</linearGradient>
<linearGradient id="paint16_linear_188_840" x1="0" y1="0.5" x2="64.0815" y2="0.5" gradientUnits="userSpaceOnUse">
<stop stop-color="#E2E1DD"/>
<stop offset="1" stop-color="#E2E1DD" stop-opacity="0"/>
</linearGradient>
<linearGradient id="paint17_linear_188_840" x1="0" y1="0.5" x2="64.0815" y2="0.5" gradientUnits="userSpaceOnUse">
<stop stop-color="#E2E1DD"/>
<stop offset="1" stop-color="#E2E1DD" stop-opacity="0"/>
</linearGradient>
<linearGradient id="paint18_linear_188_840" x1="0" y1="0.5" x2="64.0815" y2="0.5" gradientUnits="userSpaceOnUse">
<stop stop-color="#E2E1DD"/>
<stop offset="1" stop-color="#E2E1DD" stop-opacity="0"/>
</linearGradient>
<linearGradient id="paint19_linear_188_840" x1="0" y1="0.5" x2="64.0815" y2="0.5" gradientUnits="userSpaceOnUse">
<stop stop-color="#E2E1DD"/>
<stop offset="1" stop-color="#E2E1DD" stop-opacity="0"/>
</linearGradient>
<linearGradient id="paint20_linear_188_840" x1="0" y1="0.5" x2="64.0815" y2="0.5" gradientUnits="userSpaceOnUse">
<stop stop-color="#E2E1DD"/>
<stop offset="1" stop-color="#E2E1DD" stop-opacity="0"/>
</linearGradient>
<linearGradient id="paint21_linear_188_840" x1="0" y1="0.5" x2="64.0815" y2="0.5" gradientUnits="userSpaceOnUse">
<stop stop-color="#E2E1DD"/>
<stop offset="1" stop-color="#E2E1DD" stop-opacity="0"/>
</linearGradient>
<linearGradient id="paint22_linear_188_840" x1="0" y1="0.5" x2="64.0815" y2="0.5" gradientUnits="userSpaceOnUse">
<stop stop-color="#E2E1DD"/>
<stop offset="1" stop-color="#E2E1DD" stop-opacity="0"/>
</linearGradient>
<linearGradient id="paint23_linear_188_840" x1="0" y1="0.5" x2="64.0815" y2="0.5" gradientUnits="userSpaceOnUse">
<stop stop-color="#E2E1DD"/>
<stop offset="1" stop-color="#E2E1DD" stop-opacity="0"/>
</linearGradient>
<linearGradient id="paint24_linear_188_840" x1="0" y1="0.5" x2="64.0815" y2="0.5" gradientUnits="userSpaceOnUse">
<stop stop-color="#E2E1DD"/>
<stop offset="1" stop-color="#E2E1DD" stop-opacity="0"/>
</linearGradient>
<linearGradient id="paint25_linear_188_840" x1="0" y1="0.5" x2="64.0815" y2="0.5" gradientUnits="userSpaceOnUse">
<stop stop-color="#E2E1DD"/>
<stop offset="1" stop-color="#E2E1DD" stop-opacity="0"/>
</linearGradient>
<linearGradient id="paint26_linear_188_840" x1="0" y1="0.5" x2="64.0815" y2="0.5" gradientUnits="userSpaceOnUse">
<stop stop-color="#E2E1DD"/>
<stop offset="1" stop-color="#E2E1DD" stop-opacity="0"/>
</linearGradient>
<linearGradient id="paint27_linear_188_840" x1="0" y1="0.5" x2="64.0815" y2="0.5" gradientUnits="userSpaceOnUse">
<stop stop-color="#E2E1DD"/>
<stop offset="1" stop-color="#E2E1DD" stop-opacity="0"/>
</linearGradient>
<linearGradient id="paint28_linear_188_840" x1="0" y1="0.5" x2="64.0815" y2="0.5" gradientUnits="userSpaceOnUse">
<stop stop-color="#E2E1DD"/>
<stop offset="1" stop-color="#E2E1DD" stop-opacity="0"/>
</linearGradient>
<linearGradient id="paint29_linear_188_840" x1="0" y1="0.5" x2="64.0815" y2="0.5" gradientUnits="userSpaceOnUse">
<stop stop-color="#E2E1DD"/>
<stop offset="1" stop-color="#E2E1DD" stop-opacity="0"/>
</linearGradient>
<linearGradient id="paint30_linear_188_840" x1="0" y1="0.5" x2="64.0815" y2="0.5" gradientUnits="userSpaceOnUse">
<stop stop-color="#E2E1DD"/>
<stop offset="1" stop-color="#E2E1DD" stop-opacity="0"/>
</linearGradient>
<linearGradient id="paint31_linear_188_840" x1="0" y1="0.5" x2="64.0815" y2="0.5" gradientUnits="userSpaceOnUse">
<stop stop-color="#E2E1DD"/>
<stop offset="1" stop-color="#E2E1DD" stop-opacity="0"/>
</linearGradient>
<linearGradient id="paint32_linear_188_840" x1="0" y1="0.5" x2="64.0815" y2="0.5" gradientUnits="userSpaceOnUse">
<stop stop-color="#E2E1DD"/>
<stop offset="1" stop-color="#E2E1DD" stop-opacity="0"/>
</linearGradient>
<linearGradient id="paint33_linear_188_840" x1="0" y1="0.5" x2="64.0815" y2="0.5" gradientUnits="userSpaceOnUse">
<stop stop-color="#E2E1DD"/>
<stop offset="1" stop-color="#E2E1DD" stop-opacity="0"/>
</linearGradient>
<linearGradient id="paint34_linear_188_840" x1="0" y1="0.5" x2="64.0815" y2="0.5" gradientUnits="userSpaceOnUse">
<stop stop-color="#E2E1DD"/>
<stop offset="1" stop-color="#E2E1DD" stop-opacity="0"/>
</linearGradient>
<linearGradient id="paint35_linear_188_840" x1="0" y1="0.5" x2="64.0815" y2="0.5" gradientUnits="userSpaceOnUse">
<stop stop-color="#E2E1DD"/>
<stop offset="1" stop-color="#E2E1DD" stop-opacity="0"/>
</linearGradient>
<linearGradient id="paint36_linear_188_840" x1="0" y1="0.5" x2="64.0815" y2="0.5" gradientUnits="userSpaceOnUse">
<stop stop-color="#E2E1DD"/>
<stop offset="1" stop-color="#E2E1DD" stop-opacity="0"/>
</linearGradient>
<linearGradient id="paint37_linear_188_840" x1="0" y1="0.5" x2="64.0815" y2="0.5" gradientUnits="userSpaceOnUse">
<stop stop-color="#E2E1DD"/>
<stop offset="1" stop-color="#E2E1DD" stop-opacity="0"/>
</linearGradient>
<linearGradient id="paint38_linear_188_840" x1="0" y1="0.5" x2="64.0815" y2="0.5" gradientUnits="userSpaceOnUse">
<stop stop-color="#E2E1DD"/>
<stop offset="1" stop-color="#E2E1DD" stop-opacity="0"/>
</linearGradient>
<linearGradient id="paint39_linear_188_840" x1="0" y1="0.5" x2="64.0815" y2="0.5" gradientUnits="userSpaceOnUse">
<stop stop-color="#E2E1DD"/>
<stop offset="1" stop-color="#E2E1DD" stop-opacity="0"/>
</linearGradient>
<linearGradient id="paint40_linear_188_840" x1="0" y1="0.5" x2="64.0815" y2="0.5" gradientUnits="userSpaceOnUse">
<stop stop-color="#E2E1DD"/>
<stop offset="1" stop-color="#E2E1DD" stop-opacity="0"/>
</linearGradient>
<linearGradient id="paint41_linear_188_840" x1="0" y1="0.5" x2="64.0815" y2="0.5" gradientUnits="userSpaceOnUse">
<stop stop-color="#E2E1DD"/>
<stop offset="1" stop-color="#E2E1DD" stop-opacity="0"/>
</linearGradient>
<linearGradient id="paint42_linear_188_840" x1="0" y1="0.5" x2="64.0815" y2="0.5" gradientUnits="userSpaceOnUse">
<stop stop-color="#E2E1DD"/>
<stop offset="1" stop-color="#E2E1DD" stop-opacity="0"/>
</linearGradient>
<linearGradient id="paint43_linear_188_840" x1="0" y1="0.5" x2="64.0815" y2="0.5" gradientUnits="userSpaceOnUse">
<stop stop-color="#E2E1DD"/>
<stop offset="1" stop-color="#E2E1DD" stop-opacity="0"/>
</linearGradient>
<linearGradient id="paint44_linear_188_840" x1="0" y1="0.5" x2="64.0815" y2="0.5" gradientUnits="userSpaceOnUse">
<stop stop-color="#E2E1DD"/>
<stop offset="1" stop-color="#E2E1DD" stop-opacity="0"/>
</linearGradient>
<linearGradient id="paint45_linear_188_840" x1="0" y1="0.5" x2="64.0815" y2="0.5" gradientUnits="userSpaceOnUse">
<stop stop-color="#E2E1DD"/>
<stop offset="1" stop-color="#E2E1DD" stop-opacity="0"/>
</linearGradient>
<linearGradient id="paint46_linear_188_840" x1="0" y1="0.5" x2="64.0815" y2="0.5" gradientUnits="userSpaceOnUse">
<stop stop-color="#E2E1DD"/>
<stop offset="1" stop-color="#E2E1DD" stop-opacity="0"/>
</linearGradient>
<linearGradient id="paint47_linear_188_840" x1="0" y1="0.5" x2="64.0815" y2="0.5" gradientUnits="userSpaceOnUse">
<stop stop-color="#E2E1DD"/>
<stop offset="1" stop-color="#E2E1DD" stop-opacity="0"/>
</linearGradient>
<linearGradient id="paint48_linear_188_840" x1="0" y1="0.5" x2="64.0815" y2="0.5" gradientUnits="userSpaceOnUse">
<stop stop-color="#E2E1DD"/>
<stop offset="1" stop-color="#E2E1DD" stop-opacity="0"/>
</linearGradient>
<linearGradient id="paint49_linear_188_840" x1="0" y1="0.5" x2="64.0815" y2="0.5" gradientUnits="userSpaceOnUse">
<stop stop-color="#E2E1DD"/>
<stop offset="1" stop-color="#E2E1DD" stop-opacity="0"/>
</linearGradient>
<linearGradient id="paint50_linear_188_840" x1="0" y1="0.5" x2="64.0815" y2="0.5" gradientUnits="userSpaceOnUse">
<stop stop-color="#E2E1DD"/>
<stop offset="1" stop-color="#E2E1DD" stop-opacity="0"/>
</linearGradient>
<linearGradient id="paint51_linear_188_840" x1="0" y1="0.5" x2="64.0815" y2="0.5" gradientUnits="userSpaceOnUse">
<stop stop-color="#E2E1DD"/>
<stop offset="1" stop-color="#E2E1DD" stop-opacity="0"/>
</linearGradient>
<linearGradient id="paint52_linear_188_840" x1="0" y1="0.5" x2="64.0815" y2="0.5" gradientUnits="userSpaceOnUse">
<stop stop-color="#E2E1DD"/>
<stop offset="1" stop-color="#E2E1DD" stop-opacity="0"/>
</linearGradient>
<linearGradient id="paint53_linear_188_840" x1="0" y1="0.5" x2="64.0815" y2="0.5" gradientUnits="userSpaceOnUse">
<stop stop-color="#E2E1DD"/>
<stop offset="1" stop-color="#E2E1DD" stop-opacity="0"/>
</linearGradient>
<linearGradient id="paint54_linear_188_840" x1="0" y1="0.5" x2="64.0815" y2="0.5" gradientUnits="userSpaceOnUse">
<stop stop-color="#E2E1DD"/>
<stop offset="1" stop-color="#E2E1DD" stop-opacity="0"/>
</linearGradient>
<linearGradient id="paint55_linear_188_840" x1="0" y1="0.5" x2="64.0815" y2="0.5" gradientUnits="userSpaceOnUse">
<stop stop-color="#E2E1DD"/>
<stop offset="1" stop-color="#E2E1DD" stop-opacity="0"/>
</linearGradient>
<linearGradient id="paint56_linear_188_840" x1="0" y1="0.5" x2="64.0815" y2="0.5" gradientUnits="userSpaceOnUse">
<stop stop-color="#E2E1DD"/>
<stop offset="1" stop-color="#E2E1DD" stop-opacity="0"/>
</linearGradient>
<linearGradient id="paint57_linear_188_840" x1="0" y1="0.5" x2="64.0815" y2="0.5" gradientUnits="userSpaceOnUse">
<stop stop-color="#E2E1DD"/>
<stop offset="1" stop-color="#E2E1DD" stop-opacity="0"/>
</linearGradient>
<linearGradient id="paint58_linear_188_840" x1="0" y1="0.5" x2="64.0815" y2="0.5" gradientUnits="userSpaceOnUse">
<stop stop-color="#E2E1DD"/>
<stop offset="1" stop-color="#E2E1DD" stop-opacity="0"/>
</linearGradient>
<linearGradient id="paint59_linear_188_840" x1="0" y1="0.5" x2="64.0815" y2="0.5" gradientUnits="userSpaceOnUse">
<stop stop-color="#E2E1DD"/>
<stop offset="1" stop-color="#E2E1DD" stop-opacity="0"/>
</linearGradient>
<linearGradient id="paint60_linear_188_840" x1="0" y1="0.5" x2="64.0815" y2="0.5" gradientUnits="userSpaceOnUse">
<stop stop-color="#E2E1DD"/>
<stop offset="1" stop-color="#E2E1DD" stop-opacity="0"/>
</linearGradient>
<linearGradient id="paint61_linear_188_840" x1="0" y1="0.5" x2="64.0815" y2="0.5" gradientUnits="userSpaceOnUse">
<stop stop-color="#E2E1DD"/>
<stop offset="1" stop-color="#E2E1DD" stop-opacity="0"/>
</linearGradient>
<linearGradient id="paint62_linear_188_840" x1="0" y1="0.5" x2="64.0815" y2="0.5" gradientUnits="userSpaceOnUse">
<stop stop-color="#E2E1DD"/>
<stop offset="1" stop-color="#E2E1DD" stop-opacity="0"/>
</linearGradient>
<linearGradient id="paint63_linear_188_840" x1="0" y1="0.5" x2="64.0815" y2="0.5" gradientUnits="userSpaceOnUse">
<stop stop-color="#E2E1DD"/>
<stop offset="1" stop-color="#E2E1DD" stop-opacity="0"/>
</linearGradient>
<linearGradient id="paint64_linear_188_840" x1="0" y1="0.5" x2="64.0815" y2="0.5" gradientUnits="userSpaceOnUse">
<stop stop-color="#E2E1DD"/>
<stop offset="1" stop-color="#E2E1DD" stop-opacity="0"/>
</linearGradient>
<linearGradient id="paint65_linear_188_840" x1="0" y1="0.5" x2="64.0815" y2="0.5" gradientUnits="userSpaceOnUse">
<stop stop-color="#E2E1DD"/>
<stop offset="1" stop-color="#E2E1DD" stop-opacity="0"/>
</linearGradient>
<linearGradient id="paint66_linear_188_840" x1="0" y1="0.5" x2="64.0815" y2="0.5" gradientUnits="userSpaceOnUse">
<stop stop-color="#E2E1DD"/>
<stop offset="1" stop-color="#E2E1DD" stop-opacity="0"/>
</linearGradient>
<linearGradient id="paint67_linear_188_840" x1="0" y1="0.5" x2="64.0815" y2="0.5" gradientUnits="userSpaceOnUse">
<stop stop-color="#E2E1DD"/>
<stop offset="1" stop-color="#E2E1DD" stop-opacity="0"/>
</linearGradient>
<linearGradient id="paint68_linear_188_840" x1="0" y1="0.5" x2="64.0815" y2="0.5" gradientUnits="userSpaceOnUse">
<stop stop-color="#E2E1DD"/>
<stop offset="1" stop-color="#E2E1DD" stop-opacity="0"/>
</linearGradient>
<linearGradient id="paint69_linear_188_840" x1="0" y1="0.5" x2="64.0815" y2="0.5" gradientUnits="userSpaceOnUse">
<stop stop-color="#E2E1DD"/>
<stop offset="1" stop-color="#E2E1DD" stop-opacity="0"/>
</linearGradient>
<linearGradient id="paint70_linear_188_840" x1="0" y1="0.5" x2="64.0815" y2="0.5" gradientUnits="userSpaceOnUse">
<stop stop-color="#E2E1DD"/>
<stop offset="1" stop-color="#E2E1DD" stop-opacity="0"/>
</linearGradient>
<linearGradient id="paint71_linear_188_840" x1="0" y1="0.5" x2="64.0815" y2="0.5" gradientUnits="userSpaceOnUse">
<stop stop-color="#E2E1DD"/>
<stop offset="1" stop-color="#E2E1DD" stop-opacity="0"/>
</linearGradient>
<linearGradient id="paint72_linear_188_840" x1="0" y1="0.5" x2="64.0815" y2="0.5" gradientUnits="userSpaceOnUse">
<stop stop-color="#E2E1DD"/>
<stop offset="1" stop-color="#E2E1DD" stop-opacity="0"/>
</linearGradient>
<linearGradient id="paint73_linear_188_840" x1="0" y1="0.5" x2="64.0815" y2="0.5" gradientUnits="userSpaceOnUse">
<stop stop-color="#E2E1DD"/>
<stop offset="1" stop-color="#E2E1DD" stop-opacity="0"/>
</linearGradient>
<linearGradient id="paint74_linear_188_840" x1="0" y1="0.5" x2="64.0815" y2="0.5" gradientUnits="userSpaceOnUse">
<stop stop-color="#E2E1DD"/>
<stop offset="1" stop-color="#E2E1DD" stop-opacity="0"/>
</linearGradient>
<linearGradient id="paint75_linear_188_840" x1="0" y1="0.5" x2="64.0815" y2="0.5" gradientUnits="userSpaceOnUse">
<stop stop-color="#E2E1DD"/>
<stop offset="1" stop-color="#E2E1DD" stop-opacity="0"/>
</linearGradient>
<linearGradient id="paint76_linear_188_840" x1="0" y1="0.5" x2="64.0815" y2="0.5" gradientUnits="userSpaceOnUse">
<stop stop-color="#E2E1DD"/>
<stop offset="1" stop-color="#E2E1DD" stop-opacity="0"/>
</linearGradient>
<linearGradient id="paint77_linear_188_840" x1="0" y1="0.5" x2="64.0815" y2="0.5" gradientUnits="userSpaceOnUse">
<stop stop-color="#E2E1DD"/>
<stop offset="1" stop-color="#E2E1DD" stop-opacity="0"/>
</linearGradient>
<linearGradient id="paint78_linear_188_840" x1="0" y1="0.5" x2="64.0815" y2="0.5" gradientUnits="userSpaceOnUse">
<stop stop-color="#E2E1DD"/>
<stop offset="1" stop-color="#E2E1DD" stop-opacity="0"/>
</linearGradient>
<linearGradient id="paint79_linear_188_840" x1="0" y1="0.5" x2="64.0815" y2="0.5" gradientUnits="userSpaceOnUse">
<stop stop-color="#E2E1DD"/>
<stop offset="1" stop-color="#E2E1DD" stop-opacity="0"/>
</linearGradient>
<linearGradient id="paint80_linear_188_840" x1="0" y1="0.5" x2="64.0815" y2="0.5" gradientUnits="userSpaceOnUse">
<stop stop-color="#E2E1DD"/>
<stop offset="1" stop-color="#E2E1DD" stop-opacity="0"/>
</linearGradient>
<linearGradient id="paint81_linear_188_840" x1="0" y1="0.5" x2="64.0815" y2="0.5" gradientUnits="userSpaceOnUse">
<stop stop-color="#E2E1DD"/>
<stop offset="1" stop-color="#E2E1DD" stop-opacity="0"/>
</linearGradient>
<linearGradient id="paint82_linear_188_840" x1="0" y1="0.5" x2="64.0815" y2="0.5" gradientUnits="userSpaceOnUse">
<stop stop-color="#E2E1DD"/>
<stop offset="1" stop-color="#E2E1DD" stop-opacity="0"/>
</linearGradient>
<linearGradient id="paint83_linear_188_840" x1="0" y1="0.5" x2="64.0815" y2="0.5" gradientUnits="userSpaceOnUse">
<stop stop-color="#E2E1DD"/>
<stop offset="1" stop-color="#E2E1DD" stop-opacity="0"/>
</linearGradient>
<linearGradient id="paint84_linear_188_840" x1="0" y1="0.5" x2="64.0815" y2="0.5" gradientUnits="userSpaceOnUse">
<stop stop-color="#E2E1DD"/>
<stop offset="1" stop-color="#E2E1DD" stop-opacity="0"/>
</linearGradient>
<linearGradient id="paint85_linear_188_840" x1="0" y1="0.5" x2="64.0815" y2="0.5" gradientUnits="userSpaceOnUse">
<stop stop-color="#E2E1DD"/>
<stop offset="1" stop-color="#E2E1DD" stop-opacity="0"/>
</linearGradient>
<linearGradient id="paint86_linear_188_840" x1="0" y1="0.5" x2="64.0815" y2="0.5" gradientUnits="userSpaceOnUse">
<stop stop-color="#E2E1DD"/>
<stop offset="1" stop-color="#E2E1DD" stop-opacity="0"/>
</linearGradient>
<linearGradient id="paint87_linear_188_840" x1="0" y1="0.5" x2="64.0815" y2="0.5" gradientUnits="userSpaceOnUse">
<stop stop-color="#E2E1DD"/>
<stop offset="1" stop-color="#E2E1DD" stop-opacity="0"/>
</linearGradient>
<linearGradient id="paint88_linear_188_840" x1="0" y1="0.5" x2="64.0815" y2="0.5" gradientUnits="userSpaceOnUse">
<stop stop-color="#E2E1DD"/>
<stop offset="1" stop-color="#E2E1DD" stop-opacity="0"/>
</linearGradient>
<linearGradient id="paint89_linear_188_840" x1="0" y1="0.5" x2="64.0815" y2="0.5" gradientUnits="userSpaceOnUse">
<stop stop-color="#E2E1DD"/>
<stop offset="1" stop-color="#E2E1DD" stop-opacity="0"/>
</linearGradient>
<linearGradient id="paint90_linear_188_840" x1="0" y1="0.5" x2="64.0815" y2="0.5" gradientUnits="userSpaceOnUse">
<stop stop-color="#E2E1DD"/>
<stop offset="1" stop-color="#E2E1DD" stop-opacity="0"/>
</linearGradient>
<linearGradient id="paint91_linear_188_840" x1="0" y1="0.5" x2="64.0815" y2="0.5" gradientUnits="userSpaceOnUse">
<stop stop-color="#E2E1DD"/>
<stop offset="1" stop-color="#E2E1DD" stop-opacity="0"/>
</linearGradient>
<linearGradient id="paint92_linear_188_840" x1="0" y1="0.5" x2="64.0815" y2="0.5" gradientUnits="userSpaceOnUse">
<stop stop-color="#E2E1DD"/>
<stop offset="1" stop-color="#E2E1DD" stop-opacity="0"/>
</linearGradient>
<linearGradient id="paint93_linear_188_840" x1="0" y1="0.5" x2="64.0815" y2="0.5" gradientUnits="userSpaceOnUse">
<stop stop-color="#E2E1DD"/>
<stop offset="1" stop-color="#E2E1DD" stop-opacity="0"/>
</linearGradient>
<linearGradient id="paint94_linear_188_840" x1="0" y1="0.5" x2="64.0815" y2="0.5" gradientUnits="userSpaceOnUse">
<stop stop-color="#E2E1DD"/>
<stop offset="1" stop-color="#E2E1DD" stop-opacity="0"/>
</linearGradient>
</defs>
</svg>
