<svg width="214" height="28" viewBox="0 0 214 28" fill="none" xmlns="http://www.w3.org/2000/svg">
<g clip-path="url(#clip0_1_2586)">
<path d="M117.476 12.9156V20.7762H114.589V13.435C114.589 11.6472 113.82 10.6484 112.322 10.6484C110.824 10.6484 109.835 11.6971 109.555 13.455C109.475 13.8745 109.455 14.5237 109.455 15.892V20.7662H106.569V8.28121H109.126C109.136 8.39108 109.196 9.50973 109.196 9.57965C109.196 9.66954 109.306 9.71948 109.375 9.65955C110.434 8.82056 111.603 8.0415 113.231 8.0415C115.908 8.0415 117.476 9.84932 117.476 12.9156Z" fill="#656565"/>
<path d="M101.914 8.29098L101.824 9.71926C101.814 9.80915 101.704 9.85909 101.645 9.79916C101.295 9.46956 100.007 8.05127 97.8195 8.05127C94.6832 8.05127 92.376 10.758 92.376 14.4336C92.376 18.1591 94.6633 20.8758 97.8195 20.8758C99.9269 20.8758 101.215 19.5075 101.455 19.2078C101.525 19.1279 101.655 19.1779 101.655 19.2777C101.625 19.6573 101.575 20.6061 101.255 21.4152C100.856 22.4339 99.9569 23.3828 98.1491 23.3828C96.6609 23.3828 95.3424 22.8135 94.0939 21.5949L92.5858 23.6625C93.9541 25.2106 96.1115 26.0795 98.4587 26.0795C102.234 26.0795 104.501 23.4927 104.501 19.2678V8.29098H101.914ZM98.4387 18.259C96.571 18.259 95.2526 16.6409 95.2526 14.4336C95.2526 12.2262 96.571 10.6481 98.4387 10.6481C100.306 10.6481 101.625 12.2163 101.625 14.4336C101.615 16.6509 100.296 18.259 98.4387 18.259Z" fill="#656565"/>
<path d="M86.343 17.0702C86.343 19.4373 84.3554 21.0254 81.4389 21.0254C79.1517 21.0254 77.1141 20.1365 75.8956 18.868L76.8444 16.6107C77.7633 17.4397 79.2415 18.6283 81.349 18.6283C82.8172 18.6283 83.6662 17.9791 83.6662 17.1601C83.6662 16.2112 82.4976 15.9615 81.0993 15.6918C79.1117 15.2723 76.4749 14.5932 76.4749 11.8864C76.4749 9.61916 78.3127 8.06104 81.0294 8.06104C83.1169 8.06104 84.9147 8.86007 86.1532 9.89882L84.7349 11.8864C83.5364 10.9376 82.2779 10.4681 81.0294 10.4681C79.7809 10.4681 79.1616 10.9875 79.1616 11.7366C79.1616 12.7853 80.51 13.055 81.4988 13.2548C83.9858 13.7342 86.343 14.4833 86.343 17.0702Z" fill="#656565"/>
<path d="M44.1341 8.0415C40.6083 8.0415 38.0714 10.7782 38.0714 14.5337C38.0714 18.2892 40.6083 21.0259 44.1341 21.0259C47.6599 21.0259 50.2068 18.2892 50.2068 14.5337C50.2068 10.7782 47.6698 8.0415 44.1341 8.0415ZM44.1341 18.409C42.2663 18.409 40.9479 16.8209 40.9479 14.5237C40.9479 12.2364 42.2364 10.6384 44.1341 10.6384C46.0218 10.6384 47.3203 12.2265 47.3203 14.5237C47.3203 16.8209 46.0018 18.409 44.1341 18.409Z" fill="#656565"/>
<path d="M51.2255 14.5337C51.2255 10.8282 53.7625 8.0415 57.1484 8.0415C59.8351 8.0415 61.8028 9.38988 62.7217 11.9268L60.1647 12.8957C59.4656 11.3275 58.5467 10.6584 57.1584 10.6584C55.4205 10.6584 54.122 12.2964 54.122 14.5437C54.122 16.781 55.4105 18.429 57.1584 18.429C58.5567 18.429 59.4656 17.7598 60.1647 16.1917L62.7217 17.1605C61.8028 19.6975 59.8351 21.0458 57.1484 21.0458C53.7625 21.0259 51.2255 18.2392 51.2255 14.5337Z" fill="#656565"/>
<path d="M35.7936 2.48779C35.7436 2.48779 35.6837 2.49778 35.6338 2.52774L33.756 3.52654C33.7161 3.54652 33.6961 3.58647 33.6961 3.62642V9.56926C33.6961 9.66914 33.5763 9.70909 33.5063 9.64916C33.2267 9.40945 32.5775 8.80019 31.6785 8.38069C31.2091 8.16096 30.5199 8.0411 29.8907 8.0411C26.7345 8.0411 24.4473 10.7778 24.4473 14.5333C24.4473 18.2887 26.7345 21.0255 29.8907 21.0255C31.5487 21.0255 32.7972 20.1565 33.5563 19.3774C33.6062 19.3275 33.6362 19.2975 33.6861 19.2476C33.756 19.1777 33.8759 19.2176 33.8759 19.3175L33.9758 20.7758H36.5826V2.5677C36.5826 2.52774 36.5527 2.48779 36.5027 2.48779H35.7936ZM30.5099 18.4086C28.6222 18.4086 27.3238 16.8205 27.3238 14.5233C27.3238 12.2261 28.6522 10.648 30.5099 10.648C32.3777 10.648 33.6961 12.236 33.6961 14.5333C33.6961 16.8205 32.4077 18.4086 30.5099 18.4086Z" fill="#656565"/>
<path d="M89.7389 8.33119L87.9311 9.29003C87.8911 9.31001 87.8712 9.34996 87.8712 9.38991V20.7762H90.7577V8.36115C90.7577 8.3212 90.7277 8.28125 90.6778 8.28125H89.8987C89.8388 8.29124 89.7889 8.30123 89.7389 8.33119Z" fill="#656565"/>
<path d="M89.3092 6.26341C90.2681 6.26341 91.0471 5.48435 91.0471 4.5255C91.0471 3.56666 90.2681 2.7876 89.3092 2.7876C88.3504 2.7876 87.5713 3.56666 87.5713 4.5255C87.5713 5.48435 88.3504 6.26341 89.3092 6.26341Z" fill="#656565"/>
<path d="M74.8566 8.28125V15.0631C74.8566 20.2069 71.9801 21.0159 69.4132 21.0159C66.8462 21.0159 63.9697 20.1969 63.9697 15.0631V8.28125H66.8462V15.7822C66.8462 16.5113 67.026 18.409 69.4132 18.409C71.8003 18.409 71.9801 16.5213 71.9801 15.7822V8.28125H74.8566Z" fill="#656565"/>
<path d="M119.124 19.4976V19.6773H118.714V20.766H118.514V19.6773H118.105V19.4976H119.124ZM120.552 20.766H120.352V19.7672L119.963 20.5163H119.853L119.463 19.7772V20.766H119.263V19.4976H119.523L119.903 20.2267L120.282 19.4976H120.542L120.552 20.766Z" fill="#656565"/>
<path d="M14.6296 15.8911V20.8351C14.6296 21.0948 14.4199 21.3046 14.1602 21.3046H1.16585C0.906158 21.3046 0.696411 21.0948 0.696411 20.8351V7.85078C0.696411 7.5911 0.906158 7.38135 1.16585 7.38135H6.0999V15.4217C6.0999 15.6813 6.30965 15.8911 6.56934 15.8911H14.6296Z" fill="#656565"/>
<path d="M20.0435 8.91991C20.0435 13.0749 17.6165 15.8815 14.6301 15.8915V10.6578C14.6301 10.508 14.5701 10.3582 14.4603 10.2583L11.7436 7.54157C11.6337 7.43171 11.4939 7.37178 11.344 7.37178H6.11035V2.43772C6.11035 2.17804 6.3201 1.96829 6.57978 1.96829H13.901C17.3768 1.9583 20.0435 4.75493 20.0435 8.91991Z" fill="#656565"/>
</g>
<g clip-path="url(#clip1_1_2586)">
<path d="M208.474 19.5553C208.291 19.5553 208.165 19.4314 208.165 19.2534V10.4059H205.085C204.902 10.4059 204.776 10.2826 204.776 10.1043V8.8839C204.776 8.70517 204.902 8.58157 205.085 8.58157H213.283C213.466 8.58157 213.592 8.7053 213.592 8.8839V10.1042C213.592 10.2824 213.466 10.4059 213.283 10.4059H210.204V19.2532C210.204 19.4314 210.077 19.5553 209.894 19.5553H208.474ZM184.881 15.1382L183.265 10.6119L181.633 15.1382H184.881ZM188.467 19.1978C188.538 19.3766 188.425 19.5553 188.228 19.5553H186.766C186.555 19.5553 186.428 19.4596 186.358 19.2666L185.529 16.9356H180.987L180.156 19.2666C180.087 19.4596 179.96 19.5553 179.749 19.5553H178.371C178.188 19.5553 178.062 19.3765 178.132 19.1978L181.943 8.85643C182.013 8.66377 182.14 8.58203 182.35 8.58203H184.234C184.446 8.58203 184.586 8.66383 184.657 8.85643L188.467 19.1978ZM199.39 18.0736C200.29 18.0736 200.895 17.6491 201.387 16.9218L199.109 14.5347C198.237 15.0152 197.674 15.4946 197.674 16.4551C197.674 17.4017 198.461 18.0736 199.39 18.0736ZM200.023 10.0355C199.292 10.0355 198.87 10.4886 198.87 11.092C198.87 11.5583 199.123 11.9698 199.699 12.5736C200.697 12.0108 201.12 11.668 201.12 11.0647C201.12 10.5018 200.754 10.0355 200.023 10.0355ZM206.253 19.1712C206.435 19.3634 206.323 19.5553 206.097 19.5553H204.311C204.072 19.5553 203.946 19.5002 203.791 19.3216L202.723 18.1699C202.006 19.1028 201.006 19.8021 199.348 19.8021C197.295 19.8021 195.677 18.5951 195.677 16.5242C195.677 14.9326 196.549 14.082 197.871 13.3688C197.224 12.6419 196.929 11.8737 196.929 11.202C196.929 9.50063 198.153 8.3349 199.994 8.3349C201.879 8.3349 203.032 9.4189 203.032 11.0234C203.032 12.3951 202.02 13.1626 200.951 13.7391L202.526 15.3994L203.412 13.89C203.524 13.7119 203.651 13.6431 203.875 13.6431H205.239C205.464 13.6431 205.591 13.7944 205.451 14.0274L203.875 16.6606L206.253 19.1712ZM192.219 19.5553C192.402 19.5553 192.529 19.4314 192.529 19.2534V10.4059H195.608C195.791 10.4059 195.918 10.2826 195.918 10.1043V8.8839C195.918 8.70517 195.791 8.58157 195.608 8.58157H187.41C187.227 8.58157 187.101 8.7053 187.101 8.8839V10.1042C187.101 10.2824 187.227 10.4059 187.41 10.4059H190.489V19.2532C190.489 19.4314 190.616 19.5553 190.799 19.5553H192.219Z" fill="#5B5B5B"/>
<path d="M150.604 24.8915C152.988 26.6929 155.982 27.7753 159.229 27.7753C162.783 27.7753 166.023 26.4877 168.495 24.3741C168.525 24.3483 168.511 24.3312 168.481 24.3483C167.372 25.0714 164.209 26.6499 159.229 26.6499C154.901 26.6499 152.166 25.7076 150.622 24.8663C150.592 24.8521 150.581 24.8737 150.604 24.8915ZM160.184 25.5929C163.645 25.5929 167.449 24.6721 169.724 22.8493C170.347 22.3527 170.94 21.6917 171.471 20.8035C171.776 20.2923 172.075 19.6851 172.319 19.0883C172.33 19.0591 172.311 19.045 172.289 19.0777C170.173 22.1157 164.047 24.0107 157.722 24.0107C153.251 24.0107 148.44 22.6154 146.556 19.9513C146.538 19.9267 146.519 19.9372 146.53 19.9655C148.285 23.6048 153.608 25.5929 160.184 25.5929ZM156.402 19.5555C149.203 19.5555 145.808 16.2835 145.193 14.0507C145.185 14.0183 145.163 14.0254 145.163 14.0545C145.163 14.8061 145.24 15.7762 145.373 16.4201C145.436 16.7335 145.698 17.2254 146.081 17.6175C147.824 19.3907 152.17 21.8753 159.697 21.8753C169.952 21.8753 172.297 18.5417 172.776 17.4455C173.118 16.6615 173.295 15.2447 173.295 14.0545C173.295 13.7665 173.288 13.5365 173.277 13.3106C173.277 13.274 173.255 13.271 173.248 13.3067C172.735 15.9891 163.973 19.5555 156.402 19.5555ZM146.519 8.16821C146.107 8.96715 145.649 10.3149 145.513 11.0125C145.454 11.3113 145.479 11.4549 145.587 11.6779C146.449 13.4645 150.814 16.3229 160.995 16.3229C167.206 16.3229 172.031 14.8339 172.812 12.1166C172.956 11.6163 172.964 11.0883 172.779 10.3766C172.572 9.58141 172.186 8.65401 171.858 8.00288C171.847 7.98168 171.828 7.98481 171.832 8.00988C171.954 11.5739 161.769 13.8708 156.63 13.8708C151.064 13.8708 146.42 11.7066 146.42 8.97395C146.42 8.71141 146.476 8.44875 146.545 8.17548C146.552 8.15048 146.53 8.14635 146.519 8.16821ZM168.518 3.79243C168.577 3.88282 168.607 3.97928 168.607 4.10913C168.607 5.63363 163.826 8.33055 156.214 8.33055C150.622 8.33055 149.575 6.30601 149.575 5.01851C149.575 4.55828 149.756 4.08737 150.154 3.60911C150.176 3.58067 150.157 3.56972 150.132 3.59088C149.406 4.19171 148.738 4.86777 148.153 5.59757C147.873 5.94271 147.699 6.24847 147.699 6.43165C147.699 9.09981 154.555 11.0343 160.965 11.0343C167.796 11.0343 170.844 8.85841 170.844 6.94615C170.844 6.26275 170.572 5.86381 169.874 5.09035C169.422 4.58719 168.993 4.17749 168.54 3.7742C168.518 3.75658 168.503 3.77093 168.518 3.79243ZM166.424 2.26827C164.316 1.03523 161.868 0.33374 159.229 0.33374C156.572 0.33374 154.05 1.05974 151.934 2.32541C151.3 2.70653 150.943 3.01195 150.943 3.40456C150.943 4.56189 153.714 5.80626 158.632 5.80626C163.498 5.80626 167.272 4.44325 167.272 3.13125C167.272 2.81809 166.992 2.59899 166.424 2.26827Z" fill="#5B5B5B"/>
</g>
<defs>
<clipPath id="clip0_1_2586">
<rect width="121" height="25" fill="white" transform="translate(0 1.5)"/>
</clipPath>
<clipPath id="clip1_1_2586">
<rect width="69" height="28" fill="white" transform="translate(145)"/>
</clipPath>
</defs>
</svg>
