<svg width="107" height="25" viewBox="0 0 107 25" fill="none" xmlns="http://www.w3.org/2000/svg">
<path d="M14.6979 11.4514C15.6589 11.4514 16.4379 10.6734 16.4379 9.71375C16.4379 8.75406 15.6589 7.97607 14.6979 7.97607C13.737 7.97607 12.958 8.75406 12.958 9.71375C12.958 10.6734 13.737 11.4514 14.6979 11.4514Z" fill="#A1A1A1"/>
<path d="M5.62297 11.0606C6.36775 11.0606 6.97152 10.4576 6.97152 9.71375C6.97152 8.96993 6.36775 8.36694 5.62297 8.36694C4.87818 8.36694 4.27441 8.96993 4.27441 9.71375C4.27441 10.4576 4.87818 11.0606 5.62297 11.0606Z" fill="#A1A1A1"/>
<path d="M11.752 12.6215C11.884 11.8097 11.332 11.0447 10.5191 10.9129C9.70616 10.7811 8.94021 11.3324 8.80826 12.1443C8.6763 12.9561 9.22832 13.7211 10.0412 13.8529C10.8541 13.9847 11.6201 13.4334 11.752 12.6215Z" fill="#A1A1A1"/>
<path d="M1.08461 13.4648C1.68362 13.4648 2.16921 12.9798 2.16921 12.3816C2.16921 11.7834 1.68362 11.2984 1.08461 11.2984C0.485595 11.2984 0 11.7834 0 12.3816C0 12.9798 0.485595 13.4648 1.08461 13.4648Z" fill="#A1A1A1"/>
<path d="M14.6979 6.11426C15.6589 6.11426 16.4379 5.33628 16.4379 4.37659C16.4379 3.4169 15.6589 2.63892 14.6979 2.63892C13.737 2.63892 12.958 3.4169 12.958 4.37659C12.958 5.33628 13.737 6.11426 14.6979 6.11426Z" fill="#A1A1A1"/>
<path d="M5.62297 5.7234C6.36775 5.7234 6.97152 5.12042 6.97152 4.3766C6.97152 3.63277 6.36775 3.02979 5.62297 3.02979C4.87818 3.02979 4.27441 3.63277 4.27441 4.3766C4.27441 5.12042 4.87818 5.7234 5.62297 5.7234Z" fill="#A1A1A1"/>
<path d="M11.751 7.2849C11.883 6.47305 11.331 5.70809 10.5181 5.57631C9.70518 5.44453 8.93923 5.99583 8.80728 6.80767C8.67533 7.61952 9.22734 8.38448 10.0402 8.51626C10.8531 8.64804 11.6191 8.09674 11.751 7.2849Z" fill="#A1A1A1"/>
<path d="M11.752 1.94719C11.884 1.13534 11.332 0.37038 10.5191 0.238599C9.70616 0.106818 8.94021 0.65812 8.80826 1.46997C8.6763 2.28181 9.22832 3.04677 10.0412 3.17855C10.8541 3.31033 11.6201 2.75903 11.752 1.94719Z" fill="#A1A1A1"/>
<path d="M1.08461 8.12759C1.68362 8.12759 2.16921 7.64262 2.16921 7.04439C2.16921 6.44615 1.68362 5.96118 1.08461 5.96118C0.485595 5.96118 0 6.44615 0 7.04439C0 7.64262 0.485595 8.12759 1.08461 8.12759Z" fill="#A1A1A1"/>
<path d="M19.3167 14.4132C20.4401 14.4132 21.3509 13.5036 21.3509 12.3816C21.3509 11.2596 20.4401 10.35 19.3167 10.35C18.1932 10.35 17.2825 11.2596 17.2825 12.3816C17.2825 13.5036 18.1932 14.4132 19.3167 14.4132Z" fill="#A1A1A1"/>
<path d="M19.3167 9.07597C20.4401 9.07597 21.3509 8.1664 21.3509 7.0444C21.3509 5.92239 20.4401 5.01282 19.3167 5.01282C18.1932 5.01282 17.2825 5.92239 17.2825 7.0444C17.2825 8.1664 18.1932 9.07597 19.3167 9.07597Z" fill="#A1A1A1"/>
<path d="M15.9274 16.2783C16.6069 15.5997 16.6069 14.4995 15.9274 13.8209C15.2479 13.1423 14.1462 13.1423 13.4668 13.8209C12.7873 14.4995 12.7873 15.5997 13.4668 16.2783C14.1462 16.9569 15.2479 16.9569 15.9274 16.2783Z" fill="#A1A1A1"/>
<path d="M5.62297 16.3963C6.36775 16.3963 6.97152 15.7933 6.97152 15.0494C6.97152 14.3056 6.36775 13.7026 5.62297 13.7026C4.87818 13.7026 4.27441 14.3056 4.27441 15.0494C4.27441 15.7933 4.87818 16.3963 5.62297 16.3963Z" fill="#A1A1A1"/>
<path d="M15.9273 21.6159C16.6067 20.9373 16.6067 19.8371 15.9273 19.1585C15.2478 18.4799 14.1461 18.4799 13.4666 19.1585C12.7872 19.8371 12.7872 20.9373 13.4666 21.6159C14.1461 22.2945 15.2478 22.2945 15.9273 21.6159Z" fill="#A1A1A1"/>
<path d="M5.62297 21.7337C6.36775 21.7337 6.97152 21.1307 6.97152 20.3868C6.97152 19.643 6.36775 19.04 5.62297 19.04C4.87818 19.04 4.27441 19.643 4.27441 20.3868C4.27441 21.1307 4.87818 21.7337 5.62297 21.7337Z" fill="#A1A1A1"/>
<path d="M11.657 18.2888C11.9721 17.529 11.6108 16.6578 10.85 16.3431C10.0891 16.0283 9.21684 16.3892 8.90169 17.149C8.58654 17.9089 8.94784 18.7801 9.70869 19.0948C10.4695 19.4095 11.3418 19.0487 11.657 18.2888Z" fill="#A1A1A1"/>
<path d="M11.656 23.624C11.9711 22.8642 11.6098 21.993 10.849 21.6783C10.0881 21.3635 9.21587 21.7244 8.90071 22.4843C8.58556 23.2441 8.94687 24.1153 9.70771 24.43C10.4686 24.7448 11.3408 24.3839 11.656 23.624Z" fill="#A1A1A1"/>
<path d="M1.08461 18.802C1.68362 18.802 2.16921 18.3171 2.16921 17.7188C2.16921 17.1206 1.68362 16.6356 1.08461 16.6356C0.485595 16.6356 0 17.1206 0 17.7188C0 18.3171 0.485595 18.802 1.08461 18.802Z" fill="#A1A1A1"/>
<path d="M19.3167 19.7504C20.4401 19.7504 21.3509 18.8408 21.3509 17.7188C21.3509 16.5968 20.4401 15.6873 19.3167 15.6873C18.1932 15.6873 17.2825 16.5968 17.2825 17.7188C17.2825 18.8408 18.1932 19.7504 19.3167 19.7504Z" fill="#A1A1A1"/>
<path d="M48.2344 9.92554C50.9998 9.92567 53.2607 12.0506 53.2607 14.9314C53.2607 17.8121 50.9997 19.9361 48.2344 19.9363C45.4694 19.9363 43.2071 17.8324 43.207 14.9314C43.207 12.0303 45.4694 9.92554 48.2344 9.92554ZM48.2344 12.2175C46.8937 12.2175 45.7208 13.3215 45.7207 14.9294C45.7207 16.5376 46.8936 17.6414 48.2344 17.6414C49.5758 17.6412 50.748 16.5534 50.748 14.9294C50.7479 13.3057 49.5757 12.2177 48.2344 12.2175Z" fill="#A1A1A1" stroke="#A1A1A1" stroke-width="0.4"/>
<path d="M58.6464 9.92554C61.4118 9.92567 63.6727 12.0506 63.6727 14.9314C63.6726 17.8121 61.4117 19.9361 58.6464 19.9363C55.8814 19.9363 53.6191 17.8308 53.619 14.9314C53.619 12.0319 55.8813 9.92554 58.6464 9.92554ZM58.6464 12.2175C57.3057 12.2175 56.1328 13.3215 56.1327 14.9294C56.1327 16.5376 57.3056 17.6414 58.6464 17.6414C59.9878 17.6412 61.16 16.5534 61.16 14.9294C61.1599 13.3057 59.9877 12.2177 58.6464 12.2175Z" fill="#A1A1A1" stroke="#A1A1A1" stroke-width="0.4"/>
<path d="M68.837 9.92554C69.8486 9.92563 70.6933 10.3029 71.2423 10.7859V10.2185H73.6495V19.0427C73.6495 20.8568 73.113 22.1639 72.2316 23.0164C71.352 23.867 70.1541 24.2409 68.8781 24.241C66.4443 24.241 64.9801 22.6127 64.4288 21.2859L64.3517 21.1013L64.5363 21.0242L66.3771 20.2595L66.5607 20.1833L66.6378 20.3669C66.9471 21.1049 67.6929 21.949 68.8761 21.949C69.6268 21.949 70.2108 21.7184 70.6085 21.2937C71.0079 20.8671 71.2443 20.2171 71.2443 19.3318V19.0603C70.6957 19.5556 69.8512 19.9333 68.837 19.9333C66.3195 19.9333 64.0265 17.7689 64.0265 14.948C64.0265 12.129 66.3175 9.92554 68.837 9.92554ZM69.0265 12.2195C67.6921 12.2195 66.547 13.371 66.547 14.948C66.5471 16.5217 67.6891 17.6414 69.0265 17.6414C70.3352 17.6412 71.3946 16.5478 71.3947 14.948C71.3947 13.3437 70.351 12.2196 69.0265 12.2195Z" fill="#A1A1A1" stroke="#A1A1A1" stroke-width="0.4"/>
<path d="M76.958 5.15942V19.6409H74.498V5.15942H76.958Z" fill="#A1A1A1" stroke="#A1A1A1" stroke-width="0.4"/>
<path d="M82.1865 9.92261C84.8057 9.92282 86.0768 12.0032 86.4883 13.1052L86.707 13.6511L86.7803 13.8347L86.5977 13.9099L80.373 16.4841C80.5868 16.8445 80.8432 17.1165 81.1436 17.3054C81.494 17.5258 81.9156 17.6413 82.4209 17.6414C83.4168 17.6414 84.107 17.1592 84.625 16.3992L84.7373 16.2351L84.9014 16.3455L86.541 17.4373L86.709 17.5486L86.5967 17.7156C86.0473 18.5284 84.7172 19.9333 82.4209 19.9333C79.5759 19.9332 77.4474 17.7311 77.4473 14.9285C77.4473 11.9657 79.5743 9.92261 82.1865 9.92261ZM82.2578 12.1814C81.3368 12.1814 80.0547 12.9537 79.9492 14.4812L83.7676 12.8972C83.5073 12.483 82.9446 12.1815 82.2578 12.1814Z" fill="#A1A1A1" stroke="#A1A1A1" stroke-width="0.4"/>
<path d="M35.6094 4.61255C37.9478 4.61255 39.6172 5.53143 40.8672 6.72388L41.0156 6.86548L40.8711 7.01001L39.4297 8.44946L39.293 8.58618L39.1514 8.45337C38.3067 7.66257 37.1703 7.052 35.6064 7.052C32.7138 7.0522 30.4494 9.3785 30.4492 12.2737C30.4492 15.169 32.7137 17.4961 35.6064 17.4963C37.4922 17.4963 38.555 16.7451 39.2383 16.0627C39.738 15.5623 40.0857 14.8544 40.25 13.8811H35.4072V11.6418H35.6064V11.4456H42.6523L42.6826 11.6086C42.7521 11.9778 42.7881 12.4115 42.7881 12.8752C42.7881 14.4319 42.3616 16.3824 40.9639 17.7805L40.9648 17.7815C39.6122 19.1886 37.8804 19.9348 35.6094 19.9348C31.3861 19.9346 27.8311 16.4996 27.8311 12.2737C27.8312 8.04795 31.3862 4.6128 35.6094 4.61255Z" fill="#A1A1A1" stroke="#A1A1A1" stroke-width="0.4"/>
<path d="M98.1523 5.93481L98.1865 6.03638L102.85 19.6838L102.918 19.8821H100.715L100.681 19.7805L99.2559 15.5901H94.626L93.2402 19.7795L93.207 19.8821H91.0635L91.1318 19.6838L95.7744 6.03735L95.8096 5.93481H98.1523ZM96.9307 8.16138C96.7601 8.81995 96.5752 9.49014 96.3633 10.1604L96.3623 10.1633L95.0918 13.9133H98.7881L97.5176 10.1829C97.2736 9.46661 97.0964 8.80128 96.9307 8.16138Z" fill="#A1A1A1" stroke="#A1A1A1" stroke-width="0.3"/>
<path d="M106.629 5.93481V19.8821H104.564V5.93481H106.629Z" fill="#A1A1A1" stroke="#A1A1A1" stroke-width="0.3"/>
</svg>
