<svg width="43" height="47" viewBox="0 0 43 47" fill="none" xmlns="http://www.w3.org/2000/svg">
<g filter="url(#filter0_dddd_188_3699)">
<path d="M25.5001 0.612793C23.7825 0.612793 22.4185 1.98242 22.4185 3.66939C22.4185 5.37307 23.7993 6.726 25.5001 6.726C27.2177 6.726 28.5817 5.35637 28.5817 3.66939C28.5649 1.99912 27.2009 0.612793 25.5001 0.612793Z" fill="url(#paint0_linear_188_3699)"/>
</g>
<g filter="url(#filter1_dddd_188_3699)">
<path d="M33.853 12.0208C34.3918 11.4529 34.7455 10.6846 34.7455 9.83273V9.73251C34.7455 8.07894 33.3983 6.74272 31.7312 6.74272H31.647C29.9293 6.74272 28.5485 8.11235 28.5485 9.79932C28.5485 10.6512 28.9021 11.4028 29.441 11.9707L30.4009 12.9227C31.0913 13.6075 31.0913 14.6932 30.4009 15.3613L29.441 16.3134C28.8685 16.8813 28.5485 17.6329 28.5485 18.4847V19.821C28.5485 20.773 27.7739 21.5414 26.814 21.5414H25.4669C24.608 21.5414 23.8503 21.8921 23.2777 22.4266L22.3179 23.3787C21.6274 24.0635 20.5329 24.0635 19.8593 23.3787L18.8994 22.4266C18.3269 21.8587 17.5691 21.5414 16.7103 21.5414H15.3631C14.4032 21.5414 13.6286 20.773 13.6286 19.821V18.4847C13.6286 17.6329 13.275 16.8813 12.7361 16.3134L11.7763 15.3613C11.0858 14.6765 11.0858 13.5908 11.7763 12.9227L12.7361 11.9707C13.3087 11.4028 13.6286 10.6512 13.6286 9.79932V8.4631C13.6286 7.51105 14.4032 6.74272 15.3631 6.74272H16.7103C18.4279 6.74272 19.7919 5.3731 19.7919 3.68612C19.7919 1.99914 18.4111 0.629517 16.7103 0.629517C14.9926 0.629517 13.6286 1.99914 13.6286 3.68612V5.02234C13.6286 5.97439 12.854 6.74272 11.8941 6.74272H10.547C8.82934 6.74272 7.46533 8.11235 7.46533 9.79932C7.46533 10.6512 7.81896 11.4028 8.35783 11.9707L9.31769 12.9227C10.0081 13.6075 10.0081 14.6932 9.31769 15.3613L8.35783 16.3134C7.8358 16.8813 7.48217 17.6496 7.48217 18.4847C7.48217 20.1884 8.86302 21.5414 10.5638 21.5414H11.911C12.8708 21.5414 13.6455 22.3097 13.6455 23.2617V24.598C13.6455 26.3016 15.0263 27.6546 16.7271 27.6546C17.5859 27.6546 18.3437 27.3038 18.9163 26.7693L19.8761 25.8173C20.5665 25.1324 21.6611 25.1324 22.3347 25.8173L23.2945 26.7693C23.8334 27.3372 24.6249 27.6713 25.4669 27.6713C27.1845 27.6713 28.5485 26.3016 28.5485 24.6147V23.2784C28.5485 22.3264 29.3231 21.5581 30.283 21.5581H31.647C33.3646 21.5581 34.7286 20.1884 34.7286 18.5015C34.7286 17.6496 34.375 16.898 33.8361 16.3301L32.8763 15.378C32.1859 14.6932 32.1859 13.6075 32.8763 12.9394L33.8361 12.0041L33.853 12.0208Z" fill="url(#paint1_linear_188_3699)"/>
</g>
<defs>
<filter id="filter0_dddd_188_3699" x="14.9532" y="-5.38826e-05" width="21.0936" height="25.476" filterUnits="userSpaceOnUse" color-interpolation-filters="sRGB">
<feFlood flood-opacity="0" result="BackgroundImageFix"/>
<feColorMatrix in="SourceAlpha" type="matrix" values="0 0 0 0 0 0 0 0 0 0 0 0 0 0 0 0 0 0 127 0" result="hardAlpha"/>
<feOffset dy="0.542535"/>
<feGaussianBlur stdDeviation="0.461155"/>
<feColorMatrix type="matrix" values="0 0 0 0 0.00400944 0 0 0 0 0.162354 0 0 0 0 0.101711 0 0 0 0.13 0"/>
<feBlend mode="normal" in2="BackgroundImageFix" result="effect1_dropShadow_188_3699"/>
<feColorMatrix in="SourceAlpha" type="matrix" values="0 0 0 0 0 0 0 0 0 0 0 0 0 0 0 0 0 0 127 0" result="hardAlpha"/>
<feOffset dy="2.38715"/>
<feGaussianBlur stdDeviation="1.5"/>
<feColorMatrix type="matrix" values="0 0 0 0 0.012165 0 0 0 0 0.262677 0 0 0 0 0.166736 0 0 0 0.0987037 0"/>
<feBlend mode="normal" in2="effect1_dropShadow_188_3699" result="effect2_dropShadow_188_3699"/>
<feColorMatrix in="SourceAlpha" type="matrix" values="0 0 0 0 0 0 0 0 0 0 0 0 0 0 0 0 0 0 127 0" result="hardAlpha"/>
<feOffset dy="5.85938"/>
<feGaussianBlur stdDeviation="1.9043"/>
<feColorMatrix type="matrix" values="0 0 0 0 0.0181677 0 0 0 0 0.231934 0 0 0 0 0.150066 0 0 0 0.078963 0"/>
<feBlend mode="normal" in2="effect2_dropShadow_188_3699" result="effect3_dropShadow_188_3699"/>
<feColorMatrix in="SourceAlpha" type="matrix" values="0 0 0 0 0 0 0 0 0 0 0 0 0 0 0 0 0 0 127 0" result="hardAlpha"/>
<feOffset dy="11.2847"/>
<feGaussianBlur stdDeviation="3.73264"/>
<feColorMatrix type="matrix" values="0 0 0 0 0.0216257 0 0 0 0 0.392879 0 0 0 0 0.249745 0 0 0 0.06 0"/>
<feBlend mode="normal" in2="effect3_dropShadow_188_3699" result="effect4_dropShadow_188_3699"/>
<feBlend mode="normal" in="SourceGraphic" in2="effect4_dropShadow_188_3699" result="shape"/>
</filter>
<filter id="filter1_dddd_188_3699" x="5.43594e-05" y="0.0166698" width="42.2108" height="46.4046" filterUnits="userSpaceOnUse" color-interpolation-filters="sRGB">
<feFlood flood-opacity="0" result="BackgroundImageFix"/>
<feColorMatrix in="SourceAlpha" type="matrix" values="0 0 0 0 0 0 0 0 0 0 0 0 0 0 0 0 0 0 127 0" result="hardAlpha"/>
<feOffset dy="0.542535"/>
<feGaussianBlur stdDeviation="0.461155"/>
<feColorMatrix type="matrix" values="0 0 0 0 0.00400944 0 0 0 0 0.162354 0 0 0 0 0.101711 0 0 0 0.13 0"/>
<feBlend mode="normal" in2="BackgroundImageFix" result="effect1_dropShadow_188_3699"/>
<feColorMatrix in="SourceAlpha" type="matrix" values="0 0 0 0 0 0 0 0 0 0 0 0 0 0 0 0 0 0 127 0" result="hardAlpha"/>
<feOffset dy="2.38715"/>
<feGaussianBlur stdDeviation="1.5"/>
<feColorMatrix type="matrix" values="0 0 0 0 0.012165 0 0 0 0 0.262677 0 0 0 0 0.166736 0 0 0 0.0987037 0"/>
<feBlend mode="normal" in2="effect1_dropShadow_188_3699" result="effect2_dropShadow_188_3699"/>
<feColorMatrix in="SourceAlpha" type="matrix" values="0 0 0 0 0 0 0 0 0 0 0 0 0 0 0 0 0 0 127 0" result="hardAlpha"/>
<feOffset dy="5.85938"/>
<feGaussianBlur stdDeviation="1.9043"/>
<feColorMatrix type="matrix" values="0 0 0 0 0.0181677 0 0 0 0 0.231934 0 0 0 0 0.150066 0 0 0 0.078963 0"/>
<feBlend mode="normal" in2="effect2_dropShadow_188_3699" result="effect3_dropShadow_188_3699"/>
<feColorMatrix in="SourceAlpha" type="matrix" values="0 0 0 0 0 0 0 0 0 0 0 0 0 0 0 0 0 0 127 0" result="hardAlpha"/>
<feOffset dy="11.2847"/>
<feGaussianBlur stdDeviation="3.73264"/>
<feColorMatrix type="matrix" values="0 0 0 0 0.0216257 0 0 0 0 0.392879 0 0 0 0 0.249745 0 0 0 0.06 0"/>
<feBlend mode="normal" in2="effect3_dropShadow_188_3699" result="effect4_dropShadow_188_3699"/>
<feBlend mode="normal" in="SourceGraphic" in2="effect4_dropShadow_188_3699" result="shape"/>
</filter>
<linearGradient id="paint0_linear_188_3699" x1="25.7617" y1="7.09407" x2="25.7617" y2="0.821342" gradientUnits="userSpaceOnUse">
<stop stop-color="#98E9CA"/>
<stop offset="0.370559" stop-color="#EDFFF8"/>
<stop offset="1" stop-color="white"/>
</linearGradient>
<linearGradient id="paint1_linear_188_3699" x1="22.2634" y1="29.2994" x2="22.2634" y2="1.55203" gradientUnits="userSpaceOnUse">
<stop stop-color="#98E9CA"/>
<stop offset="0.370559" stop-color="#EDFFF8"/>
<stop offset="1" stop-color="white"/>
</linearGradient>
</defs>
</svg>
