<svg width="11" height="12" viewBox="0 0 11 12" fill="none" xmlns="http://www.w3.org/2000/svg">
<path d="M10.0703 3.08978C10.0642 2.7658 10.0583 2.45974 10.0583 2.16364C10.0583 1.93167 9.87029 1.74361 9.63826 1.74361C7.84193 1.74361 6.47425 1.22737 5.33423 0.118932C5.17115 -0.0396719 4.91163 -0.0396159 4.7486 0.118932C3.60869 1.22737 2.24124 1.74361 0.445018 1.74361C0.213049 1.74361 0.0249877 1.93167 0.0249877 2.16364C0.0249877 2.45979 0.0191632 2.76597 0.0129468 3.09001C-0.0446255 6.10504 -0.123479 10.2343 4.90384 11.9768C4.94842 11.9923 4.9949 12 5.04139 12C5.08787 12 5.13441 11.9923 5.17893 11.9768C10.2066 10.2342 10.1279 6.10487 10.0703 3.08978Z" fill="url(#paint0_linear_157_11209)"/>
<path d="M4.90234 0.276367C4.97994 0.20124 5.10309 0.201165 5.18066 0.276367C6.36719 1.43002 7.79313 1.96387 9.63867 1.96387C9.74899 1.96409 9.83789 2.05371 9.83789 2.16406C9.8379 2.46244 9.84444 2.77047 9.85059 3.09375C9.8795 4.60814 9.91004 6.35278 9.3252 7.93457C8.74683 9.49857 7.55911 10.9185 5.10645 11.7686C5.08537 11.7759 5.06309 11.7803 5.04102 11.7803C5.01906 11.7802 4.99674 11.7759 4.97559 11.7686C2.52331 10.9184 1.33605 9.49851 0.757812 7.93457C0.173039 6.35282 0.203505 4.60812 0.232422 3.09375C0.238624 2.77043 0.245112 2.46242 0.245117 2.16406C0.245117 2.0536 0.334846 1.96387 0.445312 1.96387C2.29061 1.96381 3.71599 1.42996 4.90234 0.276367Z" stroke="url(#paint1_linear_157_11209)" stroke-opacity="0.7" stroke-width="0.44"/>
<path d="M6.4883 4.54085L4.46101 6.56803L3.59591 5.70293C3.43188 5.53895 3.16591 5.53895 3.00193 5.70293C2.8379 5.86702 2.8379 6.13293 3.00193 6.29697L4.16402 7.45905C4.24601 7.54104 4.35354 7.58204 4.46101 7.58204C4.56848 7.58204 4.67601 7.54104 4.758 7.45905L7.08222 5.13488C7.24632 4.97085 7.24632 4.70488 7.08228 4.5409C6.9183 4.37687 6.65234 4.37681 6.4883 4.54085Z" fill="#F6F5F3"/>
<defs>
<linearGradient id="paint0_linear_157_11209" x1="5.04164" y1="0" x2="5.04164" y2="11.25" gradientUnits="userSpaceOnUse">
<stop stop-color="#ABA28F"/>
<stop offset="0.438391" stop-color="#706858"/>
<stop offset="1" stop-color="#211E19"/>
</linearGradient>
<linearGradient id="paint1_linear_157_11209" x1="5.04164" y1="0" x2="5.04164" y2="12" gradientUnits="userSpaceOnUse">
<stop stop-color="white" stop-opacity="0"/>
<stop offset="1" stop-color="white"/>
</linearGradient>
</defs>
</svg>
