<svg width="124" height="28" viewBox="0 0 124 28" fill="none" xmlns="http://www.w3.org/2000/svg">
<path d="M43.5979 24.2858C41.0888 24.2858 39.1185 23.5676 37.6367 22.1645C36.1548 20.7615 35.4307 18.7071 35.4307 16.0346V11.2242C35.4307 8.5518 36.1716 6.49736 37.6367 5.09433C39.1185 3.6913 41.0888 2.97308 43.5979 2.97308C46.107 2.97308 47.9762 3.64119 49.3065 4.99411C50.6368 6.34704 51.3104 8.21774 51.3104 10.5728V10.7065H48.3635V10.4726C48.3635 9.05288 47.9762 7.86699 47.2015 6.98174C46.4438 6.07979 45.2313 5.62882 43.5979 5.62882C41.9644 5.62882 40.7183 6.1132 39.7921 7.09866C38.8659 8.06742 38.3944 9.42034 38.3944 11.1741V16.1181C38.3944 17.8385 38.8659 19.1747 39.7921 20.1769C40.7183 21.1791 41.9981 21.6467 43.5979 21.6467C45.1976 21.6467 46.4101 21.1791 47.2015 20.2938C47.9593 19.3919 48.3635 18.2227 48.3635 16.803V16.3353H51.3104V16.7194C51.3104 19.0912 50.6368 20.9285 49.3065 22.2982C47.993 23.5843 46.0901 24.2858 43.5979 24.2858Z" fill="#474747"/>
<path d="M59.6795 24.0352V16.5023L52.4385 3.54099H55.8064L60.9425 12.9947H61.3803L66.4995 3.54099H69.8843L62.6433 16.5023V24.0352H59.6795Z" fill="#474747"/>
<path d="M72.4941 24.0353V3.54102H85.4269V6.23016H75.4747V12.3768H84.1303V15.0659H75.4747V21.3294H85.5785V24.0186H72.4941V24.0353Z" fill="#474747"/>
<path d="M89.4521 24.0353V3.54102H98.0235C99.3202 3.54102 100.465 3.77485 101.408 4.20913C102.385 4.6434 103.126 5.2614 103.682 6.09654C104.237 6.93167 104.524 7.90043 104.524 9.01952V9.33687C104.524 10.623 104.204 11.6585 103.564 12.4436C102.941 13.2286 102.166 13.7631 101.29 14.047V14.5147H101.779C102.52 14.5314 103.126 14.7653 103.597 15.2329C104.035 15.7006 104.271 16.3687 104.271 17.2206V24.0353H101.307V17.588C101.307 17.0535 101.173 16.636 100.869 16.3186C100.566 16.0013 100.128 15.8509 99.5054 15.8509H92.4664V24.0186H89.4521V24.0353ZM92.4496 13.1618H97.7372C98.9497 13.1618 99.8759 12.8611 100.549 12.2598C101.223 11.6585 101.543 10.8401 101.543 9.80454V9.60411C101.543 8.55184 101.223 7.7167 100.566 7.14881C99.9095 6.54751 98.9665 6.24686 97.7372 6.24686H92.4496V13.1618Z" fill="#474747"/>
<path d="M106.358 24.0353L112.37 3.54102H117.59L123.653 24.0353H120.537L119.123 19.0913H110.838L109.423 24.0353H106.358ZM111.579 16.3854H118.399L115.216 5.36161H114.778L111.579 16.3854Z" fill="#474747"/>
<path d="M18.0348 0C16.3171 0 14.9531 1.36962 14.9531 3.0566C14.9531 4.76028 16.334 6.1132 18.0348 6.1132C19.7524 6.1132 21.1164 4.74358 21.1164 3.0566C21.0996 1.38633 19.7356 0 18.0348 0Z" fill="#171717"/>
<path d="M26.3876 11.408C26.9265 10.8401 27.2801 10.0718 27.2801 9.21993V9.11972C27.2801 7.46615 25.933 6.12993 24.2659 6.12993H24.1817C22.464 6.12993 21.0832 7.49955 21.0832 9.18653C21.0832 10.0384 21.4368 10.79 21.9757 11.3579L22.9355 12.3099C23.6259 12.9948 23.6259 14.0804 22.9355 14.7485L21.9757 15.7006C21.4031 16.2685 21.0832 17.0201 21.0832 17.872V19.2082C21.0832 20.1602 20.3085 20.9286 19.3487 20.9286H18.0015C17.1427 20.9286 16.3849 21.2793 15.8124 21.8138L14.8525 22.7659C14.1621 23.4507 13.0675 23.4507 12.3939 22.7659L11.4341 21.8138C10.8615 21.2459 10.1038 20.9286 9.24494 20.9286H7.89777C6.93791 20.9286 6.16329 20.1602 6.16329 19.2082V17.872C6.16329 17.0201 5.80966 16.2685 5.27079 15.7006L4.31094 14.7485C3.62051 14.0637 3.62051 12.9781 4.31094 12.3099L5.27079 11.3579C5.84334 10.79 6.16329 10.0384 6.16329 9.18653V7.85031C6.16329 6.89825 6.93791 6.12993 7.89777 6.12993H9.24494C10.9626 6.12993 12.3266 4.7603 12.3266 3.07333C12.3266 1.38635 10.9457 0.0167236 9.24494 0.0167236C7.5273 0.0167236 6.16329 1.38635 6.16329 3.07333V4.40955C6.16329 5.3616 5.38867 6.12993 4.42881 6.12993H3.08165C1.36401 6.12993 0 7.49955 0 9.18653C0 10.0384 0.353632 10.79 0.892499 11.3579L1.85236 12.3099C2.54278 12.9948 2.54278 14.0804 1.85236 14.7485L0.892499 15.7006C0.370472 16.2685 0.01684 17.0368 0.01684 17.872C0.01684 19.5756 1.39769 20.9286 3.09848 20.9286H4.44565C5.40551 20.9286 6.18013 21.6969 6.18013 22.6489V23.9852C6.18013 25.6888 7.56098 27.0418 9.26178 27.0418C10.1206 27.0418 10.8784 26.691 11.4509 26.1565L12.4108 25.2045C13.1012 24.5196 14.1958 24.5196 14.8694 25.2045L15.8292 26.1565C16.3681 26.7244 17.1595 27.0585 18.0015 27.0585C19.7192 27.0585 21.0832 25.6888 21.0832 24.0019V22.6656C21.0832 21.7136 21.8578 20.9453 22.8176 20.9453H24.1817C25.8993 20.9453 27.2633 19.5756 27.2633 17.8887C27.2633 17.0368 26.9097 16.2852 26.3708 15.7173L25.4109 14.7652C24.7205 14.0804 24.7205 12.9948 25.4109 12.3266L26.3708 11.3913L26.3876 11.408Z" fill="#171717"/>
</svg>
