<svg width="6" height="202" viewBox="0 0 6 202" fill="none" xmlns="http://www.w3.org/2000/svg">
<path d="M2.6665 -4.07696e-05C1.19374 -4.07052e-05 -0.000162904 1.19387 -0.00016284 2.66663C-0.000162776 4.13939 1.19374 5.33329 2.6665 5.33329C4.13926 5.33329 5.33317 4.13939 5.33317 2.66663C5.33317 1.19387 4.13926 -4.0834e-05 2.6665 -4.07696e-05ZM2.66651 196C1.19375 196 -0.000154337 197.194 -0.000154272 198.667C-0.000154208 200.139 1.19375 201.333 2.66651 201.333C4.13927 201.333 5.33318 200.139 5.33318 198.667C5.33318 197.194 4.13927 196 2.66651 196ZM2.6665 2.66663L2.1665 2.66663L2.16651 198.667L2.66651 198.667L3.16651 198.667L3.1665 2.66663L2.6665 2.66663Z" fill="#0DC27D"/>
</svg>
