<svg width="32" height="32" viewBox="0 0 32 32" fill="none" xmlns="http://www.w3.org/2000/svg">
<rect width="32" height="32" rx="10" fill="white"/>
<rect width="32" height="32" rx="10" fill="url(#paint0_linear_188_6069)"/>
<path fill-rule="evenodd" clip-rule="evenodd" d="M12.9388 12.7273H13.8636C14.0618 12.7273 14.2234 12.5656 14.2234 12.3675V11.7101C14.2234 11.5119 14.385 11.3503 14.5832 11.3503H15.508C15.7062 11.3503 15.8678 11.5119 15.8678 11.7101V12.3675C15.8678 12.5656 16.0294 12.7273 16.2276 12.7273H17.1524C17.3505 12.7273 17.5122 12.5656 17.5122 12.3675V11.7101C17.5122 11.5119 17.6738 11.3503 17.8719 11.3503H18.7968C18.9949 11.3503 19.1566 11.5119 19.1566 11.7101V12.3675C19.1566 12.5656 19.3182 12.7273 19.5163 12.7273H20.4412C20.6394 12.7273 20.801 12.8889 20.801 13.087V22.5173C20.801 22.7154 20.6394 22.8771 20.4412 22.8771H11.2943C11.0962 22.8771 10.9346 22.7154 10.9346 22.5173C10.9346 18.9149 10.9346 15.3125 10.9346 11.7101C10.9346 11.5119 11.0962 11.3503 11.2943 11.3503H12.2192C12.4173 11.3503 12.579 11.5119 12.579 11.7101V12.3675C12.579 12.5657 12.7407 12.7273 12.9388 12.7273ZM20.8076 11.6018C20.9492 11.6018 21.0646 11.4864 21.0646 11.3448V10.6583C21.0646 10.5167 20.9492 10.4013 20.8076 10.4013H20.1167C19.9751 10.4013 19.8597 10.5167 19.8597 10.6583V11.3448C19.8597 11.4864 19.9751 11.6018 20.1167 11.6018H20.8076ZM16.9596 10.3236H16.2687C16.1271 10.3236 16.0117 10.2082 16.0117 10.0666V9.38007C16.0117 9.23853 16.1271 9.12305 16.2687 9.12305H16.9596C17.1012 9.12305 17.2167 9.2385 17.2167 9.38007V10.0666C17.2166 10.2082 17.1012 10.3236 16.9596 10.3236ZM13.7152 11.0256H13.0243C12.8827 11.0256 12.7672 10.9102 12.7672 10.7686V10.0821C12.7672 9.94055 12.8827 9.82509 13.0243 9.82509H13.7152C13.8568 9.82509 13.9722 9.94055 13.9722 10.0821V10.7686C13.9722 10.9102 13.8568 11.0256 13.7152 11.0256ZM15.8625 14.1745C15.3354 14.1745 14.9082 14.6018 14.9082 15.1288C14.9082 15.6558 15.3354 16.0831 15.8625 16.0831C16.3895 16.0831 16.8168 15.6558 16.8168 15.1288C16.8168 14.6018 16.3895 14.1745 15.8625 14.1745ZM15.8679 16.4067C14.6584 16.4067 13.669 17.3962 13.669 18.6055V19.6426C13.669 19.6584 13.6818 19.6712 13.6976 19.6712H18.0381C18.0539 19.6712 18.0667 19.6584 18.0667 19.6426V18.6055C18.0667 17.3961 17.0772 16.4067 15.8679 16.4067ZM12.5919 20.8634H19.1438C19.2625 20.8634 19.3587 20.7671 19.3587 20.6485C19.3587 20.5298 19.2625 20.4335 19.1438 20.4335H12.5919C12.4732 20.4335 12.377 20.5298 12.377 20.6485C12.377 20.7671 12.4732 20.8634 12.5919 20.8634ZM12.5919 21.9425H19.1438C19.2625 21.9425 19.3587 21.8463 19.3587 21.7276C19.3587 21.6089 19.2625 21.5127 19.1438 21.5127H12.5919C12.4732 21.5127 12.377 21.6089 12.377 21.7276C12.377 21.8463 12.4732 21.9425 12.5919 21.9425Z" fill="#7B7A76"/>
<defs>
<linearGradient id="paint0_linear_188_6069" x1="4.72727" y1="-2.41861" x2="41.0751" y2="22.3212" gradientUnits="userSpaceOnUse">
<stop stop-color="#F8F8F8"/>
<stop offset="0.2128" stop-color="#ECECEC"/>
</linearGradient>
</defs>
</svg>
