<svg width="32" height="32" viewBox="0 0 32 32" fill="none" xmlns="http://www.w3.org/2000/svg">
<rect width="32" height="32" rx="10" fill="white"/>
<rect width="32" height="32" rx="10" fill="url(#paint0_linear_188_6082)"/>
<g clip-path="url(#clip0_188_6082)">
<path d="M23.6801 19.6577L18.0747 9.94854C17.1591 8.34463 14.8438 8.34463 13.9315 9.94854L8.32274 19.6577C7.40715 21.2616 8.54669 23.2541 10.3943 23.2541H21.5888C23.4364 23.2541 24.5957 21.2418 23.6801 19.6577ZM15.9998 21.1002C15.5124 21.1002 15.1073 20.6951 15.1073 20.2077C15.1073 19.7202 15.5124 19.3151 15.9998 19.3151C16.4872 19.3151 16.8923 19.7202 16.8726 20.2307C16.8956 20.6951 16.4675 21.1002 15.9998 21.1002ZM16.8133 15.3301C16.7738 16.0217 16.7309 16.71 16.6914 17.4016C16.6717 17.6256 16.6717 17.8298 16.6717 18.0505C16.6519 18.416 16.3654 18.6993 15.9998 18.6993C15.6342 18.6993 15.351 18.4358 15.3279 18.0702C15.2686 16.9933 15.2061 15.9361 15.1468 14.8591C15.127 14.5759 15.1073 14.2893 15.0842 14.0061C15.0842 13.5384 15.3477 13.1531 15.7758 13.0312C16.204 12.9291 16.6288 13.1333 16.8133 13.5384C16.8759 13.68 16.8956 13.8217 16.8956 13.9863C16.8759 14.4375 16.833 14.8854 16.8133 15.3301Z" fill="#7B7A76"/>
</g>
<defs>
<linearGradient id="paint0_linear_188_6082" x1="4.72727" y1="-2.41861" x2="41.0751" y2="22.3212" gradientUnits="userSpaceOnUse">
<stop stop-color="#F8F8F8"/>
<stop offset="0.2128" stop-color="#ECECEC"/>
</linearGradient>
<clipPath id="clip0_188_6082">
<rect width="16" height="16" fill="white" transform="translate(8 8)"/>
</clipPath>
</defs>
</svg>
