<svg width="120" height="25" viewBox="0 0 120 25" fill="none" xmlns="http://www.w3.org/2000/svg">
<path d="M43.6575 5.48817C43.1102 5.82347 42.3951 6.17641 41.5122 6.54701L41.4063 22.0587L37.6718 22.4029L29.3024 9.56465L29.6997 12.8205V20.3646L32.0304 20.7088L32.0039 22.0587H24.7204L24.5615 21.2117C25.0736 20.8764 25.824 20.5146 26.8128 20.1264V6.28229L24.9588 5.99111L24.9853 4.64111H30.865L30.8385 4.66758L39.0226 17.4528L38.6253 14.0911V6.36169L36.0562 5.99111L36.0827 4.64111H43.4987L43.6575 5.48817Z" fill="#A1A1A1"/>
<path d="M43.797 15.6794C43.797 13.6853 44.4062 12.0618 45.6245 10.8088C46.8605 9.55591 48.3967 8.92944 50.233 8.92944C52.0693 8.92944 53.579 9.57352 54.762 10.8618C55.9629 12.1323 56.563 13.7823 56.563 15.8118C56.563 17.8588 55.9717 19.5 54.7886 20.7353C53.6231 21.9706 52.1311 22.5882 50.3124 22.5882C48.4584 22.5882 46.9047 21.9353 45.651 20.6294C44.415 19.3235 43.797 17.6735 43.797 15.6794ZM51.3984 20.2853C52.2282 19.703 52.6431 18.3177 52.6431 16.1294C52.6431 14.6824 52.4225 13.5 51.981 12.5824C51.5573 11.6471 50.9039 11.1794 50.0211 11.1794C49.4914 11.1794 49.0412 11.3029 48.6704 11.55C48.0347 12.3971 47.7169 13.7559 47.7169 15.6265C47.7169 17.0382 47.9464 18.1941 48.4055 19.0941C48.8646 19.9765 49.562 20.4177 50.4979 20.4177C50.8157 20.4177 51.1159 20.3735 51.3984 20.2853Z" fill="#A1A1A1"/>
<path d="M70.8415 10.65L69.4644 11.3382C67.6108 16.2088 66.2159 19.7559 65.2799 21.9794C64.662 22.1735 63.9028 22.2706 63.0023 22.2706C62.4015 22.2706 61.8546 22.2264 61.3597 22.1382L57.5725 11.5765L55.9572 10.8618V9.48529H62.8432L62.9225 10.65L61.6246 11.3117L63.2406 16.4206L63.6113 18.7235H64.0879C64.6177 16.5882 65.1741 14.1353 65.7565 11.3647L64.406 10.8618L64.432 9.48529H70.7623L70.8415 10.65Z" fill="#A1A1A1"/>
<path d="M80.9503 15.7588L74.196 15.6794C74.267 16.9853 74.6732 18 75.4146 18.7235C76.1561 19.4471 77.101 19.8088 78.2487 19.8088C79.2018 19.8088 80.3324 19.4912 81.6385 18.8559L82.1949 20.2588L78.0364 22.403L77.1891 22.4559C75.2467 22.4559 73.6491 21.8471 72.3949 20.6294C71.1414 19.3941 70.5146 17.8324 70.5146 15.9441C70.5146 13.9677 71.1503 12.3088 72.4215 10.9676C73.6928 9.6088 75.2378 8.92944 77.0566 8.92944C78.646 8.92944 79.9439 9.42354 80.9503 10.4118C81.9744 11.3824 82.4864 12.653 82.4864 14.2235L80.9503 15.7588ZM76.1295 10.9412C75.2118 11.4706 74.6199 12.4412 74.355 13.853L78.9369 13.6147C78.8133 12.8559 78.4869 12.2206 77.9572 11.7088C77.4451 11.197 76.8361 10.9412 76.1295 10.9412Z" fill="#A1A1A1"/>
<path d="M89.2242 19.9677C90.0537 20.2323 90.6982 20.4971 91.1577 20.7618L91.0518 22.0588H83.4503L83.371 21.1588C83.9002 20.8588 84.5713 20.5677 85.3838 20.2853V4.9853L83.397 4.77354L83.212 3.50295C84.7304 2.92059 86.302 2.61177 87.9263 2.57648L89.2242 3.74118V19.9677Z" fill="#A1A1A1"/>
<path d="M111.047 20.7088L111.021 22.0588H102.678L102.519 21.2118C103.013 20.9117 103.781 20.5411 104.823 20.1L103.711 17.2412H97.4071L96.2417 20.3647L98.6783 20.7088L98.6524 22.0588H91.4481L91.2891 21.2118C91.8189 20.8765 92.5514 20.5235 93.4875 20.1529L99.3406 5.77939L99.0231 4.9588L102.493 4.00586L109.167 20.4441L111.047 20.7088ZM102.943 15.2294L100.559 8.98231L98.1752 15.2294H102.943Z" fill="#A1A1A1"/>
<path d="M119.456 20.7089L119.429 22.0588H110.901L110.742 21.2118C111.254 20.8765 112.005 20.5148 112.994 20.1265V6.28241L110.954 5.99124L110.981 4.64124H119.085L119.244 5.48829C118.591 5.87653 117.85 6.23829 117.019 6.57361V20.3648L119.456 20.7089Z" fill="#A1A1A1"/>
<path fill-rule="evenodd" clip-rule="evenodd" d="M3.54454 19.7088C2.67251 18.2859 1.60403 17.101 0.339112 16.2839C-0.0209733 16.0513 -0.111899 15.5348 0.151723 15.1968C2.44296 12.2595 6.0153 4.56504 7.88388 0.37432C8.16241 -0.250242 9.11762 -0.0459669 9.11762 0.637805V11.799C8.12641 12.238 7.43501 13.2299 7.43501 14.3832C7.43501 14.8044 7.52722 15.204 7.69262 15.5631L3.54454 19.7088ZM4.46508 21.4524C4.90297 22.4169 5.26834 23.451 5.56117 24.5255C5.63692 24.8035 5.88733 25 6.1756 25H10.2618H14.348C14.6362 25 14.8866 24.8035 14.9624 24.5255C15.2552 23.451 15.6206 22.4169 16.0585 21.4524L13.885 19.2801L12.0751 21.089C12.1214 21.2524 12.1461 21.4248 12.1461 21.603C12.1461 22.6432 11.3024 23.4865 10.2616 23.4865C9.22086 23.4865 8.37711 22.6432 8.37711 21.603C8.37711 20.5629 9.22086 19.7196 10.2616 19.7196C10.4209 19.7196 10.5755 19.7393 10.7232 19.7765L12.5524 17.9484L11.5181 16.9146C11.1397 17.1026 10.713 17.2083 10.2618 17.2083C9.81048 17.2083 9.38385 17.1026 9.00539 16.9146L4.46508 21.4524ZM16.979 19.7088C17.851 18.2859 18.9195 17.101 20.1844 16.2839C20.5445 16.0513 20.6354 15.5348 20.3718 15.1968C18.0806 12.2595 14.5082 4.56504 12.6396 0.37432C12.3612 -0.250242 11.406 -0.0459669 11.406 0.637805V11.799C12.3971 12.238 13.0885 13.2299 13.0885 14.3832C13.0885 14.8044 12.9963 15.204 12.831 15.5631L16.979 19.7088Z" fill="#A1A1A1"/>
</svg>
