<svg width="1198" height="20" viewBox="0 0 1198 20" fill="none" xmlns="http://www.w3.org/2000/svg">
<mask id="mask0_188_2109" style="mask-type:alpha" maskUnits="userSpaceOnUse" x="0" y="0" width="1198" height="20">
<rect width="1198" height="20" fill="#D9D9D9"/>
</mask>
<g mask="url(#mask0_188_2109)">
<line x1="-13.7118" y1="-8.7715" x2="2.28821" y2="29.2285" stroke="#E2E1DD" stroke-width="0.6"/>
<line x1="-9.71179" y1="-8.7715" x2="6.28821" y2="29.2285" stroke="#E2E1DD" stroke-width="0.6"/>
<line x1="-5.71179" y1="-8.7715" x2="10.2882" y2="29.2285" stroke="#E2E1DD" stroke-width="0.6"/>
<line x1="-1.71179" y1="-8.7715" x2="14.2882" y2="29.2285" stroke="#E2E1DD" stroke-width="0.6"/>
<line x1="2.28821" y1="-8.7715" x2="18.2882" y2="29.2285" stroke="#E2E1DD" stroke-width="0.6"/>
<line x1="6.28821" y1="-8.7715" x2="22.2882" y2="29.2285" stroke="#E2E1DD" stroke-width="0.6"/>
<line x1="10.2882" y1="-8.7715" x2="26.2882" y2="29.2285" stroke="#E2E1DD" stroke-width="0.6"/>
<line x1="14.2882" y1="-8.7715" x2="30.2882" y2="29.2285" stroke="#E2E1DD" stroke-width="0.6"/>
<line x1="18.2882" y1="-8.7715" x2="34.2882" y2="29.2285" stroke="#E2E1DD" stroke-width="0.6"/>
<line x1="22.2882" y1="-8.7715" x2="38.2882" y2="29.2285" stroke="#E2E1DD" stroke-width="0.6"/>
<line x1="26.2882" y1="-8.7715" x2="42.2882" y2="29.2285" stroke="#E2E1DD" stroke-width="0.6"/>
<line x1="30.2882" y1="-8.7715" x2="46.2882" y2="29.2285" stroke="#E2E1DD" stroke-width="0.6"/>
<line x1="34.2882" y1="-8.7715" x2="50.2882" y2="29.2285" stroke="#E2E1DD" stroke-width="0.6"/>
<line x1="38.2882" y1="-8.7715" x2="54.2882" y2="29.2285" stroke="#E2E1DD" stroke-width="0.6"/>
<line x1="42.2882" y1="-8.7715" x2="58.2882" y2="29.2285" stroke="#E2E1DD" stroke-width="0.6"/>
<line x1="46.2882" y1="-8.7715" x2="62.2882" y2="29.2285" stroke="#E2E1DD" stroke-width="0.6"/>
<line x1="50.2882" y1="-8.7715" x2="66.2882" y2="29.2285" stroke="#E2E1DD" stroke-width="0.6"/>
<line x1="54.2882" y1="-8.7715" x2="70.2882" y2="29.2285" stroke="#E2E1DD" stroke-width="0.6"/>
<line x1="58.2882" y1="-8.7715" x2="74.2882" y2="29.2285" stroke="#E2E1DD" stroke-width="0.6"/>
<line x1="62.2882" y1="-8.7715" x2="78.2882" y2="29.2285" stroke="#E2E1DD" stroke-width="0.6"/>
<line x1="66.2882" y1="-8.7715" x2="82.2882" y2="29.2285" stroke="#E2E1DD" stroke-width="0.6"/>
<line x1="70.2882" y1="-8.7715" x2="86.2882" y2="29.2285" stroke="#E2E1DD" stroke-width="0.6"/>
<line x1="74.2882" y1="-8.7715" x2="90.2882" y2="29.2285" stroke="#E2E1DD" stroke-width="0.6"/>
<line x1="78.2882" y1="-8.7715" x2="94.2882" y2="29.2285" stroke="#E2E1DD" stroke-width="0.6"/>
<line x1="82.2882" y1="-8.7715" x2="98.2882" y2="29.2285" stroke="#E2E1DD" stroke-width="0.6"/>
<line x1="86.2882" y1="-8.7715" x2="102.288" y2="29.2285" stroke="#E2E1DD" stroke-width="0.6"/>
<line x1="90.2882" y1="-8.7715" x2="106.288" y2="29.2285" stroke="#E2E1DD" stroke-width="0.6"/>
<line x1="94.2882" y1="-8.7715" x2="110.288" y2="29.2285" stroke="#E2E1DD" stroke-width="0.6"/>
<line x1="98.2882" y1="-8.7715" x2="114.288" y2="29.2285" stroke="#E2E1DD" stroke-width="0.6"/>
<line x1="102.288" y1="-8.7715" x2="118.288" y2="29.2285" stroke="#E2E1DD" stroke-width="0.6"/>
<line x1="106.288" y1="-8.7715" x2="122.288" y2="29.2285" stroke="#E2E1DD" stroke-width="0.6"/>
<line x1="110.288" y1="-8.7715" x2="126.288" y2="29.2285" stroke="#E2E1DD" stroke-width="0.6"/>
<line x1="114.288" y1="-8.7715" x2="130.288" y2="29.2285" stroke="#E2E1DD" stroke-width="0.6"/>
<line x1="118.288" y1="-8.7715" x2="134.288" y2="29.2285" stroke="#E2E1DD" stroke-width="0.6"/>
<line x1="122.288" y1="-8.7715" x2="138.288" y2="29.2285" stroke="#E2E1DD" stroke-width="0.6"/>
<line x1="126.288" y1="-8.7715" x2="142.288" y2="29.2285" stroke="#E2E1DD" stroke-width="0.6"/>
<line x1="130.288" y1="-8.7715" x2="146.288" y2="29.2285" stroke="#E2E1DD" stroke-width="0.6"/>
<line x1="134.288" y1="-8.7715" x2="150.288" y2="29.2285" stroke="#E2E1DD" stroke-width="0.6"/>
<line x1="138.288" y1="-8.7715" x2="154.288" y2="29.2285" stroke="#E2E1DD" stroke-width="0.6"/>
<line x1="142.288" y1="-8.7715" x2="158.288" y2="29.2285" stroke="#E2E1DD" stroke-width="0.6"/>
<line x1="146.288" y1="-8.7715" x2="162.288" y2="29.2285" stroke="#E2E1DD" stroke-width="0.6"/>
<line x1="150.288" y1="-8.7715" x2="166.288" y2="29.2285" stroke="#E2E1DD" stroke-width="0.6"/>
<line x1="154.288" y1="-8.7715" x2="170.288" y2="29.2285" stroke="#E2E1DD" stroke-width="0.6"/>
<line x1="158.288" y1="-8.7715" x2="174.288" y2="29.2285" stroke="#E2E1DD" stroke-width="0.6"/>
<line x1="162.288" y1="-8.7715" x2="178.288" y2="29.2285" stroke="#E2E1DD" stroke-width="0.6"/>
<line x1="166.288" y1="-8.7715" x2="182.288" y2="29.2285" stroke="#E2E1DD" stroke-width="0.6"/>
<line x1="170.288" y1="-8.7715" x2="186.288" y2="29.2285" stroke="#E2E1DD" stroke-width="0.6"/>
<line x1="174.288" y1="-8.7715" x2="190.288" y2="29.2285" stroke="#E2E1DD" stroke-width="0.6"/>
<line x1="178.288" y1="-8.7715" x2="194.288" y2="29.2285" stroke="#E2E1DD" stroke-width="0.6"/>
<line x1="182.288" y1="-8.7715" x2="198.288" y2="29.2285" stroke="#E2E1DD" stroke-width="0.6"/>
<line x1="186.288" y1="-8.7715" x2="202.288" y2="29.2285" stroke="#E2E1DD" stroke-width="0.6"/>
<line x1="190.288" y1="-8.7715" x2="206.288" y2="29.2285" stroke="#E2E1DD" stroke-width="0.6"/>
<line x1="194.288" y1="-8.7715" x2="210.288" y2="29.2285" stroke="#E2E1DD" stroke-width="0.6"/>
<line x1="198.288" y1="-8.7715" x2="214.288" y2="29.2285" stroke="#E2E1DD" stroke-width="0.6"/>
<line x1="202.288" y1="-8.7715" x2="218.288" y2="29.2285" stroke="#E2E1DD" stroke-width="0.6"/>
<line x1="206.288" y1="-8.7715" x2="222.288" y2="29.2285" stroke="#E2E1DD" stroke-width="0.6"/>
<line x1="210.288" y1="-8.7715" x2="226.288" y2="29.2285" stroke="#E2E1DD" stroke-width="0.6"/>
<line x1="214.288" y1="-8.7715" x2="230.288" y2="29.2285" stroke="#E2E1DD" stroke-width="0.6"/>
<line x1="218.288" y1="-8.7715" x2="234.288" y2="29.2285" stroke="#E2E1DD" stroke-width="0.6"/>
<line x1="222.288" y1="-8.7715" x2="238.288" y2="29.2285" stroke="#E2E1DD" stroke-width="0.6"/>
<line x1="226.288" y1="-8.7715" x2="242.288" y2="29.2285" stroke="#E2E1DD" stroke-width="0.6"/>
<line x1="230.288" y1="-8.7715" x2="246.288" y2="29.2285" stroke="#E2E1DD" stroke-width="0.6"/>
<line x1="234.288" y1="-8.7715" x2="250.288" y2="29.2285" stroke="#E2E1DD" stroke-width="0.6"/>
<line x1="238.288" y1="-8.7715" x2="254.288" y2="29.2285" stroke="#E2E1DD" stroke-width="0.6"/>
<line x1="242.288" y1="-8.7715" x2="258.288" y2="29.2285" stroke="#E2E1DD" stroke-width="0.6"/>
<line x1="246.288" y1="-8.7715" x2="262.288" y2="29.2285" stroke="#E2E1DD" stroke-width="0.6"/>
<line x1="250.288" y1="-8.7715" x2="266.288" y2="29.2285" stroke="#E2E1DD" stroke-width="0.6"/>
<line x1="254.288" y1="-8.7715" x2="270.288" y2="29.2285" stroke="#E2E1DD" stroke-width="0.6"/>
<line x1="258.288" y1="-8.7715" x2="274.288" y2="29.2285" stroke="#E2E1DD" stroke-width="0.6"/>
<line x1="262.288" y1="-8.7715" x2="278.288" y2="29.2285" stroke="#E2E1DD" stroke-width="0.6"/>
<line x1="266.288" y1="-8.7715" x2="282.288" y2="29.2285" stroke="#E2E1DD" stroke-width="0.6"/>
<line x1="270.288" y1="-8.7715" x2="286.288" y2="29.2285" stroke="#E2E1DD" stroke-width="0.6"/>
<line x1="274.288" y1="-8.7715" x2="290.288" y2="29.2285" stroke="#E2E1DD" stroke-width="0.6"/>
<line x1="278.288" y1="-8.7715" x2="294.288" y2="29.2285" stroke="#E2E1DD" stroke-width="0.6"/>
<line x1="282.288" y1="-8.7715" x2="298.288" y2="29.2285" stroke="#E2E1DD" stroke-width="0.6"/>
<line x1="286.288" y1="-8.7715" x2="302.288" y2="29.2285" stroke="#E2E1DD" stroke-width="0.6"/>
<line x1="290.288" y1="-8.7715" x2="306.288" y2="29.2285" stroke="#E2E1DD" stroke-width="0.6"/>
<line x1="294.288" y1="-8.7715" x2="310.288" y2="29.2285" stroke="#E2E1DD" stroke-width="0.6"/>
<line x1="298.288" y1="-8.7715" x2="314.288" y2="29.2285" stroke="#E2E1DD" stroke-width="0.6"/>
<line x1="302.288" y1="-8.7715" x2="318.288" y2="29.2285" stroke="#E2E1DD" stroke-width="0.6"/>
<line x1="306.288" y1="-8.7715" x2="322.288" y2="29.2285" stroke="#E2E1DD" stroke-width="0.6"/>
<line x1="310.288" y1="-8.7715" x2="326.288" y2="29.2285" stroke="#E2E1DD" stroke-width="0.6"/>
<line x1="314.288" y1="-8.7715" x2="330.288" y2="29.2285" stroke="#E2E1DD" stroke-width="0.6"/>
<line x1="318.288" y1="-8.7715" x2="334.288" y2="29.2285" stroke="#E2E1DD" stroke-width="0.6"/>
<line x1="322.288" y1="-8.7715" x2="338.288" y2="29.2285" stroke="#E2E1DD" stroke-width="0.6"/>
<line x1="326.288" y1="-8.7715" x2="342.288" y2="29.2285" stroke="#E2E1DD" stroke-width="0.6"/>
<line x1="330.288" y1="-8.7715" x2="346.288" y2="29.2285" stroke="#E2E1DD" stroke-width="0.6"/>
<line x1="334.288" y1="-8.7715" x2="350.288" y2="29.2285" stroke="#E2E1DD" stroke-width="0.6"/>
<line x1="338.288" y1="-8.7715" x2="354.288" y2="29.2285" stroke="#E2E1DD" stroke-width="0.6"/>
<line x1="342.288" y1="-8.7715" x2="358.288" y2="29.2285" stroke="#E2E1DD" stroke-width="0.6"/>
<line x1="346.288" y1="-8.7715" x2="362.288" y2="29.2285" stroke="#E2E1DD" stroke-width="0.6"/>
<line x1="350.288" y1="-8.7715" x2="366.288" y2="29.2285" stroke="#E2E1DD" stroke-width="0.6"/>
<line x1="354.288" y1="-8.7715" x2="370.288" y2="29.2285" stroke="#E2E1DD" stroke-width="0.6"/>
<line x1="358.288" y1="-8.7715" x2="374.288" y2="29.2285" stroke="#E2E1DD" stroke-width="0.6"/>
<line x1="362.288" y1="-8.7715" x2="378.288" y2="29.2285" stroke="#E2E1DD" stroke-width="0.6"/>
<line x1="366.288" y1="-8.7715" x2="382.288" y2="29.2285" stroke="#E2E1DD" stroke-width="0.6"/>
<line x1="370.288" y1="-8.7715" x2="386.288" y2="29.2285" stroke="#E2E1DD" stroke-width="0.6"/>
<line x1="374.288" y1="-8.7715" x2="390.288" y2="29.2285" stroke="#E2E1DD" stroke-width="0.6"/>
<line x1="378.288" y1="-8.7715" x2="394.288" y2="29.2285" stroke="#E2E1DD" stroke-width="0.6"/>
<line x1="382.288" y1="-8.7715" x2="398.288" y2="29.2285" stroke="#E2E1DD" stroke-width="0.6"/>
<line x1="386.288" y1="-8.7715" x2="402.288" y2="29.2285" stroke="#E2E1DD" stroke-width="0.6"/>
<line x1="390.288" y1="-8.7715" x2="406.288" y2="29.2285" stroke="#E2E1DD" stroke-width="0.6"/>
<line x1="394.288" y1="-8.7715" x2="410.288" y2="29.2285" stroke="#E2E1DD" stroke-width="0.6"/>
<line x1="398.288" y1="-8.7715" x2="414.288" y2="29.2285" stroke="#E2E1DD" stroke-width="0.6"/>
<line x1="402.288" y1="-8.7715" x2="418.288" y2="29.2285" stroke="#E2E1DD" stroke-width="0.6"/>
<line x1="406.288" y1="-8.7715" x2="422.288" y2="29.2285" stroke="#E2E1DD" stroke-width="0.6"/>
<line x1="410.288" y1="-8.7715" x2="426.288" y2="29.2285" stroke="#E2E1DD" stroke-width="0.6"/>
<line x1="414.288" y1="-8.7715" x2="430.288" y2="29.2285" stroke="#E2E1DD" stroke-width="0.6"/>
<line x1="418.288" y1="-8.7715" x2="434.288" y2="29.2285" stroke="#E2E1DD" stroke-width="0.6"/>
<line x1="422.288" y1="-8.7715" x2="438.288" y2="29.2285" stroke="#E2E1DD" stroke-width="0.6"/>
<line x1="426.288" y1="-8.7715" x2="442.288" y2="29.2285" stroke="#E2E1DD" stroke-width="0.6"/>
<line x1="430.288" y1="-8.7715" x2="446.288" y2="29.2285" stroke="#E2E1DD" stroke-width="0.6"/>
<line x1="434.288" y1="-8.7715" x2="450.288" y2="29.2285" stroke="#E2E1DD" stroke-width="0.6"/>
<line x1="438.288" y1="-8.7715" x2="454.288" y2="29.2285" stroke="#E2E1DD" stroke-width="0.6"/>
<line x1="442.288" y1="-8.7715" x2="458.288" y2="29.2285" stroke="#E2E1DD" stroke-width="0.6"/>
<line x1="446.288" y1="-8.7715" x2="462.288" y2="29.2285" stroke="#E2E1DD" stroke-width="0.6"/>
<line x1="450.288" y1="-8.7715" x2="466.288" y2="29.2285" stroke="#E2E1DD" stroke-width="0.6"/>
<line x1="454.288" y1="-8.7715" x2="470.288" y2="29.2285" stroke="#E2E1DD" stroke-width="0.6"/>
<line x1="458.288" y1="-8.7715" x2="474.288" y2="29.2285" stroke="#E2E1DD" stroke-width="0.6"/>
<line x1="462.288" y1="-8.7715" x2="478.288" y2="29.2285" stroke="#E2E1DD" stroke-width="0.6"/>
<line x1="466.288" y1="-8.7715" x2="482.288" y2="29.2285" stroke="#E2E1DD" stroke-width="0.6"/>
<line x1="470.288" y1="-8.7715" x2="486.288" y2="29.2285" stroke="#E2E1DD" stroke-width="0.6"/>
<line x1="474.288" y1="-8.7715" x2="490.288" y2="29.2285" stroke="#E2E1DD" stroke-width="0.6"/>
<line x1="478.288" y1="-8.7715" x2="494.288" y2="29.2285" stroke="#E2E1DD" stroke-width="0.6"/>
<line x1="482.288" y1="-8.7715" x2="498.288" y2="29.2285" stroke="#E2E1DD" stroke-width="0.6"/>
<line x1="486.288" y1="-8.7715" x2="502.288" y2="29.2285" stroke="#E2E1DD" stroke-width="0.6"/>
<line x1="490.288" y1="-8.7715" x2="506.288" y2="29.2285" stroke="#E2E1DD" stroke-width="0.6"/>
<line x1="494.288" y1="-8.7715" x2="510.288" y2="29.2285" stroke="#E2E1DD" stroke-width="0.6"/>
<line x1="498.288" y1="-8.7715" x2="514.288" y2="29.2285" stroke="#E2E1DD" stroke-width="0.6"/>
<line x1="502.288" y1="-8.7715" x2="518.288" y2="29.2285" stroke="#E2E1DD" stroke-width="0.6"/>
<line x1="506.288" y1="-8.7715" x2="522.288" y2="29.2285" stroke="#E2E1DD" stroke-width="0.6"/>
<line x1="510.288" y1="-8.7715" x2="526.288" y2="29.2285" stroke="#E2E1DD" stroke-width="0.6"/>
<line x1="514.288" y1="-8.7715" x2="530.288" y2="29.2285" stroke="#E2E1DD" stroke-width="0.6"/>
<line x1="518.288" y1="-8.7715" x2="534.288" y2="29.2285" stroke="#E2E1DD" stroke-width="0.6"/>
<line x1="522.288" y1="-8.7715" x2="538.288" y2="29.2285" stroke="#E2E1DD" stroke-width="0.6"/>
<line x1="526.288" y1="-8.7715" x2="542.288" y2="29.2285" stroke="#E2E1DD" stroke-width="0.6"/>
<line x1="530.288" y1="-8.7715" x2="546.288" y2="29.2285" stroke="#E2E1DD" stroke-width="0.6"/>
<line x1="534.288" y1="-8.7715" x2="550.288" y2="29.2285" stroke="#E2E1DD" stroke-width="0.6"/>
<line x1="538.288" y1="-8.7715" x2="554.288" y2="29.2285" stroke="#E2E1DD" stroke-width="0.6"/>
<line x1="542.288" y1="-8.7715" x2="558.288" y2="29.2285" stroke="#E2E1DD" stroke-width="0.6"/>
<line x1="546.288" y1="-8.7715" x2="562.288" y2="29.2285" stroke="#E2E1DD" stroke-width="0.6"/>
<line x1="550.288" y1="-8.7715" x2="566.288" y2="29.2285" stroke="#E2E1DD" stroke-width="0.6"/>
<line x1="554.288" y1="-8.7715" x2="570.288" y2="29.2285" stroke="#E2E1DD" stroke-width="0.6"/>
<line x1="558.288" y1="-8.7715" x2="574.288" y2="29.2285" stroke="#E2E1DD" stroke-width="0.6"/>
<line x1="562.288" y1="-8.7715" x2="578.288" y2="29.2285" stroke="#E2E1DD" stroke-width="0.6"/>
<line x1="566.288" y1="-8.7715" x2="582.288" y2="29.2285" stroke="#E2E1DD" stroke-width="0.6"/>
<line x1="570.288" y1="-8.7715" x2="586.288" y2="29.2285" stroke="#E2E1DD" stroke-width="0.6"/>
<line x1="574.288" y1="-8.7715" x2="590.288" y2="29.2285" stroke="#E2E1DD" stroke-width="0.6"/>
<line x1="578.288" y1="-8.7715" x2="594.288" y2="29.2285" stroke="#E2E1DD" stroke-width="0.6"/>
<line x1="582.288" y1="-8.7715" x2="598.288" y2="29.2285" stroke="#E2E1DD" stroke-width="0.6"/>
<line x1="586.288" y1="-8.7715" x2="602.288" y2="29.2285" stroke="#E2E1DD" stroke-width="0.6"/>
<line x1="590.288" y1="-8.7715" x2="606.288" y2="29.2285" stroke="#E2E1DD" stroke-width="0.6"/>
<line x1="594.288" y1="-8.7715" x2="610.288" y2="29.2285" stroke="#E2E1DD" stroke-width="0.6"/>
<line x1="598.288" y1="-8.7715" x2="614.288" y2="29.2285" stroke="#E2E1DD" stroke-width="0.6"/>
<line x1="602.288" y1="-8.7715" x2="618.288" y2="29.2285" stroke="#E2E1DD" stroke-width="0.6"/>
<line x1="606.288" y1="-8.7715" x2="622.288" y2="29.2285" stroke="#E2E1DD" stroke-width="0.6"/>
<line x1="610.288" y1="-8.7715" x2="626.288" y2="29.2285" stroke="#E2E1DD" stroke-width="0.6"/>
<line x1="614.288" y1="-8.7715" x2="630.288" y2="29.2285" stroke="#E2E1DD" stroke-width="0.6"/>
<line x1="618.288" y1="-8.7715" x2="634.288" y2="29.2285" stroke="#E2E1DD" stroke-width="0.6"/>
<line x1="622.288" y1="-8.7715" x2="638.288" y2="29.2285" stroke="#E2E1DD" stroke-width="0.6"/>
<line x1="626.288" y1="-8.7715" x2="642.288" y2="29.2285" stroke="#E2E1DD" stroke-width="0.6"/>
<line x1="630.288" y1="-8.7715" x2="646.288" y2="29.2285" stroke="#E2E1DD" stroke-width="0.6"/>
<line x1="634.288" y1="-8.7715" x2="650.288" y2="29.2285" stroke="#E2E1DD" stroke-width="0.6"/>
<line x1="638.288" y1="-8.7715" x2="654.288" y2="29.2285" stroke="#E2E1DD" stroke-width="0.6"/>
<line x1="642.288" y1="-8.7715" x2="658.288" y2="29.2285" stroke="#E2E1DD" stroke-width="0.6"/>
<line x1="646.288" y1="-8.7715" x2="662.288" y2="29.2285" stroke="#E2E1DD" stroke-width="0.6"/>
<line x1="650.288" y1="-8.7715" x2="666.288" y2="29.2285" stroke="#E2E1DD" stroke-width="0.6"/>
<line x1="654.288" y1="-8.7715" x2="670.288" y2="29.2285" stroke="#E2E1DD" stroke-width="0.6"/>
<line x1="658.288" y1="-8.7715" x2="674.288" y2="29.2285" stroke="#E2E1DD" stroke-width="0.6"/>
<line x1="662.288" y1="-8.7715" x2="678.288" y2="29.2285" stroke="#E2E1DD" stroke-width="0.6"/>
<line x1="666.288" y1="-8.7715" x2="682.288" y2="29.2285" stroke="#E2E1DD" stroke-width="0.6"/>
<line x1="670.288" y1="-8.7715" x2="686.288" y2="29.2285" stroke="#E2E1DD" stroke-width="0.6"/>
<line x1="674.288" y1="-8.7715" x2="690.288" y2="29.2285" stroke="#E2E1DD" stroke-width="0.6"/>
<line x1="678.288" y1="-8.7715" x2="694.288" y2="29.2285" stroke="#E2E1DD" stroke-width="0.6"/>
<line x1="682.288" y1="-8.7715" x2="698.288" y2="29.2285" stroke="#E2E1DD" stroke-width="0.6"/>
<line x1="686.288" y1="-8.7715" x2="702.288" y2="29.2285" stroke="#E2E1DD" stroke-width="0.6"/>
<line x1="690.288" y1="-8.7715" x2="706.288" y2="29.2285" stroke="#E2E1DD" stroke-width="0.6"/>
<line x1="694.288" y1="-8.7715" x2="710.288" y2="29.2285" stroke="#E2E1DD" stroke-width="0.6"/>
<line x1="698.288" y1="-8.7715" x2="714.288" y2="29.2285" stroke="#E2E1DD" stroke-width="0.6"/>
<line x1="702.288" y1="-8.7715" x2="718.288" y2="29.2285" stroke="#E2E1DD" stroke-width="0.6"/>
<line x1="706.288" y1="-8.7715" x2="722.288" y2="29.2285" stroke="#E2E1DD" stroke-width="0.6"/>
<line x1="710.288" y1="-8.7715" x2="726.288" y2="29.2285" stroke="#E2E1DD" stroke-width="0.6"/>
<line x1="714.288" y1="-8.7715" x2="730.288" y2="29.2285" stroke="#E2E1DD" stroke-width="0.6"/>
<line x1="718.288" y1="-8.7715" x2="734.288" y2="29.2285" stroke="#E2E1DD" stroke-width="0.6"/>
<line x1="722.288" y1="-8.7715" x2="738.288" y2="29.2285" stroke="#E2E1DD" stroke-width="0.6"/>
<line x1="726.288" y1="-8.7715" x2="742.288" y2="29.2285" stroke="#E2E1DD" stroke-width="0.6"/>
<line x1="730.288" y1="-8.7715" x2="746.288" y2="29.2285" stroke="#E2E1DD" stroke-width="0.6"/>
<line x1="734.288" y1="-8.7715" x2="750.288" y2="29.2285" stroke="#E2E1DD" stroke-width="0.6"/>
<line x1="738.288" y1="-8.7715" x2="754.288" y2="29.2285" stroke="#E2E1DD" stroke-width="0.6"/>
<line x1="742.288" y1="-8.7715" x2="758.288" y2="29.2285" stroke="#E2E1DD" stroke-width="0.6"/>
<line x1="746.288" y1="-8.7715" x2="762.288" y2="29.2285" stroke="#E2E1DD" stroke-width="0.6"/>
<line x1="750.288" y1="-8.7715" x2="766.288" y2="29.2285" stroke="#E2E1DD" stroke-width="0.6"/>
<line x1="754.288" y1="-8.7715" x2="770.288" y2="29.2285" stroke="#E2E1DD" stroke-width="0.6"/>
<line x1="758.288" y1="-8.7715" x2="774.288" y2="29.2285" stroke="#E2E1DD" stroke-width="0.6"/>
<line x1="762.288" y1="-8.7715" x2="778.288" y2="29.2285" stroke="#E2E1DD" stroke-width="0.6"/>
<line x1="766.288" y1="-8.7715" x2="782.288" y2="29.2285" stroke="#E2E1DD" stroke-width="0.6"/>
<line x1="770.288" y1="-8.7715" x2="786.288" y2="29.2285" stroke="#E2E1DD" stroke-width="0.6"/>
<line x1="774.288" y1="-8.7715" x2="790.288" y2="29.2285" stroke="#E2E1DD" stroke-width="0.6"/>
<line x1="778.288" y1="-8.7715" x2="794.288" y2="29.2285" stroke="#E2E1DD" stroke-width="0.6"/>
<line x1="782.288" y1="-8.7715" x2="798.288" y2="29.2285" stroke="#E2E1DD" stroke-width="0.6"/>
<line x1="786.288" y1="-8.7715" x2="802.288" y2="29.2285" stroke="#E2E1DD" stroke-width="0.6"/>
<line x1="790.288" y1="-8.7715" x2="806.288" y2="29.2285" stroke="#E2E1DD" stroke-width="0.6"/>
<line x1="794.288" y1="-8.7715" x2="810.288" y2="29.2285" stroke="#E2E1DD" stroke-width="0.6"/>
<line x1="798.288" y1="-8.7715" x2="814.288" y2="29.2285" stroke="#E2E1DD" stroke-width="0.6"/>
<line x1="802.288" y1="-8.7715" x2="818.288" y2="29.2285" stroke="#E2E1DD" stroke-width="0.6"/>
<line x1="806.288" y1="-8.7715" x2="822.288" y2="29.2285" stroke="#E2E1DD" stroke-width="0.6"/>
<line x1="810.288" y1="-8.7715" x2="826.288" y2="29.2285" stroke="#E2E1DD" stroke-width="0.6"/>
<line x1="814.288" y1="-8.7715" x2="830.288" y2="29.2285" stroke="#E2E1DD" stroke-width="0.6"/>
<line x1="818.288" y1="-8.7715" x2="834.288" y2="29.2285" stroke="#E2E1DD" stroke-width="0.6"/>
<line x1="822.288" y1="-8.7715" x2="838.288" y2="29.2285" stroke="#E2E1DD" stroke-width="0.6"/>
<line x1="826.288" y1="-8.7715" x2="842.288" y2="29.2285" stroke="#E2E1DD" stroke-width="0.6"/>
<line x1="830.288" y1="-8.7715" x2="846.288" y2="29.2285" stroke="#E2E1DD" stroke-width="0.6"/>
<line x1="834.288" y1="-8.7715" x2="850.288" y2="29.2285" stroke="#E2E1DD" stroke-width="0.6"/>
<line x1="838.288" y1="-8.7715" x2="854.288" y2="29.2285" stroke="#E2E1DD" stroke-width="0.6"/>
<line x1="842.288" y1="-8.7715" x2="858.288" y2="29.2285" stroke="#E2E1DD" stroke-width="0.6"/>
<line x1="846.288" y1="-8.7715" x2="862.288" y2="29.2285" stroke="#E2E1DD" stroke-width="0.6"/>
<line x1="850.288" y1="-8.7715" x2="866.288" y2="29.2285" stroke="#E2E1DD" stroke-width="0.6"/>
<line x1="854.288" y1="-8.7715" x2="870.288" y2="29.2285" stroke="#E2E1DD" stroke-width="0.6"/>
<line x1="858.288" y1="-8.7715" x2="874.288" y2="29.2285" stroke="#E2E1DD" stroke-width="0.6"/>
<line x1="862.288" y1="-8.7715" x2="878.288" y2="29.2285" stroke="#E2E1DD" stroke-width="0.6"/>
<line x1="866.288" y1="-8.7715" x2="882.288" y2="29.2285" stroke="#E2E1DD" stroke-width="0.6"/>
<line x1="870.288" y1="-8.7715" x2="886.288" y2="29.2285" stroke="#E2E1DD" stroke-width="0.6"/>
<line x1="874.288" y1="-8.7715" x2="890.288" y2="29.2285" stroke="#E2E1DD" stroke-width="0.6"/>
<line x1="878.288" y1="-8.7715" x2="894.288" y2="29.2285" stroke="#E2E1DD" stroke-width="0.6"/>
<line x1="882.288" y1="-8.7715" x2="898.288" y2="29.2285" stroke="#E2E1DD" stroke-width="0.6"/>
<line x1="886.288" y1="-8.7715" x2="902.288" y2="29.2285" stroke="#E2E1DD" stroke-width="0.6"/>
<line x1="890.288" y1="-8.7715" x2="906.288" y2="29.2285" stroke="#E2E1DD" stroke-width="0.6"/>
<line x1="894.288" y1="-8.7715" x2="910.288" y2="29.2285" stroke="#E2E1DD" stroke-width="0.6"/>
<line x1="898.288" y1="-8.7715" x2="914.288" y2="29.2285" stroke="#E2E1DD" stroke-width="0.6"/>
<line x1="902.288" y1="-8.7715" x2="918.288" y2="29.2285" stroke="#E2E1DD" stroke-width="0.6"/>
<line x1="906.288" y1="-8.7715" x2="922.288" y2="29.2285" stroke="#E2E1DD" stroke-width="0.6"/>
<line x1="910.288" y1="-8.7715" x2="926.288" y2="29.2285" stroke="#E2E1DD" stroke-width="0.6"/>
<line x1="914.288" y1="-8.7715" x2="930.288" y2="29.2285" stroke="#E2E1DD" stroke-width="0.6"/>
<line x1="918.288" y1="-8.7715" x2="934.288" y2="29.2285" stroke="#E2E1DD" stroke-width="0.6"/>
<line x1="922.288" y1="-8.7715" x2="938.288" y2="29.2285" stroke="#E2E1DD" stroke-width="0.6"/>
<line x1="926.288" y1="-8.7715" x2="942.288" y2="29.2285" stroke="#E2E1DD" stroke-width="0.6"/>
<line x1="930.288" y1="-8.7715" x2="946.288" y2="29.2285" stroke="#E2E1DD" stroke-width="0.6"/>
<line x1="934.288" y1="-8.7715" x2="950.288" y2="29.2285" stroke="#E2E1DD" stroke-width="0.6"/>
<line x1="938.288" y1="-8.7715" x2="954.288" y2="29.2285" stroke="#E2E1DD" stroke-width="0.6"/>
<line x1="942.288" y1="-8.7715" x2="958.288" y2="29.2285" stroke="#E2E1DD" stroke-width="0.6"/>
<line x1="946.288" y1="-8.7715" x2="962.288" y2="29.2285" stroke="#E2E1DD" stroke-width="0.6"/>
<line x1="950.288" y1="-8.7715" x2="966.288" y2="29.2285" stroke="#E2E1DD" stroke-width="0.6"/>
<line x1="954.288" y1="-8.7715" x2="970.288" y2="29.2285" stroke="#E2E1DD" stroke-width="0.6"/>
<line x1="958.288" y1="-8.7715" x2="974.288" y2="29.2285" stroke="#E2E1DD" stroke-width="0.6"/>
<line x1="962.288" y1="-8.7715" x2="978.288" y2="29.2285" stroke="#E2E1DD" stroke-width="0.6"/>
<line x1="966.288" y1="-8.7715" x2="982.288" y2="29.2285" stroke="#E2E1DD" stroke-width="0.6"/>
<line x1="970.288" y1="-8.7715" x2="986.288" y2="29.2285" stroke="#E2E1DD" stroke-width="0.6"/>
<line x1="974.288" y1="-8.7715" x2="990.288" y2="29.2285" stroke="#E2E1DD" stroke-width="0.6"/>
<line x1="978.288" y1="-8.7715" x2="994.288" y2="29.2285" stroke="#E2E1DD" stroke-width="0.6"/>
<line x1="982.288" y1="-8.7715" x2="998.288" y2="29.2285" stroke="#E2E1DD" stroke-width="0.6"/>
<line x1="986.288" y1="-8.7715" x2="1002.29" y2="29.2285" stroke="#E2E1DD" stroke-width="0.6"/>
<line x1="990.288" y1="-8.7715" x2="1006.29" y2="29.2285" stroke="#E2E1DD" stroke-width="0.6"/>
<line x1="994.288" y1="-8.7715" x2="1010.29" y2="29.2285" stroke="#E2E1DD" stroke-width="0.6"/>
<line x1="998.288" y1="-8.7715" x2="1014.29" y2="29.2285" stroke="#E2E1DD" stroke-width="0.6"/>
<line x1="1002.29" y1="-8.7715" x2="1018.29" y2="29.2285" stroke="#E2E1DD" stroke-width="0.6"/>
<line x1="1006.29" y1="-8.7715" x2="1022.29" y2="29.2285" stroke="#E2E1DD" stroke-width="0.6"/>
<line x1="1010.29" y1="-8.7715" x2="1026.29" y2="29.2285" stroke="#E2E1DD" stroke-width="0.6"/>
<line x1="1014.29" y1="-8.7715" x2="1030.29" y2="29.2285" stroke="#E2E1DD" stroke-width="0.6"/>
<line x1="1018.29" y1="-8.7715" x2="1034.29" y2="29.2285" stroke="#E2E1DD" stroke-width="0.6"/>
<line x1="1022.29" y1="-8.7715" x2="1038.29" y2="29.2285" stroke="#E2E1DD" stroke-width="0.6"/>
<line x1="1026.29" y1="-8.7715" x2="1042.29" y2="29.2285" stroke="#E2E1DD" stroke-width="0.6"/>
<line x1="1030.29" y1="-8.7715" x2="1046.29" y2="29.2285" stroke="#E2E1DD" stroke-width="0.6"/>
<line x1="1034.29" y1="-8.7715" x2="1050.29" y2="29.2285" stroke="#E2E1DD" stroke-width="0.6"/>
<line x1="1038.29" y1="-8.7715" x2="1054.29" y2="29.2285" stroke="#E2E1DD" stroke-width="0.6"/>
<line x1="1042.29" y1="-8.7715" x2="1058.29" y2="29.2285" stroke="#E2E1DD" stroke-width="0.6"/>
<line x1="1046.29" y1="-8.7715" x2="1062.29" y2="29.2285" stroke="#E2E1DD" stroke-width="0.6"/>
<line x1="1050.29" y1="-8.7715" x2="1066.29" y2="29.2285" stroke="#E2E1DD" stroke-width="0.6"/>
<line x1="1054.29" y1="-8.7715" x2="1070.29" y2="29.2285" stroke="#E2E1DD" stroke-width="0.6"/>
<line x1="1058.29" y1="-8.7715" x2="1074.29" y2="29.2285" stroke="#E2E1DD" stroke-width="0.6"/>
<line x1="1062.29" y1="-8.7715" x2="1078.29" y2="29.2285" stroke="#E2E1DD" stroke-width="0.6"/>
<line x1="1066.29" y1="-8.7715" x2="1082.29" y2="29.2285" stroke="#E2E1DD" stroke-width="0.6"/>
<line x1="1070.29" y1="-8.7715" x2="1086.29" y2="29.2285" stroke="#E2E1DD" stroke-width="0.6"/>
<line x1="1074.29" y1="-8.7715" x2="1090.29" y2="29.2285" stroke="#E2E1DD" stroke-width="0.6"/>
<line x1="1078.29" y1="-8.7715" x2="1094.29" y2="29.2285" stroke="#E2E1DD" stroke-width="0.6"/>
<line x1="1082.29" y1="-8.7715" x2="1098.29" y2="29.2285" stroke="#E2E1DD" stroke-width="0.6"/>
<line x1="1086.29" y1="-8.7715" x2="1102.29" y2="29.2285" stroke="#E2E1DD" stroke-width="0.6"/>
<line x1="1090.29" y1="-8.7715" x2="1106.29" y2="29.2285" stroke="#E2E1DD" stroke-width="0.6"/>
<line x1="1094.29" y1="-8.7715" x2="1110.29" y2="29.2285" stroke="#E2E1DD" stroke-width="0.6"/>
<line x1="1098.29" y1="-8.7715" x2="1114.29" y2="29.2285" stroke="#E2E1DD" stroke-width="0.6"/>
<line x1="1102.29" y1="-8.7715" x2="1118.29" y2="29.2285" stroke="#E2E1DD" stroke-width="0.6"/>
<line x1="1106.29" y1="-8.7715" x2="1122.29" y2="29.2285" stroke="#E2E1DD" stroke-width="0.6"/>
<line x1="1110.29" y1="-8.7715" x2="1126.29" y2="29.2285" stroke="#E2E1DD" stroke-width="0.6"/>
<line x1="1114.29" y1="-8.7715" x2="1130.29" y2="29.2285" stroke="#E2E1DD" stroke-width="0.6"/>
<line x1="1118.29" y1="-8.7715" x2="1134.29" y2="29.2285" stroke="#E2E1DD" stroke-width="0.6"/>
<line x1="1122.29" y1="-8.7715" x2="1138.29" y2="29.2285" stroke="#E2E1DD" stroke-width="0.6"/>
<line x1="1126.29" y1="-8.7715" x2="1142.29" y2="29.2285" stroke="#E2E1DD" stroke-width="0.6"/>
<line x1="1130.29" y1="-8.7715" x2="1146.29" y2="29.2285" stroke="#E2E1DD" stroke-width="0.6"/>
<line x1="1134.29" y1="-8.7715" x2="1150.29" y2="29.2285" stroke="#E2E1DD" stroke-width="0.6"/>
<line x1="1138.29" y1="-8.7715" x2="1154.29" y2="29.2285" stroke="#E2E1DD" stroke-width="0.6"/>
<line x1="1142.29" y1="-8.7715" x2="1158.29" y2="29.2285" stroke="#E2E1DD" stroke-width="0.6"/>
<line x1="1146.29" y1="-8.7715" x2="1162.29" y2="29.2285" stroke="#E2E1DD" stroke-width="0.6"/>
<line x1="1150.29" y1="-8.7715" x2="1166.29" y2="29.2285" stroke="#E2E1DD" stroke-width="0.6"/>
<line x1="1154.29" y1="-8.7715" x2="1170.29" y2="29.2285" stroke="#E2E1DD" stroke-width="0.6"/>
<line x1="1158.29" y1="-8.7715" x2="1174.29" y2="29.2285" stroke="#E2E1DD" stroke-width="0.6"/>
<line x1="1162.29" y1="-8.7715" x2="1178.29" y2="29.2285" stroke="#E2E1DD" stroke-width="0.6"/>
<line x1="1166.29" y1="-8.7715" x2="1182.29" y2="29.2285" stroke="#E2E1DD" stroke-width="0.6"/>
<line x1="1170.29" y1="-8.7715" x2="1186.29" y2="29.2285" stroke="#E2E1DD" stroke-width="0.6"/>
<line x1="1174.29" y1="-8.7715" x2="1190.29" y2="29.2285" stroke="#E2E1DD" stroke-width="0.6"/>
<line x1="1178.29" y1="-8.7715" x2="1194.29" y2="29.2285" stroke="#E2E1DD" stroke-width="0.6"/>
<line x1="1182.29" y1="-8.7715" x2="1198.29" y2="29.2285" stroke="#E2E1DD" stroke-width="0.6"/>
<line x1="1186.29" y1="-8.7715" x2="1202.29" y2="29.2285" stroke="#E2E1DD" stroke-width="0.6"/>
<line x1="1190.29" y1="-8.7715" x2="1206.29" y2="29.2285" stroke="#E2E1DD" stroke-width="0.6"/>
<line x1="1194.29" y1="-8.7715" x2="1210.29" y2="29.2285" stroke="#E2E1DD" stroke-width="0.6"/>
</g>
</svg>
