<svg width="132" height="25" viewBox="0 0 132 25" fill="none" xmlns="http://www.w3.org/2000/svg">
<path d="M91.4613 5.20812C89.429 5.20812 87.9775 5.90294 87.2652 7.21789L86.8825 7.92634V5.55153H83.5715V20.0211H87.0539V11.4131C87.0539 9.35638 88.1696 8.17626 90.1179 8.17626C92.0662 8.17626 93.0387 9.32397 93.0387 11.3276V20.0211H96.521V10.7052C96.521 7.26581 94.6286 5.20812 91.4613 5.20812ZM74.5786 5.20812C70.4712 5.20812 67.9186 7.77083 67.9186 11.8994V13.9312C67.9186 17.8986 70.4933 20.3655 74.6364 20.3655C77.4064 20.3655 79.3486 19.3479 80.5709 17.2602L78.4113 16.0195C77.5083 17.2245 76.0672 17.97 74.6364 17.97C72.5387 17.97 71.2854 16.6748 71.2854 14.5039V13.9289H81.0099V11.5273C81.0099 7.68252 78.4855 5.20812 74.5786 5.20812ZM77.8422 11.5874H71.2854V11.2412C71.2854 8.85746 72.4547 7.5444 74.5786 7.5444C76.7025 7.5444 77.8422 8.83961 77.8422 11.0105V11.5874ZM131.089 3.16922V0.401199H119.05V3.16922H123.271V17.2545H119.05V20.0211H131.089V17.2545H126.867V3.16922H131.089ZM39.795 0C34.4165 0 31.0745 3.35384 31.0745 8.75129V11.6701C31.0745 17.069 34.4151 20.4214 39.795 20.4214C45.175 20.4214 48.5156 17.069 48.5156 11.6701V8.75129C48.5142 3.35384 45.1722 0 39.795 0ZM44.9181 11.8698C44.9181 15.4543 43.0516 17.511 39.795 17.511C36.5385 17.511 34.6705 15.4543 34.6705 11.8698V8.55163C34.6705 4.96711 36.5371 2.91036 39.7936 2.91036C43.0502 2.91036 44.9167 4.96711 44.9167 8.55163L44.9181 11.8698ZM59.4488 5.21564C57.6221 5.21564 56.0387 5.97106 55.2155 7.23997L54.8399 7.81688V5.55153H51.5303V25H55.0113V17.9569L55.385 18.5098C56.1683 19.6707 57.6982 20.3655 59.4765 20.3655C62.4785 20.3655 65.5068 18.4018 65.5068 14.0172V11.5536C65.5068 8.3966 63.6398 5.20812 59.4469 5.20812L59.4488 5.21564ZM62.0268 13.8514C62.0268 16.1834 60.6669 17.6327 58.4796 17.6327C56.4397 17.6327 55.015 16.1021 55.015 13.9091V11.7354C55.015 9.5086 56.4519 7.95405 58.5077 7.95405C60.6805 7.95405 62.0301 9.40336 62.0301 11.7354L62.0268 13.8514ZM106.143 0.408247L99.1145 20.0211H102.647L103.992 15.8156H112.07L112.083 15.8569L113.413 20.0211H116.95L109.916 0.401199L106.143 0.408247ZM104.861 13.0546L108.03 3.12459L111.168 13.0424L104.861 13.0546ZM23.0295 10.2302C23.5949 8.5272 23.3991 6.66307 22.4928 5.1151C21.1296 2.74171 18.3901 1.52072 15.7149 2.09433C13.383 -0.500331 9.39058 -0.712676 6.79663 1.61984C5.97346 2.36024 5.35925 3.30358 5.01599 4.35638C3.25836 4.71719 1.74161 5.81791 0.853641 7.37715C-0.524102 9.74678 -0.211353 12.7361 1.62705 14.7693C1.0598 16.4714 1.25374 18.336 2.15908 19.8844C3.52368 22.2588 6.26507 23.4798 8.94167 22.9052C10.1325 24.2465 11.8427 25.0099 13.6361 24.9995C16.3784 25.0019 18.808 23.2308 19.6452 20.6187C21.4024 20.2574 22.9191 19.1567 23.8076 17.5979C25.1689 15.2325 24.8547 12.2588 23.0295 10.2302ZM13.6361 23.3637C12.5415 23.3656 11.4811 22.9818 10.6411 22.2794L10.789 22.1958L15.7642 19.3226C16.0159 19.1746 16.1713 18.9049 16.1732 18.6127V11.5949L18.2764 12.8122C18.2976 12.823 18.3121 12.8432 18.3159 12.8662V18.6813C18.3102 21.2647 16.2183 23.3581 13.6361 23.3637ZM3.57768 19.0665C3.02874 18.1185 2.83151 17.007 3.02122 15.9274L3.16913 16.0162L8.14903 18.8889C8.39978 19.0365 8.71111 19.0365 8.96187 18.8889L15.0452 15.3805V17.8103C15.0438 17.8357 15.0312 17.8592 15.011 17.8742L9.97192 20.7817C7.7325 22.0723 4.87137 21.3051 3.57768 19.0665ZM2.26756 8.22465C2.82025 7.27004 3.69271 6.54233 4.73048 6.16978V12.0835C4.72673 12.3743 4.88122 12.6445 5.13432 12.7882L11.1881 16.2821L9.08488 17.4993C9.06187 17.5115 9.03417 17.5115 9.01117 17.4993L3.98198 14.5964C1.74725 13.3008 0.980913 10.4407 2.26756 8.19975V8.22465ZM19.5471 12.2409L13.4736 8.7123L15.5716 7.50023C15.5947 7.48802 15.6224 7.48802 15.6454 7.50023L20.6745 10.4078C22.913 11.7002 23.6803 14.5636 22.3885 16.8026C21.8447 17.7455 20.9896 18.469 19.9702 18.8495V12.9357C19.9613 12.6454 19.8007 12.3814 19.5471 12.2409ZM21.6405 9.09189L21.4925 9.0031L16.5225 6.10542C16.2699 5.95744 15.9572 5.95744 15.705 6.10542L9.62678 9.61383V7.18406C9.62443 7.15916 9.63572 7.13427 9.65638 7.12017L14.6855 4.21733C16.9273 2.9254 19.7918 3.69585 21.0831 5.93864C21.6287 6.88574 21.826 7.99399 21.6409 9.07122V9.09095L21.6405 9.09189ZM8.47913 13.3989L6.37589 12.1869C6.35476 12.1742 6.34021 12.1521 6.33645 12.1277V6.32716C6.33974 3.73861 8.44017 1.64333 11.0271 1.64662C12.1188 1.64803 13.1763 2.03091 14.0159 2.72949L13.868 2.81312L8.89283 5.68636C8.64114 5.83435 8.48571 6.10401 8.48383 6.39622L8.47913 13.3989ZM9.62162 10.9349L12.3306 9.37283L15.0448 10.9349V14.059L12.3405 15.6215L9.62678 14.059L9.62162 10.9349Z" fill="#A1A1A1"/>
</svg>
