<svg width="252" height="86" viewBox="0 0 252 86" fill="none" xmlns="http://www.w3.org/2000/svg">
<path d="M0 19.8673C0 12.9131 0 9.43599 1.35338 6.77983C2.54384 4.44341 4.44341 2.54384 6.77983 1.35338C9.43599 0 12.9131 0 19.8673 0H232.133C239.087 0 242.564 0 245.22 1.35338C247.557 2.54384 249.456 4.44341 250.647 6.77983C252 9.43599 252 12.9131 252 19.8673V66.1327C252 73.0869 252 76.564 250.647 79.2202C249.456 81.5566 247.557 83.4562 245.22 84.6466C242.564 86 239.087 86 232.133 86H19.8673C12.9131 86 9.43599 86 6.77983 84.6466C4.44341 83.4562 2.54384 81.5566 1.35338 79.2202C0 76.564 0 73.0869 0 66.1327V19.8673Z" fill="white"/>
</svg>
