<svg width="128" height="25" viewBox="0 0 128 25" fill="none" xmlns="http://www.w3.org/2000/svg">
<path d="M40.0699 0.00122261C41.1996 0.0140475 42.3307 0.0109883 43.4616 0.00304907C43.4928 2.76651 43.4671 5.53241 43.4745 8.29648C44.1443 7.27172 45.1733 6.49733 46.3458 6.1474C47.8696 5.67104 49.5948 5.92388 50.9234 6.8088C52.2155 7.64425 53.1177 8.99575 53.56 10.4572C53.9626 11.8001 54.0181 13.2396 53.7851 14.6179C53.4764 16.3743 52.5382 18.0501 51.0723 19.0908C49.8065 20.0056 48.1545 20.3843 46.6252 20.0331C45.2343 19.7418 44.0357 18.8233 43.2707 17.6391C43.1524 18.3634 43.0401 19.0896 42.9328 19.8157C41.9775 19.8248 41.0227 19.8096 40.0674 19.8236C40.0363 14.5434 40.0638 9.26079 40.0546 3.97938C40.0644 2.65292 40.0339 1.32524 40.0699 0M46.2269 9.07392C45.3985 9.24736 44.6512 9.7573 44.1747 10.4553C43.5342 11.3787 43.3256 12.5544 43.4604 13.6585C43.5763 14.6167 43.9954 15.5609 44.7262 16.2058C45.4552 16.8653 46.4916 17.1554 47.4573 16.9985C48.4224 16.8733 49.302 16.2815 49.8205 15.4613C50.4958 14.4024 50.6386 13.0576 50.3446 11.8484C50.1024 10.8322 49.4606 9.88677 48.5236 9.39699C47.8276 9.01773 46.9998 8.93345 46.2275 9.07392H46.2269Z" fill="#A1A1A1"/>
<path d="M63.7981 0.00610352C64.9346 0.0103785 66.071 0.00976777 67.2081 0.00610352C67.2087 6.61093 67.2081 13.2164 67.2081 19.8212C66.071 19.8175 64.9346 19.8187 63.7981 19.8212C63.7981 13.2164 63.7975 6.61093 63.7981 0.00610352Z" fill="#A1A1A1"/>
<path d="M58.1594 0.206445C58.8194 0.0989606 59.5308 0.344467 59.9517 0.871509C60.6087 1.63795 60.5019 2.92899 59.6972 3.55008C58.9817 4.13575 57.844 4.10399 57.1602 3.48229C56.6477 3.03647 56.433 2.29201 56.6014 1.63733C56.7636 0.898375 57.4127 0.309044 58.1588 0.205834L58.1594 0.206445Z" fill="#A1A1A1"/>
<path d="M72.1958 0.209517C72.8784 0.0898178 73.619 0.357312 74.0387 0.915501C74.6438 1.66973 74.5425 2.89603 73.7898 3.51651C73.1236 4.09485 72.0604 4.11745 71.354 3.59834C70.9227 3.28932 70.6476 2.78183 70.6079 2.25357C70.4957 1.29109 71.2375 0.340208 72.1964 0.208906L72.1958 0.209517Z" fill="#A1A1A1"/>
<path d="M125.322 0.288868C125.883 0.100159 126.536 0.161841 127.033 0.495899C127.579 0.851943 127.909 1.50784 127.878 2.15886C127.869 2.89049 127.375 3.58365 126.691 3.84014C125.8 4.19252 124.663 3.82182 124.24 2.93813C123.723 1.95916 124.257 0.613765 125.322 0.288868Z" fill="#A1A1A1"/>
<path d="M13.8174 3.07909C14.921 3.07726 16.0239 3.07543 17.1262 3.07971C17.1299 4.13074 17.1262 5.18238 17.1281 6.23463C18.3585 6.2383 19.5901 6.21264 20.8205 6.24745C20.804 7.18978 20.8132 8.13211 20.815 9.07443C19.5864 9.07504 18.3585 9.07382 17.1299 9.07504C17.1274 10.967 17.1244 12.859 17.1311 14.7516C17.1354 15.5144 17.4867 16.3162 18.1736 16.6967C19.0466 17.1987 20.1056 17.1291 21.0621 16.966C21.0664 17.9364 21.0511 18.9062 21.0694 19.8773C19.5633 20.2064 17.9174 20.2028 16.4893 19.567C15.4132 19.0901 14.5775 18.1477 14.1829 17.0436C13.8913 16.2527 13.79 15.4026 13.8022 14.5629C13.804 12.7362 13.8009 10.909 13.8028 9.08298C13.1494 9.06771 12.4961 9.07749 11.8428 9.07688C11.8446 8.12906 11.8452 7.18123 11.8428 6.23402C12.501 6.23219 13.1598 6.22975 13.8174 6.23463V3.07909Z" fill="#A1A1A1"/>
<path d="M78.5858 3.07178C79.6851 3.08338 80.7838 3.07606 81.8831 3.07545C81.8831 4.12892 81.8714 5.18301 81.8891 6.2377C83.1183 6.22671 84.3475 6.23342 85.5773 6.23403C85.5773 7.18124 85.578 8.12907 85.5773 9.07689C84.3451 9.07444 83.1141 9.07505 81.8831 9.07628C81.8776 10.9353 81.8831 12.7949 81.8806 14.6533C81.8763 15.4344 82.1984 16.2655 82.8951 16.6759C83.7729 17.2097 84.8508 17.1193 85.8232 16.9758C85.8012 17.9499 85.825 18.9252 85.8116 19.9005C84.2261 20.1967 82.4943 20.2162 81.029 19.4589C79.8681 18.8659 79.0543 17.7154 78.7628 16.4555C78.5023 15.4802 78.5779 14.4658 78.5675 13.4685C78.5657 12.004 78.57 10.5401 78.5657 9.07689C77.9087 9.07506 77.2517 9.07322 76.5947 9.0775C76.5929 8.12846 76.5941 7.18063 76.5947 6.23281C77.2584 6.23281 77.9227 6.22915 78.5858 6.23464C78.5834 5.17995 78.5834 4.12525 78.5865 3.07178H78.5858Z" fill="#A1A1A1"/>
<path d="M3.8176 6.04356C5.17429 5.80478 6.5877 5.89211 7.91084 6.27258C8.48854 6.44052 9.04975 6.67137 9.55851 6.99505C9.56644 7.99417 9.56402 8.9939 9.56036 9.99302C8.20915 9.06719 6.52917 8.63114 4.8998 8.76489C4.35138 8.83512 3.72486 9.01955 3.44181 9.53926C3.17401 10.0052 3.33626 10.6495 3.79561 10.9305C4.5673 11.4306 5.49269 11.59 6.36076 11.8453C7.50883 12.169 8.71916 12.5653 9.55124 13.4674C10.2741 14.2393 10.487 15.366 10.3552 16.3896C10.2503 17.506 9.61468 18.5491 8.67951 19.164C7.44543 19.994 5.9063 20.2004 4.45139 20.1558C2.89949 20.0899 1.3195 19.6868 0.0445515 18.7701C0.0561419 17.6947 0.039085 16.618 0.0537257 15.5425C1.42628 16.7475 3.26308 17.4309 5.09376 17.2977C5.68 17.244 6.31746 17.1206 6.74387 16.6791C7.08854 16.3426 7.18065 15.7716 6.94457 15.3496C6.72496 14.9807 6.32296 14.781 5.94292 14.6179C4.48007 14.0225 2.85067 13.8258 1.51106 12.944C0.819286 12.5043 0.273344 11.8129 0.0939969 11.0025C-0.131103 9.96248 0.0457668 8.81924 0.649692 7.93432C1.36769 6.87596 2.58595 6.26647 3.8176 6.04295V6.04356Z" fill="#A1A1A1"/>
<path d="M24.807 7.57394C25.8532 6.54123 27.302 5.87983 28.7838 5.91464C30.1875 5.90304 31.5948 6.46916 32.569 7.48538C32.8545 7.75654 33.0594 8.09549 33.3163 8.39046C33.4175 7.6741 33.5456 6.96201 33.639 6.24443C34.5961 6.21694 35.5527 6.23648 36.5098 6.23465C36.5055 10.7631 36.5098 15.2921 36.5079 19.8205C35.5545 19.8168 34.6016 19.8168 33.6481 19.8205C33.5408 19.0931 33.4194 18.3682 33.3157 17.6403C32.8032 18.3676 32.1877 19.0406 31.399 19.4712C30.0246 20.251 28.297 20.3836 26.8262 19.7997C25.4476 19.2696 24.3111 18.1985 23.6065 16.9099C22.7 15.2677 22.4627 13.3024 22.7933 11.4678C23.0556 10.0101 23.734 8.60665 24.8064 7.57394M29.0034 9.06407C28.1432 9.22468 27.3588 9.73646 26.8592 10.4547C26.1967 11.3933 25.9813 12.6007 26.1399 13.7268C26.2705 14.6618 26.6932 15.5785 27.4118 16.2045C28.1683 16.8775 29.2401 17.1663 30.2332 16.9892C31.1885 16.8433 32.0419 16.2295 32.5312 15.4038C33.1857 14.3174 33.3029 12.9592 32.9948 11.7426C32.7325 10.6983 32.0309 9.73646 31.0317 9.29492C30.4022 8.99933 29.6824 8.95841 29.0022 9.06407H29.0034Z" fill="#A1A1A1"/>
<path d="M110.011 6.75203C111.266 5.94895 112.848 5.70955 114.288 6.07964C115.303 6.3343 116.24 6.90349 116.927 7.69619C117.122 7.91788 117.278 8.17071 117.471 8.39606C117.583 7.67542 117.701 6.95478 117.805 6.23293C118.763 6.23109 119.72 6.23232 120.678 6.23293C120.688 10.7552 120.663 15.2794 120.691 19.8017C119.734 19.8438 118.774 19.8029 117.817 19.8224C117.69 19.0963 117.587 18.3665 117.471 17.6391C117.121 18.1192 116.761 18.5992 116.291 18.9693C114.87 20.1473 112.816 20.4838 111.089 19.8389C109.611 19.3027 108.4 18.1485 107.685 16.7591C106.813 15.0931 106.628 13.1211 106.988 11.2908C107.353 9.46419 108.41 7.73832 110.011 6.75203ZM113.115 9.07395C112.036 9.28403 111.114 10.0664 110.667 11.063C110.268 11.896 110.198 12.8463 110.304 13.7544C110.451 14.7969 110.979 15.8125 111.852 16.4244C113.07 17.3014 114.887 17.2416 116.006 16.2229C117.21 15.1627 117.533 13.3849 117.188 11.8704C116.951 10.8102 116.278 9.8178 115.286 9.33778C114.618 9.00189 113.841 8.9457 113.115 9.07395H113.115Z" fill="#A1A1A1"/>
<path d="M56.7764 6.23656C57.9147 6.23473 59.0536 6.21763 60.1919 6.24572C60.1773 10.7705 60.1895 15.2958 60.1864 19.8206C59.0512 19.8181 57.9147 19.8169 56.7794 19.8206C56.7776 15.2928 56.7831 10.765 56.777 6.23656H56.7764Z" fill="#A1A1A1"/>
<path d="M70.8219 6.24871C71.959 6.21207 73.0985 6.23955 74.2362 6.23528C74.2307 10.7637 74.2356 15.2927 74.2331 19.8223C73.0979 19.8168 71.962 19.8205 70.8268 19.8205C70.8262 15.2964 70.8378 10.7722 70.8213 6.24932L70.8219 6.24871Z" fill="#A1A1A1"/>
<path d="M86.8232 6.23597C88.047 6.22437 89.2707 6.24207 90.495 6.22681C91.5796 9.35303 92.5935 12.5043 93.6805 15.6299C94.0094 14.9044 94.2064 14.1257 94.4815 13.3776C95.2562 11.0807 96.0426 8.78629 96.8143 6.48697C96.8582 6.38926 96.8728 6.19505 97.0302 6.2323C98.1581 6.23291 99.2867 6.22864 100.416 6.23475C97.9593 12.4915 95.5057 18.7488 93.0382 25C91.8944 24.9909 90.75 25.0043 89.6062 24.9927C90.3669 23.1215 91.1654 21.2643 91.9109 19.3876C90.2357 14.9966 88.51 10.6233 86.8232 6.23597Z" fill="#A1A1A1"/>
<path d="M124.263 6.2341C125.403 6.23043 126.542 6.23227 127.682 6.23349C127.674 10.7637 127.7 15.2952 127.669 19.826C126.536 19.8132 125.403 19.8187 124.272 19.8236C124.249 15.294 124.266 10.7643 124.263 6.23471V6.2341Z" fill="#A1A1A1"/>
<path d="M100.687 17.2238C100.929 16.389 101.847 15.8785 102.688 15.9597C103.42 15.9927 104.103 16.4831 104.386 17.1573C104.619 17.7173 104.598 18.3842 104.303 18.918C104.005 19.4829 103.417 19.8804 102.784 19.9501C102.125 20.0349 101.426 19.776 101.001 19.2606C100.57 18.758 100.434 18.0336 100.61 17.4003C100.628 17.3558 100.668 17.2678 100.687 17.2245V17.2238Z" fill="#ADADAC"/>
</svg>
