<svg width="548" height="216" viewBox="0 0 548 216" fill="none" xmlns="http://www.w3.org/2000/svg">
<path d="M547.5 0.5V107.5H441.085C426.466 107.5 415.45 107.499 406.956 108.641C398.447 109.785 392.393 112.084 387.738 116.738C383.084 121.393 380.785 127.447 379.641 135.956C378.499 144.45 378.5 155.466 378.5 170.085V215.5H0.5V108.5H211.915C226.534 108.5 237.55 108.501 246.044 107.359C254.553 106.215 260.607 103.916 265.262 99.2617C269.916 94.6073 272.215 88.5526 273.359 80.0439C274.501 71.5496 274.5 60.5344 274.5 45.915V0.5H547.5Z" fill="#E8E8E6" stroke="#DDDCDA"/>
</svg>
