<svg width="500" height="497" viewBox="0 0 500 497" fill="none" xmlns="http://www.w3.org/2000/svg">
<g opacity="0.2" filter="url(#filter0_di_188_1774)">
<path d="M483.004 287.061C492.867 297.477 499.34 311.57 499.34 327.195V329.033C499.34 359.363 474.681 383.872 444.166 383.872H442.625C411.185 383.872 385.91 358.75 385.91 327.807C385.91 312.183 392.383 298.397 402.246 287.98L419.816 270.518C432.453 257.957 432.453 238.043 419.816 225.789L402.246 208.326C391.766 197.91 385.91 184.124 385.91 168.499V143.99C385.91 126.527 371.731 112.435 354.162 112.435H329.503C313.783 112.435 299.912 106.001 289.432 96.1976L271.863 78.735C259.225 66.1741 239.19 66.1741 226.861 78.735L209.291 96.1976C198.811 106.614 184.941 112.435 169.221 112.435H144.562C126.993 112.435 112.814 126.527 112.814 143.99V168.499C112.814 184.124 106.341 197.91 96.4774 208.326L78.9081 225.789C66.2704 238.35 66.2704 258.263 78.9081 270.518L96.4774 287.98C106.957 298.397 112.814 312.183 112.814 327.807V352.316C112.814 369.779 126.993 383.872 144.562 383.872H169.221C200.661 383.872 225.628 408.993 225.628 439.936C225.628 470.878 200.352 496 169.221 496C137.781 496 112.814 470.878 112.814 439.936V415.427C112.814 397.964 98.6351 383.872 81.0657 383.872H56.4069C24.967 383.872 0 358.75 0 327.807C0 312.183 6.47294 298.397 16.3364 287.98L33.9058 270.518C46.5434 257.957 46.5434 238.043 33.9058 225.789L16.3364 208.326C6.78117 197.91 0.308242 183.817 0.308242 168.499C0.308242 137.25 25.5835 112.435 56.7152 112.435H81.3739C98.9433 112.435 113.122 98.3422 113.122 80.8795V56.3706C113.122 25.1217 138.397 0.306396 169.529 0.306396C185.249 0.306396 199.12 6.73996 209.6 16.5435L227.169 34.0062C239.807 46.567 259.842 46.567 272.171 34.0062L289.741 16.5435C299.604 6.12723 314.091 0 329.503 0C360.943 0 385.91 25.1216 385.91 56.0642V80.5732C385.91 98.0358 400.089 112.128 417.658 112.128H442.625C474.065 112.128 499.032 137.25 499.032 168.193C499.032 183.817 492.559 197.603 482.695 208.02L465.126 225.482C452.488 238.043 452.488 257.957 465.126 270.211L482.695 287.368L483.004 287.061Z" fill="black" fill-opacity="0.12" shape-rendering="crispEdges"/>
</g>
<defs>
<filter id="filter0_di_188_1774" x="0" y="0" width="499.34" height="497" filterUnits="userSpaceOnUse" color-interpolation-filters="sRGB">
<feFlood flood-opacity="0" result="BackgroundImageFix"/>
<feColorMatrix in="SourceAlpha" type="matrix" values="0 0 0 0 0 0 0 0 0 0 0 0 0 0 0 0 0 0 127 0" result="hardAlpha"/>
<feOffset dy="1"/>
<feComposite in2="hardAlpha" operator="out"/>
<feColorMatrix type="matrix" values="0 0 0 0 1 0 0 0 0 1 0 0 0 0 1 0 0 0 0.25 0"/>
<feBlend mode="normal" in2="BackgroundImageFix" result="effect1_dropShadow_188_1774"/>
<feBlend mode="normal" in="SourceGraphic" in2="effect1_dropShadow_188_1774" result="shape"/>
<feColorMatrix in="SourceAlpha" type="matrix" values="0 0 0 0 0 0 0 0 0 0 0 0 0 0 0 0 0 0 127 0" result="hardAlpha"/>
<feOffset dy="1"/>
<feGaussianBlur stdDeviation="1"/>
<feComposite in2="hardAlpha" operator="arithmetic" k2="-1" k3="1"/>
<feColorMatrix type="matrix" values="0 0 0 0 0 0 0 0 0 0 0 0 0 0 0 0 0 0 0.15 0"/>
<feBlend mode="normal" in2="shape" result="effect2_innerShadow_188_1774"/>
</filter>
</defs>
</svg>
